G04 #@! TF.GenerationSoftware,KiCad,Pcbnew,(5.1.2)-1*
G04 #@! TF.CreationDate,2020-05-27T18:22:03+09:00*
G04 #@! TF.ProjectId,i2s,6932732e-6b69-4636-9164-5f7063625858,v1.1*
G04 #@! TF.SameCoordinates,Original*
G04 #@! TF.FileFunction,Soldermask,Bot*
G04 #@! TF.FilePolarity,Negative*
%FSLAX46Y46*%
G04 Gerber Fmt 4.6, Leading zero omitted, Abs format (unit mm)*
G04 Created by KiCad (PCBNEW (5.1.2)-1) date 2020-05-27 18:22:03*
%MOMM*%
%LPD*%
G04 APERTURE LIST*
%ADD10C,0.100000*%
G04 APERTURE END LIST*
D10*
G36*
X123701248Y-147879976D02*
G01*
X123761924Y-147885952D01*
X123917626Y-147933184D01*
X123917628Y-147933185D01*
X124061121Y-148009883D01*
X124186896Y-148113104D01*
X124290117Y-148238879D01*
X124366815Y-148382372D01*
X124366816Y-148382374D01*
X124414048Y-148538076D01*
X124429996Y-148700000D01*
X124414048Y-148861924D01*
X124366816Y-149017626D01*
X124366815Y-149017628D01*
X124290117Y-149161121D01*
X124186896Y-149286896D01*
X124061121Y-149390117D01*
X123917628Y-149466815D01*
X123917626Y-149466816D01*
X123761924Y-149514048D01*
X123701248Y-149520024D01*
X123640574Y-149526000D01*
X123559426Y-149526000D01*
X123498752Y-149520024D01*
X123438076Y-149514048D01*
X123282374Y-149466816D01*
X123282372Y-149466815D01*
X123138879Y-149390117D01*
X123013104Y-149286896D01*
X122909883Y-149161121D01*
X122833185Y-149017628D01*
X122833184Y-149017626D01*
X122785952Y-148861924D01*
X122770004Y-148700000D01*
X122785952Y-148538076D01*
X122833184Y-148382374D01*
X122833185Y-148382372D01*
X122909883Y-148238879D01*
X123013104Y-148113104D01*
X123138879Y-148009883D01*
X123282372Y-147933185D01*
X123282374Y-147933184D01*
X123438076Y-147885952D01*
X123498752Y-147879976D01*
X123559426Y-147874000D01*
X123640574Y-147874000D01*
X123701248Y-147879976D01*
X123701248Y-147879976D01*
G37*
G36*
X116701248Y-147879976D02*
G01*
X116761924Y-147885952D01*
X116917626Y-147933184D01*
X116917628Y-147933185D01*
X117061121Y-148009883D01*
X117186896Y-148113104D01*
X117290117Y-148238879D01*
X117366815Y-148382372D01*
X117366816Y-148382374D01*
X117414048Y-148538076D01*
X117429996Y-148700000D01*
X117414048Y-148861924D01*
X117366816Y-149017626D01*
X117366815Y-149017628D01*
X117290117Y-149161121D01*
X117186896Y-149286896D01*
X117061121Y-149390117D01*
X116917628Y-149466815D01*
X116917626Y-149466816D01*
X116761924Y-149514048D01*
X116701248Y-149520024D01*
X116640574Y-149526000D01*
X116559426Y-149526000D01*
X116498752Y-149520024D01*
X116438076Y-149514048D01*
X116282374Y-149466816D01*
X116282372Y-149466815D01*
X116138879Y-149390117D01*
X116013104Y-149286896D01*
X115909883Y-149161121D01*
X115833185Y-149017628D01*
X115833184Y-149017626D01*
X115785952Y-148861924D01*
X115770004Y-148700000D01*
X115785952Y-148538076D01*
X115833184Y-148382374D01*
X115833185Y-148382372D01*
X115909883Y-148238879D01*
X116013104Y-148113104D01*
X116138879Y-148009883D01*
X116282372Y-147933185D01*
X116282374Y-147933184D01*
X116438076Y-147885952D01*
X116498752Y-147879976D01*
X116559426Y-147874000D01*
X116640574Y-147874000D01*
X116701248Y-147879976D01*
X116701248Y-147879976D01*
G37*
G36*
X117732517Y-145333781D02*
G01*
X117859946Y-145372436D01*
X117977383Y-145435208D01*
X118080317Y-145519683D01*
X118164792Y-145622617D01*
X118227564Y-145740054D01*
X118266219Y-145867483D01*
X118279270Y-146000000D01*
X118266219Y-146132517D01*
X118227564Y-146259946D01*
X118164792Y-146377383D01*
X118080317Y-146480317D01*
X117977383Y-146564792D01*
X117859946Y-146627564D01*
X117732517Y-146666219D01*
X117633205Y-146676000D01*
X117566795Y-146676000D01*
X117467483Y-146666219D01*
X117340054Y-146627564D01*
X117222617Y-146564792D01*
X117119683Y-146480317D01*
X117035208Y-146377383D01*
X116972436Y-146259946D01*
X116933781Y-146132517D01*
X116920730Y-146000000D01*
X116933781Y-145867483D01*
X116972436Y-145740054D01*
X117035208Y-145622617D01*
X117119683Y-145519683D01*
X117222617Y-145435208D01*
X117340054Y-145372436D01*
X117467483Y-145333781D01*
X117566795Y-145324000D01*
X117633205Y-145324000D01*
X117732517Y-145333781D01*
X117732517Y-145333781D01*
G37*
G36*
X122732517Y-145333781D02*
G01*
X122859946Y-145372436D01*
X122977383Y-145435208D01*
X123080317Y-145519683D01*
X123164792Y-145622617D01*
X123227564Y-145740054D01*
X123266219Y-145867483D01*
X123279270Y-146000000D01*
X123266219Y-146132517D01*
X123227564Y-146259946D01*
X123164792Y-146377383D01*
X123080317Y-146480317D01*
X122977383Y-146564792D01*
X122859946Y-146627564D01*
X122732517Y-146666219D01*
X122633205Y-146676000D01*
X122566795Y-146676000D01*
X122467483Y-146666219D01*
X122340054Y-146627564D01*
X122222617Y-146564792D01*
X122119683Y-146480317D01*
X122035208Y-146377383D01*
X121972436Y-146259946D01*
X121933781Y-146132517D01*
X121920730Y-146000000D01*
X121933781Y-145867483D01*
X121972436Y-145740054D01*
X122035208Y-145622617D01*
X122119683Y-145519683D01*
X122222617Y-145435208D01*
X122340054Y-145372436D01*
X122467483Y-145333781D01*
X122566795Y-145324000D01*
X122633205Y-145324000D01*
X122732517Y-145333781D01*
X122732517Y-145333781D01*
G37*
G36*
X102140443Y-139775519D02*
G01*
X102206627Y-139782037D01*
X102376466Y-139833557D01*
X102532991Y-139917222D01*
X102568729Y-139946552D01*
X102670186Y-140029814D01*
X102720810Y-140091501D01*
X102782778Y-140167009D01*
X102866443Y-140323534D01*
X102917963Y-140493373D01*
X102935359Y-140670000D01*
X102917963Y-140846627D01*
X102866443Y-141016466D01*
X102782778Y-141172991D01*
X102753448Y-141208729D01*
X102670186Y-141310186D01*
X102568729Y-141393448D01*
X102532991Y-141422778D01*
X102376466Y-141506443D01*
X102206627Y-141557963D01*
X102140443Y-141564481D01*
X102074260Y-141571000D01*
X101985740Y-141571000D01*
X101919557Y-141564481D01*
X101853373Y-141557963D01*
X101683534Y-141506443D01*
X101527009Y-141422778D01*
X101491271Y-141393448D01*
X101389814Y-141310186D01*
X101306552Y-141208729D01*
X101277222Y-141172991D01*
X101193557Y-141016466D01*
X101142037Y-140846627D01*
X101124641Y-140670000D01*
X101142037Y-140493373D01*
X101193557Y-140323534D01*
X101277222Y-140167009D01*
X101339190Y-140091501D01*
X101389814Y-140029814D01*
X101491271Y-139946552D01*
X101527009Y-139917222D01*
X101683534Y-139833557D01*
X101853373Y-139782037D01*
X101919557Y-139775519D01*
X101985740Y-139769000D01*
X102074260Y-139769000D01*
X102140443Y-139775519D01*
X102140443Y-139775519D01*
G37*
G36*
X127368015Y-137886973D02*
G01*
X127471879Y-137918479D01*
X127499055Y-137933005D01*
X127567600Y-137969643D01*
X127651501Y-138038499D01*
X127720357Y-138122400D01*
X127731662Y-138143551D01*
X127771521Y-138218121D01*
X127775388Y-138230869D01*
X127784760Y-138253496D01*
X127798374Y-138273870D01*
X127815701Y-138291197D01*
X127836075Y-138304811D01*
X127858714Y-138314188D01*
X127882747Y-138318969D01*
X127907251Y-138318969D01*
X127931285Y-138314189D01*
X127953924Y-138304812D01*
X127974298Y-138291198D01*
X127991625Y-138273871D01*
X128005239Y-138253497D01*
X128014612Y-138230869D01*
X128018479Y-138218121D01*
X128058338Y-138143551D01*
X128069643Y-138122400D01*
X128138499Y-138038499D01*
X128222400Y-137969643D01*
X128290945Y-137933005D01*
X128318121Y-137918479D01*
X128421985Y-137886973D01*
X128502933Y-137879000D01*
X128557067Y-137879000D01*
X128638015Y-137886973D01*
X128741879Y-137918479D01*
X128769055Y-137933005D01*
X128837600Y-137969643D01*
X128921501Y-138038499D01*
X128990357Y-138122400D01*
X129001662Y-138143551D01*
X129041521Y-138218121D01*
X129045388Y-138230869D01*
X129054760Y-138253496D01*
X129068374Y-138273870D01*
X129085701Y-138291197D01*
X129106075Y-138304811D01*
X129128714Y-138314188D01*
X129152747Y-138318969D01*
X129177251Y-138318969D01*
X129201285Y-138314189D01*
X129223924Y-138304812D01*
X129244298Y-138291198D01*
X129261625Y-138273871D01*
X129275239Y-138253497D01*
X129284612Y-138230869D01*
X129288479Y-138218121D01*
X129328338Y-138143551D01*
X129339643Y-138122400D01*
X129408499Y-138038499D01*
X129492400Y-137969643D01*
X129560945Y-137933005D01*
X129588121Y-137918479D01*
X129691985Y-137886973D01*
X129772933Y-137879000D01*
X129827067Y-137879000D01*
X129908015Y-137886973D01*
X130011879Y-137918479D01*
X130039055Y-137933005D01*
X130107600Y-137969643D01*
X130191501Y-138038499D01*
X130260357Y-138122400D01*
X130271662Y-138143551D01*
X130311521Y-138218121D01*
X130315388Y-138230869D01*
X130324760Y-138253496D01*
X130338374Y-138273870D01*
X130355701Y-138291197D01*
X130376075Y-138304811D01*
X130398714Y-138314188D01*
X130422747Y-138318969D01*
X130447251Y-138318969D01*
X130471285Y-138314189D01*
X130493924Y-138304812D01*
X130514298Y-138291198D01*
X130531625Y-138273871D01*
X130545239Y-138253497D01*
X130554612Y-138230869D01*
X130558479Y-138218121D01*
X130598338Y-138143551D01*
X130609643Y-138122400D01*
X130678499Y-138038499D01*
X130762400Y-137969643D01*
X130830945Y-137933005D01*
X130858121Y-137918479D01*
X130961985Y-137886973D01*
X131042933Y-137879000D01*
X131097067Y-137879000D01*
X131178015Y-137886973D01*
X131281879Y-137918479D01*
X131309055Y-137933005D01*
X131377600Y-137969643D01*
X131461501Y-138038499D01*
X131530357Y-138122400D01*
X131541662Y-138143551D01*
X131581521Y-138218121D01*
X131585388Y-138230869D01*
X131594760Y-138253496D01*
X131608374Y-138273870D01*
X131625701Y-138291197D01*
X131646075Y-138304811D01*
X131668714Y-138314188D01*
X131692747Y-138318969D01*
X131717251Y-138318969D01*
X131741285Y-138314189D01*
X131763924Y-138304812D01*
X131784298Y-138291198D01*
X131801625Y-138273871D01*
X131815239Y-138253497D01*
X131824612Y-138230869D01*
X131828479Y-138218121D01*
X131868338Y-138143551D01*
X131879643Y-138122400D01*
X131948499Y-138038499D01*
X132032400Y-137969643D01*
X132100945Y-137933005D01*
X132128121Y-137918479D01*
X132231985Y-137886973D01*
X132312933Y-137879000D01*
X132367067Y-137879000D01*
X132448015Y-137886973D01*
X132551879Y-137918479D01*
X132579055Y-137933005D01*
X132647600Y-137969643D01*
X132731501Y-138038499D01*
X132800357Y-138122400D01*
X132811662Y-138143551D01*
X132851521Y-138218121D01*
X132855388Y-138230869D01*
X132864760Y-138253496D01*
X132878374Y-138273870D01*
X132895701Y-138291197D01*
X132916075Y-138304811D01*
X132938714Y-138314188D01*
X132962747Y-138318969D01*
X132987251Y-138318969D01*
X133011285Y-138314189D01*
X133033924Y-138304812D01*
X133054298Y-138291198D01*
X133071625Y-138273871D01*
X133085239Y-138253497D01*
X133094612Y-138230869D01*
X133098479Y-138218121D01*
X133138338Y-138143551D01*
X133149643Y-138122400D01*
X133218499Y-138038499D01*
X133302400Y-137969643D01*
X133370945Y-137933005D01*
X133398121Y-137918479D01*
X133501985Y-137886973D01*
X133582933Y-137879000D01*
X133637067Y-137879000D01*
X133718015Y-137886973D01*
X133821879Y-137918479D01*
X133849055Y-137933005D01*
X133917600Y-137969643D01*
X134001501Y-138038499D01*
X134070357Y-138122400D01*
X134081662Y-138143551D01*
X134121521Y-138218121D01*
X134125388Y-138230869D01*
X134134760Y-138253496D01*
X134148374Y-138273870D01*
X134165701Y-138291197D01*
X134186075Y-138304811D01*
X134208714Y-138314188D01*
X134232747Y-138318969D01*
X134257251Y-138318969D01*
X134281285Y-138314189D01*
X134303924Y-138304812D01*
X134324298Y-138291198D01*
X134341625Y-138273871D01*
X134355239Y-138253497D01*
X134364612Y-138230869D01*
X134368479Y-138218121D01*
X134408338Y-138143551D01*
X134419643Y-138122400D01*
X134488499Y-138038499D01*
X134572400Y-137969643D01*
X134640945Y-137933005D01*
X134668121Y-137918479D01*
X134771985Y-137886973D01*
X134852933Y-137879000D01*
X134907067Y-137879000D01*
X134988015Y-137886973D01*
X135091879Y-137918479D01*
X135119055Y-137933005D01*
X135187600Y-137969643D01*
X135271501Y-138038499D01*
X135340356Y-138122400D01*
X135363764Y-138166193D01*
X135377375Y-138186563D01*
X135394702Y-138203890D01*
X135415076Y-138217504D01*
X135437715Y-138226881D01*
X135461748Y-138231662D01*
X135486252Y-138231662D01*
X135510286Y-138226882D01*
X135532924Y-138217505D01*
X135553299Y-138203891D01*
X135570626Y-138186564D01*
X135584240Y-138166190D01*
X135593617Y-138143551D01*
X135598398Y-138119518D01*
X135599000Y-138107265D01*
X135599000Y-137879000D01*
X136701000Y-137879000D01*
X136701000Y-138981000D01*
X136472735Y-138981000D01*
X136448349Y-138983402D01*
X136424900Y-138990515D01*
X136403289Y-139002066D01*
X136384347Y-139017611D01*
X136368802Y-139036553D01*
X136357251Y-139058164D01*
X136350138Y-139081613D01*
X136347736Y-139105999D01*
X136350138Y-139130385D01*
X136357251Y-139153834D01*
X136368802Y-139175445D01*
X136384347Y-139194387D01*
X136403289Y-139209932D01*
X136413802Y-139216233D01*
X136457600Y-139239644D01*
X136457602Y-139239645D01*
X136457601Y-139239645D01*
X136541501Y-139308499D01*
X136610357Y-139392400D01*
X136646995Y-139460945D01*
X136661521Y-139488121D01*
X136693027Y-139591985D01*
X136703666Y-139700000D01*
X136693027Y-139808015D01*
X136661521Y-139911879D01*
X136658665Y-139917222D01*
X136610357Y-140007600D01*
X136541501Y-140091501D01*
X136457600Y-140160357D01*
X136389055Y-140196995D01*
X136361879Y-140211521D01*
X136258015Y-140243027D01*
X136177067Y-140251000D01*
X136122933Y-140251000D01*
X136041985Y-140243027D01*
X135938121Y-140211521D01*
X135910945Y-140196995D01*
X135842400Y-140160357D01*
X135758499Y-140091501D01*
X135689643Y-140007600D01*
X135641335Y-139917222D01*
X135638479Y-139911879D01*
X135634612Y-139899131D01*
X135625240Y-139876504D01*
X135611626Y-139856130D01*
X135594299Y-139838803D01*
X135573925Y-139825189D01*
X135551286Y-139815812D01*
X135527253Y-139811031D01*
X135502749Y-139811031D01*
X135478715Y-139815811D01*
X135456076Y-139825188D01*
X135435702Y-139838802D01*
X135418375Y-139856129D01*
X135404761Y-139876503D01*
X135395388Y-139899131D01*
X135391521Y-139911879D01*
X135388665Y-139917222D01*
X135340357Y-140007600D01*
X135271501Y-140091501D01*
X135187600Y-140160357D01*
X135119055Y-140196995D01*
X135091879Y-140211521D01*
X134988015Y-140243027D01*
X134907067Y-140251000D01*
X134852933Y-140251000D01*
X134771985Y-140243027D01*
X134668121Y-140211521D01*
X134640945Y-140196995D01*
X134572400Y-140160357D01*
X134488499Y-140091501D01*
X134419643Y-140007600D01*
X134371335Y-139917222D01*
X134368479Y-139911879D01*
X134364612Y-139899131D01*
X134355240Y-139876504D01*
X134341626Y-139856130D01*
X134324299Y-139838803D01*
X134303925Y-139825189D01*
X134281286Y-139815812D01*
X134257253Y-139811031D01*
X134232749Y-139811031D01*
X134208715Y-139815811D01*
X134186076Y-139825188D01*
X134165702Y-139838802D01*
X134148375Y-139856129D01*
X134134761Y-139876503D01*
X134125388Y-139899131D01*
X134121521Y-139911879D01*
X134118665Y-139917222D01*
X134070357Y-140007600D01*
X134001501Y-140091501D01*
X133917600Y-140160357D01*
X133849055Y-140196995D01*
X133821879Y-140211521D01*
X133718015Y-140243027D01*
X133637067Y-140251000D01*
X133582933Y-140251000D01*
X133501985Y-140243027D01*
X133398121Y-140211521D01*
X133370945Y-140196995D01*
X133302400Y-140160357D01*
X133218499Y-140091501D01*
X133149643Y-140007600D01*
X133101335Y-139917222D01*
X133098479Y-139911879D01*
X133094612Y-139899131D01*
X133085240Y-139876504D01*
X133071626Y-139856130D01*
X133054299Y-139838803D01*
X133033925Y-139825189D01*
X133011286Y-139815812D01*
X132987253Y-139811031D01*
X132962749Y-139811031D01*
X132938715Y-139815811D01*
X132916076Y-139825188D01*
X132895702Y-139838802D01*
X132878375Y-139856129D01*
X132864761Y-139876503D01*
X132855388Y-139899131D01*
X132851521Y-139911879D01*
X132848665Y-139917222D01*
X132800357Y-140007600D01*
X132731501Y-140091501D01*
X132647600Y-140160357D01*
X132579055Y-140196995D01*
X132551879Y-140211521D01*
X132448015Y-140243027D01*
X132367067Y-140251000D01*
X132312933Y-140251000D01*
X132231985Y-140243027D01*
X132128121Y-140211521D01*
X132100945Y-140196995D01*
X132032400Y-140160357D01*
X131948499Y-140091501D01*
X131879643Y-140007600D01*
X131831335Y-139917222D01*
X131828479Y-139911879D01*
X131824612Y-139899131D01*
X131815240Y-139876504D01*
X131801626Y-139856130D01*
X131784299Y-139838803D01*
X131763925Y-139825189D01*
X131741286Y-139815812D01*
X131717253Y-139811031D01*
X131692749Y-139811031D01*
X131668715Y-139815811D01*
X131646076Y-139825188D01*
X131625702Y-139838802D01*
X131608375Y-139856129D01*
X131594761Y-139876503D01*
X131585388Y-139899131D01*
X131581521Y-139911879D01*
X131578665Y-139917222D01*
X131530357Y-140007600D01*
X131461501Y-140091501D01*
X131377600Y-140160357D01*
X131309055Y-140196995D01*
X131281879Y-140211521D01*
X131178015Y-140243027D01*
X131097067Y-140251000D01*
X131042933Y-140251000D01*
X130961985Y-140243027D01*
X130858121Y-140211521D01*
X130830945Y-140196995D01*
X130762400Y-140160357D01*
X130678499Y-140091501D01*
X130609643Y-140007600D01*
X130561335Y-139917222D01*
X130558479Y-139911879D01*
X130554612Y-139899131D01*
X130545240Y-139876504D01*
X130531626Y-139856130D01*
X130514299Y-139838803D01*
X130493925Y-139825189D01*
X130471286Y-139815812D01*
X130447253Y-139811031D01*
X130422749Y-139811031D01*
X130398715Y-139815811D01*
X130376076Y-139825188D01*
X130355702Y-139838802D01*
X130338375Y-139856129D01*
X130324761Y-139876503D01*
X130315388Y-139899131D01*
X130311521Y-139911879D01*
X130308665Y-139917222D01*
X130260357Y-140007600D01*
X130191501Y-140091501D01*
X130107600Y-140160357D01*
X130039055Y-140196995D01*
X130011879Y-140211521D01*
X129908015Y-140243027D01*
X129827067Y-140251000D01*
X129772933Y-140251000D01*
X129691985Y-140243027D01*
X129588121Y-140211521D01*
X129560945Y-140196995D01*
X129492400Y-140160357D01*
X129408499Y-140091501D01*
X129339643Y-140007600D01*
X129291335Y-139917222D01*
X129288479Y-139911879D01*
X129284612Y-139899131D01*
X129275240Y-139876504D01*
X129261626Y-139856130D01*
X129244299Y-139838803D01*
X129223925Y-139825189D01*
X129201286Y-139815812D01*
X129177253Y-139811031D01*
X129152749Y-139811031D01*
X129128715Y-139815811D01*
X129106076Y-139825188D01*
X129085702Y-139838802D01*
X129068375Y-139856129D01*
X129054761Y-139876503D01*
X129045388Y-139899131D01*
X129041521Y-139911879D01*
X129038665Y-139917222D01*
X128990357Y-140007600D01*
X128921501Y-140091501D01*
X128837600Y-140160357D01*
X128769055Y-140196995D01*
X128741879Y-140211521D01*
X128638015Y-140243027D01*
X128557067Y-140251000D01*
X128502933Y-140251000D01*
X128421985Y-140243027D01*
X128318121Y-140211521D01*
X128290945Y-140196995D01*
X128222400Y-140160357D01*
X128138499Y-140091501D01*
X128069643Y-140007600D01*
X128021335Y-139917222D01*
X128018479Y-139911879D01*
X128014612Y-139899131D01*
X128005240Y-139876504D01*
X127991626Y-139856130D01*
X127974299Y-139838803D01*
X127953925Y-139825189D01*
X127931286Y-139815812D01*
X127907253Y-139811031D01*
X127882749Y-139811031D01*
X127858715Y-139815811D01*
X127836076Y-139825188D01*
X127815702Y-139838802D01*
X127798375Y-139856129D01*
X127784761Y-139876503D01*
X127775388Y-139899131D01*
X127771521Y-139911879D01*
X127768665Y-139917222D01*
X127720357Y-140007600D01*
X127651501Y-140091501D01*
X127567600Y-140160357D01*
X127499055Y-140196995D01*
X127471879Y-140211521D01*
X127368015Y-140243027D01*
X127287067Y-140251000D01*
X127232933Y-140251000D01*
X127151985Y-140243027D01*
X127048121Y-140211521D01*
X127020945Y-140196995D01*
X126952400Y-140160357D01*
X126868499Y-140091501D01*
X126799643Y-140007600D01*
X126751335Y-139917222D01*
X126748479Y-139911879D01*
X126716973Y-139808015D01*
X126706334Y-139700000D01*
X126716973Y-139591985D01*
X126748479Y-139488121D01*
X126763005Y-139460945D01*
X126799643Y-139392400D01*
X126868499Y-139308499D01*
X126952400Y-139239643D01*
X127021656Y-139202625D01*
X127048121Y-139188479D01*
X127060869Y-139184612D01*
X127083496Y-139175240D01*
X127103870Y-139161626D01*
X127121197Y-139144299D01*
X127134811Y-139123925D01*
X127144188Y-139101286D01*
X127148969Y-139077253D01*
X127148969Y-139052749D01*
X127148969Y-139052747D01*
X127371031Y-139052747D01*
X127371031Y-139077251D01*
X127375811Y-139101285D01*
X127385188Y-139123924D01*
X127398802Y-139144298D01*
X127416129Y-139161625D01*
X127436503Y-139175239D01*
X127459131Y-139184612D01*
X127471879Y-139188479D01*
X127498344Y-139202625D01*
X127567600Y-139239643D01*
X127651501Y-139308499D01*
X127720357Y-139392400D01*
X127756995Y-139460945D01*
X127771521Y-139488121D01*
X127775388Y-139500869D01*
X127784760Y-139523496D01*
X127798374Y-139543870D01*
X127815701Y-139561197D01*
X127836075Y-139574811D01*
X127858714Y-139584188D01*
X127882747Y-139588969D01*
X127907251Y-139588969D01*
X127931285Y-139584189D01*
X127953924Y-139574812D01*
X127974298Y-139561198D01*
X127991625Y-139543871D01*
X128005239Y-139523497D01*
X128014612Y-139500869D01*
X128018479Y-139488121D01*
X128033005Y-139460945D01*
X128069643Y-139392400D01*
X128138499Y-139308499D01*
X128222400Y-139239643D01*
X128291656Y-139202625D01*
X128318121Y-139188479D01*
X128330869Y-139184612D01*
X128353496Y-139175240D01*
X128373870Y-139161626D01*
X128391197Y-139144299D01*
X128404811Y-139123925D01*
X128414188Y-139101286D01*
X128418969Y-139077253D01*
X128418969Y-139052749D01*
X128418969Y-139052747D01*
X128641031Y-139052747D01*
X128641031Y-139077251D01*
X128645811Y-139101285D01*
X128655188Y-139123924D01*
X128668802Y-139144298D01*
X128686129Y-139161625D01*
X128706503Y-139175239D01*
X128729131Y-139184612D01*
X128741879Y-139188479D01*
X128768344Y-139202625D01*
X128837600Y-139239643D01*
X128921501Y-139308499D01*
X128990357Y-139392400D01*
X129026995Y-139460945D01*
X129041521Y-139488121D01*
X129045388Y-139500869D01*
X129054760Y-139523496D01*
X129068374Y-139543870D01*
X129085701Y-139561197D01*
X129106075Y-139574811D01*
X129128714Y-139584188D01*
X129152747Y-139588969D01*
X129177251Y-139588969D01*
X129201285Y-139584189D01*
X129223924Y-139574812D01*
X129244298Y-139561198D01*
X129261625Y-139543871D01*
X129275239Y-139523497D01*
X129284612Y-139500869D01*
X129288479Y-139488121D01*
X129303005Y-139460945D01*
X129339643Y-139392400D01*
X129408499Y-139308499D01*
X129492400Y-139239643D01*
X129561656Y-139202625D01*
X129588121Y-139188479D01*
X129600869Y-139184612D01*
X129623496Y-139175240D01*
X129643870Y-139161626D01*
X129661197Y-139144299D01*
X129674811Y-139123925D01*
X129684188Y-139101286D01*
X129688969Y-139077253D01*
X129688969Y-139052749D01*
X129688969Y-139052747D01*
X129911031Y-139052747D01*
X129911031Y-139077251D01*
X129915811Y-139101285D01*
X129925188Y-139123924D01*
X129938802Y-139144298D01*
X129956129Y-139161625D01*
X129976503Y-139175239D01*
X129999131Y-139184612D01*
X130011879Y-139188479D01*
X130038344Y-139202625D01*
X130107600Y-139239643D01*
X130191501Y-139308499D01*
X130260357Y-139392400D01*
X130296995Y-139460945D01*
X130311521Y-139488121D01*
X130315388Y-139500869D01*
X130324760Y-139523496D01*
X130338374Y-139543870D01*
X130355701Y-139561197D01*
X130376075Y-139574811D01*
X130398714Y-139584188D01*
X130422747Y-139588969D01*
X130447251Y-139588969D01*
X130471285Y-139584189D01*
X130493924Y-139574812D01*
X130514298Y-139561198D01*
X130531625Y-139543871D01*
X130545239Y-139523497D01*
X130554612Y-139500869D01*
X130558479Y-139488121D01*
X130573005Y-139460945D01*
X130609643Y-139392400D01*
X130678499Y-139308499D01*
X130762400Y-139239643D01*
X130831656Y-139202625D01*
X130858121Y-139188479D01*
X130870869Y-139184612D01*
X130893496Y-139175240D01*
X130913870Y-139161626D01*
X130931197Y-139144299D01*
X130944811Y-139123925D01*
X130954188Y-139101286D01*
X130958969Y-139077253D01*
X130958969Y-139052749D01*
X130958969Y-139052747D01*
X131181031Y-139052747D01*
X131181031Y-139077251D01*
X131185811Y-139101285D01*
X131195188Y-139123924D01*
X131208802Y-139144298D01*
X131226129Y-139161625D01*
X131246503Y-139175239D01*
X131269131Y-139184612D01*
X131281879Y-139188479D01*
X131308344Y-139202625D01*
X131377600Y-139239643D01*
X131461501Y-139308499D01*
X131530357Y-139392400D01*
X131566995Y-139460945D01*
X131581521Y-139488121D01*
X131585388Y-139500869D01*
X131594760Y-139523496D01*
X131608374Y-139543870D01*
X131625701Y-139561197D01*
X131646075Y-139574811D01*
X131668714Y-139584188D01*
X131692747Y-139588969D01*
X131717251Y-139588969D01*
X131741285Y-139584189D01*
X131763924Y-139574812D01*
X131784298Y-139561198D01*
X131801625Y-139543871D01*
X131815239Y-139523497D01*
X131824612Y-139500869D01*
X131828479Y-139488121D01*
X131843005Y-139460945D01*
X131879643Y-139392400D01*
X131948499Y-139308499D01*
X132032400Y-139239643D01*
X132101656Y-139202625D01*
X132128121Y-139188479D01*
X132140869Y-139184612D01*
X132163496Y-139175240D01*
X132183870Y-139161626D01*
X132201197Y-139144299D01*
X132214811Y-139123925D01*
X132224188Y-139101286D01*
X132228969Y-139077253D01*
X132228969Y-139052749D01*
X132228969Y-139052747D01*
X132451031Y-139052747D01*
X132451031Y-139077251D01*
X132455811Y-139101285D01*
X132465188Y-139123924D01*
X132478802Y-139144298D01*
X132496129Y-139161625D01*
X132516503Y-139175239D01*
X132539131Y-139184612D01*
X132551879Y-139188479D01*
X132578344Y-139202625D01*
X132647600Y-139239643D01*
X132731501Y-139308499D01*
X132800357Y-139392400D01*
X132836995Y-139460945D01*
X132851521Y-139488121D01*
X132855388Y-139500869D01*
X132864760Y-139523496D01*
X132878374Y-139543870D01*
X132895701Y-139561197D01*
X132916075Y-139574811D01*
X132938714Y-139584188D01*
X132962747Y-139588969D01*
X132987251Y-139588969D01*
X133011285Y-139584189D01*
X133033924Y-139574812D01*
X133054298Y-139561198D01*
X133071625Y-139543871D01*
X133085239Y-139523497D01*
X133094612Y-139500869D01*
X133098479Y-139488121D01*
X133113005Y-139460945D01*
X133149643Y-139392400D01*
X133218499Y-139308499D01*
X133302400Y-139239643D01*
X133371656Y-139202625D01*
X133398121Y-139188479D01*
X133410869Y-139184612D01*
X133433496Y-139175240D01*
X133453870Y-139161626D01*
X133471197Y-139144299D01*
X133484811Y-139123925D01*
X133494188Y-139101286D01*
X133498969Y-139077253D01*
X133498969Y-139052749D01*
X133498969Y-139052747D01*
X133721031Y-139052747D01*
X133721031Y-139077251D01*
X133725811Y-139101285D01*
X133735188Y-139123924D01*
X133748802Y-139144298D01*
X133766129Y-139161625D01*
X133786503Y-139175239D01*
X133809131Y-139184612D01*
X133821879Y-139188479D01*
X133848344Y-139202625D01*
X133917600Y-139239643D01*
X134001501Y-139308499D01*
X134070357Y-139392400D01*
X134106995Y-139460945D01*
X134121521Y-139488121D01*
X134125388Y-139500869D01*
X134134760Y-139523496D01*
X134148374Y-139543870D01*
X134165701Y-139561197D01*
X134186075Y-139574811D01*
X134208714Y-139584188D01*
X134232747Y-139588969D01*
X134257251Y-139588969D01*
X134281285Y-139584189D01*
X134303924Y-139574812D01*
X134324298Y-139561198D01*
X134341625Y-139543871D01*
X134355239Y-139523497D01*
X134364612Y-139500869D01*
X134368479Y-139488121D01*
X134383005Y-139460945D01*
X134419643Y-139392400D01*
X134488499Y-139308499D01*
X134572400Y-139239643D01*
X134641656Y-139202625D01*
X134668121Y-139188479D01*
X134680869Y-139184612D01*
X134703496Y-139175240D01*
X134723870Y-139161626D01*
X134741197Y-139144299D01*
X134754811Y-139123925D01*
X134764188Y-139101286D01*
X134768969Y-139077253D01*
X134768969Y-139052749D01*
X134768969Y-139052747D01*
X134991031Y-139052747D01*
X134991031Y-139077251D01*
X134995811Y-139101285D01*
X135005188Y-139123924D01*
X135018802Y-139144298D01*
X135036129Y-139161625D01*
X135056503Y-139175239D01*
X135079131Y-139184612D01*
X135091879Y-139188479D01*
X135118344Y-139202625D01*
X135187600Y-139239643D01*
X135271501Y-139308499D01*
X135340357Y-139392400D01*
X135376995Y-139460945D01*
X135391521Y-139488121D01*
X135395388Y-139500869D01*
X135404760Y-139523496D01*
X135418374Y-139543870D01*
X135435701Y-139561197D01*
X135456075Y-139574811D01*
X135478714Y-139584188D01*
X135502747Y-139588969D01*
X135527251Y-139588969D01*
X135551285Y-139584189D01*
X135573924Y-139574812D01*
X135594298Y-139561198D01*
X135611625Y-139543871D01*
X135625239Y-139523497D01*
X135634612Y-139500869D01*
X135638479Y-139488121D01*
X135653005Y-139460945D01*
X135689643Y-139392400D01*
X135758499Y-139308499D01*
X135842399Y-139239645D01*
X135842398Y-139239645D01*
X135842400Y-139239644D01*
X135886193Y-139216236D01*
X135906563Y-139202625D01*
X135923890Y-139185298D01*
X135937504Y-139164924D01*
X135946881Y-139142285D01*
X135951662Y-139118252D01*
X135951662Y-139093748D01*
X135946882Y-139069714D01*
X135937505Y-139047076D01*
X135923891Y-139026701D01*
X135906564Y-139009374D01*
X135886190Y-138995760D01*
X135863551Y-138986383D01*
X135839518Y-138981602D01*
X135827265Y-138981000D01*
X135599000Y-138981000D01*
X135599000Y-138752735D01*
X135596598Y-138728349D01*
X135589485Y-138704900D01*
X135577934Y-138683289D01*
X135562389Y-138664347D01*
X135543447Y-138648802D01*
X135521836Y-138637251D01*
X135498387Y-138630138D01*
X135474001Y-138627736D01*
X135449615Y-138630138D01*
X135426166Y-138637251D01*
X135404555Y-138648802D01*
X135385613Y-138664347D01*
X135370068Y-138683289D01*
X135363767Y-138693802D01*
X135340356Y-138737600D01*
X135340355Y-138737601D01*
X135271501Y-138821501D01*
X135187600Y-138890357D01*
X135119055Y-138926995D01*
X135091879Y-138941521D01*
X135079131Y-138945388D01*
X135056504Y-138954760D01*
X135036130Y-138968374D01*
X135018803Y-138985701D01*
X135005189Y-139006075D01*
X134995812Y-139028714D01*
X134991031Y-139052747D01*
X134768969Y-139052747D01*
X134764189Y-139028715D01*
X134754812Y-139006076D01*
X134741198Y-138985702D01*
X134723871Y-138968375D01*
X134703497Y-138954761D01*
X134680869Y-138945388D01*
X134668121Y-138941521D01*
X134640945Y-138926995D01*
X134572400Y-138890357D01*
X134488499Y-138821501D01*
X134419643Y-138737600D01*
X134380489Y-138664347D01*
X134368479Y-138641879D01*
X134364612Y-138629131D01*
X134355240Y-138606504D01*
X134341626Y-138586130D01*
X134324299Y-138568803D01*
X134303925Y-138555189D01*
X134281286Y-138545812D01*
X134257253Y-138541031D01*
X134232749Y-138541031D01*
X134208715Y-138545811D01*
X134186076Y-138555188D01*
X134165702Y-138568802D01*
X134148375Y-138586129D01*
X134134761Y-138606503D01*
X134125388Y-138629131D01*
X134121521Y-138641879D01*
X134109511Y-138664347D01*
X134070357Y-138737600D01*
X134001501Y-138821501D01*
X133917600Y-138890357D01*
X133849055Y-138926995D01*
X133821879Y-138941521D01*
X133809131Y-138945388D01*
X133786504Y-138954760D01*
X133766130Y-138968374D01*
X133748803Y-138985701D01*
X133735189Y-139006075D01*
X133725812Y-139028714D01*
X133721031Y-139052747D01*
X133498969Y-139052747D01*
X133494189Y-139028715D01*
X133484812Y-139006076D01*
X133471198Y-138985702D01*
X133453871Y-138968375D01*
X133433497Y-138954761D01*
X133410869Y-138945388D01*
X133398121Y-138941521D01*
X133370945Y-138926995D01*
X133302400Y-138890357D01*
X133218499Y-138821501D01*
X133149643Y-138737600D01*
X133110489Y-138664347D01*
X133098479Y-138641879D01*
X133094612Y-138629131D01*
X133085240Y-138606504D01*
X133071626Y-138586130D01*
X133054299Y-138568803D01*
X133033925Y-138555189D01*
X133011286Y-138545812D01*
X132987253Y-138541031D01*
X132962749Y-138541031D01*
X132938715Y-138545811D01*
X132916076Y-138555188D01*
X132895702Y-138568802D01*
X132878375Y-138586129D01*
X132864761Y-138606503D01*
X132855388Y-138629131D01*
X132851521Y-138641879D01*
X132839511Y-138664347D01*
X132800357Y-138737600D01*
X132731501Y-138821501D01*
X132647600Y-138890357D01*
X132579055Y-138926995D01*
X132551879Y-138941521D01*
X132539131Y-138945388D01*
X132516504Y-138954760D01*
X132496130Y-138968374D01*
X132478803Y-138985701D01*
X132465189Y-139006075D01*
X132455812Y-139028714D01*
X132451031Y-139052747D01*
X132228969Y-139052747D01*
X132224189Y-139028715D01*
X132214812Y-139006076D01*
X132201198Y-138985702D01*
X132183871Y-138968375D01*
X132163497Y-138954761D01*
X132140869Y-138945388D01*
X132128121Y-138941521D01*
X132100945Y-138926995D01*
X132032400Y-138890357D01*
X131948499Y-138821501D01*
X131879643Y-138737600D01*
X131840489Y-138664347D01*
X131828479Y-138641879D01*
X131824612Y-138629131D01*
X131815240Y-138606504D01*
X131801626Y-138586130D01*
X131784299Y-138568803D01*
X131763925Y-138555189D01*
X131741286Y-138545812D01*
X131717253Y-138541031D01*
X131692749Y-138541031D01*
X131668715Y-138545811D01*
X131646076Y-138555188D01*
X131625702Y-138568802D01*
X131608375Y-138586129D01*
X131594761Y-138606503D01*
X131585388Y-138629131D01*
X131581521Y-138641879D01*
X131569511Y-138664347D01*
X131530357Y-138737600D01*
X131461501Y-138821501D01*
X131377600Y-138890357D01*
X131309055Y-138926995D01*
X131281879Y-138941521D01*
X131269131Y-138945388D01*
X131246504Y-138954760D01*
X131226130Y-138968374D01*
X131208803Y-138985701D01*
X131195189Y-139006075D01*
X131185812Y-139028714D01*
X131181031Y-139052747D01*
X130958969Y-139052747D01*
X130954189Y-139028715D01*
X130944812Y-139006076D01*
X130931198Y-138985702D01*
X130913871Y-138968375D01*
X130893497Y-138954761D01*
X130870869Y-138945388D01*
X130858121Y-138941521D01*
X130830945Y-138926995D01*
X130762400Y-138890357D01*
X130678499Y-138821501D01*
X130609643Y-138737600D01*
X130570489Y-138664347D01*
X130558479Y-138641879D01*
X130554612Y-138629131D01*
X130545240Y-138606504D01*
X130531626Y-138586130D01*
X130514299Y-138568803D01*
X130493925Y-138555189D01*
X130471286Y-138545812D01*
X130447253Y-138541031D01*
X130422749Y-138541031D01*
X130398715Y-138545811D01*
X130376076Y-138555188D01*
X130355702Y-138568802D01*
X130338375Y-138586129D01*
X130324761Y-138606503D01*
X130315388Y-138629131D01*
X130311521Y-138641879D01*
X130299511Y-138664347D01*
X130260357Y-138737600D01*
X130191501Y-138821501D01*
X130107600Y-138890357D01*
X130039055Y-138926995D01*
X130011879Y-138941521D01*
X129999131Y-138945388D01*
X129976504Y-138954760D01*
X129956130Y-138968374D01*
X129938803Y-138985701D01*
X129925189Y-139006075D01*
X129915812Y-139028714D01*
X129911031Y-139052747D01*
X129688969Y-139052747D01*
X129684189Y-139028715D01*
X129674812Y-139006076D01*
X129661198Y-138985702D01*
X129643871Y-138968375D01*
X129623497Y-138954761D01*
X129600869Y-138945388D01*
X129588121Y-138941521D01*
X129560945Y-138926995D01*
X129492400Y-138890357D01*
X129408499Y-138821501D01*
X129339643Y-138737600D01*
X129300489Y-138664347D01*
X129288479Y-138641879D01*
X129284612Y-138629131D01*
X129275240Y-138606504D01*
X129261626Y-138586130D01*
X129244299Y-138568803D01*
X129223925Y-138555189D01*
X129201286Y-138545812D01*
X129177253Y-138541031D01*
X129152749Y-138541031D01*
X129128715Y-138545811D01*
X129106076Y-138555188D01*
X129085702Y-138568802D01*
X129068375Y-138586129D01*
X129054761Y-138606503D01*
X129045388Y-138629131D01*
X129041521Y-138641879D01*
X129029511Y-138664347D01*
X128990357Y-138737600D01*
X128921501Y-138821501D01*
X128837600Y-138890357D01*
X128769055Y-138926995D01*
X128741879Y-138941521D01*
X128729131Y-138945388D01*
X128706504Y-138954760D01*
X128686130Y-138968374D01*
X128668803Y-138985701D01*
X128655189Y-139006075D01*
X128645812Y-139028714D01*
X128641031Y-139052747D01*
X128418969Y-139052747D01*
X128414189Y-139028715D01*
X128404812Y-139006076D01*
X128391198Y-138985702D01*
X128373871Y-138968375D01*
X128353497Y-138954761D01*
X128330869Y-138945388D01*
X128318121Y-138941521D01*
X128290945Y-138926995D01*
X128222400Y-138890357D01*
X128138499Y-138821501D01*
X128069643Y-138737600D01*
X128030489Y-138664347D01*
X128018479Y-138641879D01*
X128014612Y-138629131D01*
X128005240Y-138606504D01*
X127991626Y-138586130D01*
X127974299Y-138568803D01*
X127953925Y-138555189D01*
X127931286Y-138545812D01*
X127907253Y-138541031D01*
X127882749Y-138541031D01*
X127858715Y-138545811D01*
X127836076Y-138555188D01*
X127815702Y-138568802D01*
X127798375Y-138586129D01*
X127784761Y-138606503D01*
X127775388Y-138629131D01*
X127771521Y-138641879D01*
X127759511Y-138664347D01*
X127720357Y-138737600D01*
X127651501Y-138821501D01*
X127567600Y-138890357D01*
X127499055Y-138926995D01*
X127471879Y-138941521D01*
X127459131Y-138945388D01*
X127436504Y-138954760D01*
X127416130Y-138968374D01*
X127398803Y-138985701D01*
X127385189Y-139006075D01*
X127375812Y-139028714D01*
X127371031Y-139052747D01*
X127148969Y-139052747D01*
X127144189Y-139028715D01*
X127134812Y-139006076D01*
X127121198Y-138985702D01*
X127103871Y-138968375D01*
X127083497Y-138954761D01*
X127060869Y-138945388D01*
X127048121Y-138941521D01*
X127020945Y-138926995D01*
X126952400Y-138890357D01*
X126868499Y-138821501D01*
X126799643Y-138737600D01*
X126760489Y-138664347D01*
X126748479Y-138641879D01*
X126716973Y-138538015D01*
X126706334Y-138430000D01*
X126716973Y-138321985D01*
X126748479Y-138218121D01*
X126788338Y-138143551D01*
X126799643Y-138122400D01*
X126868499Y-138038499D01*
X126952400Y-137969643D01*
X127020945Y-137933005D01*
X127048121Y-137918479D01*
X127151985Y-137886973D01*
X127232933Y-137879000D01*
X127287067Y-137879000D01*
X127368015Y-137886973D01*
X127368015Y-137886973D01*
G37*
G36*
X102140442Y-137235518D02*
G01*
X102206627Y-137242037D01*
X102376466Y-137293557D01*
X102532991Y-137377222D01*
X102568729Y-137406552D01*
X102670186Y-137489814D01*
X102753448Y-137591271D01*
X102782778Y-137627009D01*
X102866443Y-137783534D01*
X102917963Y-137953373D01*
X102935359Y-138130000D01*
X102917963Y-138306627D01*
X102866443Y-138476466D01*
X102782778Y-138632991D01*
X102775481Y-138641882D01*
X102670186Y-138770186D01*
X102568729Y-138853448D01*
X102532991Y-138882778D01*
X102376466Y-138966443D01*
X102206627Y-139017963D01*
X102140443Y-139024481D01*
X102074260Y-139031000D01*
X101985740Y-139031000D01*
X101919557Y-139024481D01*
X101853373Y-139017963D01*
X101683534Y-138966443D01*
X101527009Y-138882778D01*
X101491271Y-138853448D01*
X101389814Y-138770186D01*
X101284519Y-138641882D01*
X101277222Y-138632991D01*
X101193557Y-138476466D01*
X101142037Y-138306627D01*
X101124641Y-138130000D01*
X101142037Y-137953373D01*
X101193557Y-137783534D01*
X101277222Y-137627009D01*
X101306552Y-137591271D01*
X101389814Y-137489814D01*
X101491271Y-137406552D01*
X101527009Y-137377222D01*
X101683534Y-137293557D01*
X101853373Y-137242037D01*
X101919558Y-137235518D01*
X101985740Y-137229000D01*
X102074260Y-137229000D01*
X102140442Y-137235518D01*
X102140442Y-137235518D01*
G37*
G36*
X102140442Y-134695518D02*
G01*
X102206627Y-134702037D01*
X102376466Y-134753557D01*
X102532991Y-134837222D01*
X102568729Y-134866552D01*
X102670186Y-134949814D01*
X102753448Y-135051271D01*
X102782778Y-135087009D01*
X102866443Y-135243534D01*
X102917963Y-135413373D01*
X102935359Y-135590000D01*
X102917963Y-135766627D01*
X102866443Y-135936466D01*
X102782778Y-136092991D01*
X102753448Y-136128729D01*
X102670186Y-136230186D01*
X102568729Y-136313448D01*
X102532991Y-136342778D01*
X102376466Y-136426443D01*
X102206627Y-136477963D01*
X102140442Y-136484482D01*
X102074260Y-136491000D01*
X101985740Y-136491000D01*
X101919558Y-136484482D01*
X101853373Y-136477963D01*
X101683534Y-136426443D01*
X101527009Y-136342778D01*
X101491271Y-136313448D01*
X101389814Y-136230186D01*
X101306552Y-136128729D01*
X101277222Y-136092991D01*
X101193557Y-135936466D01*
X101142037Y-135766627D01*
X101124641Y-135590000D01*
X101142037Y-135413373D01*
X101193557Y-135243534D01*
X101277222Y-135087009D01*
X101306552Y-135051271D01*
X101389814Y-134949814D01*
X101491271Y-134866552D01*
X101527009Y-134837222D01*
X101683534Y-134753557D01*
X101853373Y-134702037D01*
X101919558Y-134695518D01*
X101985740Y-134689000D01*
X102074260Y-134689000D01*
X102140442Y-134695518D01*
X102140442Y-134695518D01*
G37*
G36*
X102140443Y-132155519D02*
G01*
X102206627Y-132162037D01*
X102376466Y-132213557D01*
X102532991Y-132297222D01*
X102568729Y-132326552D01*
X102670186Y-132409814D01*
X102753448Y-132511271D01*
X102782778Y-132547009D01*
X102866443Y-132703534D01*
X102917963Y-132873373D01*
X102935359Y-133050000D01*
X102917963Y-133226627D01*
X102866443Y-133396466D01*
X102782778Y-133552991D01*
X102753448Y-133588729D01*
X102670186Y-133690186D01*
X102568729Y-133773448D01*
X102532991Y-133802778D01*
X102376466Y-133886443D01*
X102206627Y-133937963D01*
X102140442Y-133944482D01*
X102074260Y-133951000D01*
X101985740Y-133951000D01*
X101919558Y-133944482D01*
X101853373Y-133937963D01*
X101683534Y-133886443D01*
X101527009Y-133802778D01*
X101491271Y-133773448D01*
X101389814Y-133690186D01*
X101306552Y-133588729D01*
X101277222Y-133552991D01*
X101193557Y-133396466D01*
X101142037Y-133226627D01*
X101124641Y-133050000D01*
X101142037Y-132873373D01*
X101193557Y-132703534D01*
X101277222Y-132547009D01*
X101306552Y-132511271D01*
X101389814Y-132409814D01*
X101491271Y-132326552D01*
X101527009Y-132297222D01*
X101683534Y-132213557D01*
X101853373Y-132162037D01*
X101919557Y-132155519D01*
X101985740Y-132149000D01*
X102074260Y-132149000D01*
X102140443Y-132155519D01*
X102140443Y-132155519D01*
G37*
G36*
X102140442Y-129615518D02*
G01*
X102206627Y-129622037D01*
X102376466Y-129673557D01*
X102532991Y-129757222D01*
X102568729Y-129786552D01*
X102670186Y-129869814D01*
X102753448Y-129971271D01*
X102782778Y-130007009D01*
X102866443Y-130163534D01*
X102917963Y-130333373D01*
X102935359Y-130510000D01*
X102917963Y-130686627D01*
X102866443Y-130856466D01*
X102782778Y-131012991D01*
X102753448Y-131048729D01*
X102670186Y-131150186D01*
X102568729Y-131233448D01*
X102532991Y-131262778D01*
X102376466Y-131346443D01*
X102206627Y-131397963D01*
X102140443Y-131404481D01*
X102074260Y-131411000D01*
X101985740Y-131411000D01*
X101919557Y-131404481D01*
X101853373Y-131397963D01*
X101683534Y-131346443D01*
X101527009Y-131262778D01*
X101491271Y-131233448D01*
X101389814Y-131150186D01*
X101306552Y-131048729D01*
X101277222Y-131012991D01*
X101193557Y-130856466D01*
X101142037Y-130686627D01*
X101124641Y-130510000D01*
X101142037Y-130333373D01*
X101193557Y-130163534D01*
X101277222Y-130007009D01*
X101306552Y-129971271D01*
X101389814Y-129869814D01*
X101491271Y-129786552D01*
X101527009Y-129757222D01*
X101683534Y-129673557D01*
X101853373Y-129622037D01*
X101919558Y-129615518D01*
X101985740Y-129609000D01*
X102074260Y-129609000D01*
X102140442Y-129615518D01*
X102140442Y-129615518D01*
G37*
G36*
X102931000Y-128871000D02*
G01*
X101129000Y-128871000D01*
X101129000Y-127069000D01*
X102931000Y-127069000D01*
X102931000Y-128871000D01*
X102931000Y-128871000D01*
G37*
G36*
X111150442Y-127005518D02*
G01*
X111216627Y-127012037D01*
X111386466Y-127063557D01*
X111542991Y-127147222D01*
X111578729Y-127176552D01*
X111680186Y-127259814D01*
X111763448Y-127361271D01*
X111792778Y-127397009D01*
X111876443Y-127553534D01*
X111927963Y-127723373D01*
X111945359Y-127900000D01*
X111927963Y-128076627D01*
X111876443Y-128246466D01*
X111792778Y-128402991D01*
X111763448Y-128438729D01*
X111680186Y-128540186D01*
X111578729Y-128623448D01*
X111542991Y-128652778D01*
X111386466Y-128736443D01*
X111216627Y-128787963D01*
X111150442Y-128794482D01*
X111084260Y-128801000D01*
X110995740Y-128801000D01*
X110929558Y-128794482D01*
X110863373Y-128787963D01*
X110693534Y-128736443D01*
X110537009Y-128652778D01*
X110501271Y-128623448D01*
X110399814Y-128540186D01*
X110316552Y-128438729D01*
X110287222Y-128402991D01*
X110203557Y-128246466D01*
X110152037Y-128076627D01*
X110134641Y-127900000D01*
X110152037Y-127723373D01*
X110203557Y-127553534D01*
X110287222Y-127397009D01*
X110316552Y-127361271D01*
X110399814Y-127259814D01*
X110501271Y-127176552D01*
X110537009Y-127147222D01*
X110693534Y-127063557D01*
X110863373Y-127012037D01*
X110929558Y-127005518D01*
X110995740Y-126999000D01*
X111084260Y-126999000D01*
X111150442Y-127005518D01*
X111150442Y-127005518D01*
G37*
G36*
X109401000Y-128801000D02*
G01*
X107599000Y-128801000D01*
X107599000Y-126999000D01*
X109401000Y-126999000D01*
X109401000Y-128801000D01*
X109401000Y-128801000D01*
G37*
G36*
X113690442Y-127005518D02*
G01*
X113756627Y-127012037D01*
X113926466Y-127063557D01*
X114082991Y-127147222D01*
X114118729Y-127176552D01*
X114220186Y-127259814D01*
X114303448Y-127361271D01*
X114332778Y-127397009D01*
X114416443Y-127553534D01*
X114467963Y-127723373D01*
X114485359Y-127900000D01*
X114467963Y-128076627D01*
X114416443Y-128246466D01*
X114332778Y-128402991D01*
X114303448Y-128438729D01*
X114220186Y-128540186D01*
X114118729Y-128623448D01*
X114082991Y-128652778D01*
X113926466Y-128736443D01*
X113756627Y-128787963D01*
X113690442Y-128794482D01*
X113624260Y-128801000D01*
X113535740Y-128801000D01*
X113469558Y-128794482D01*
X113403373Y-128787963D01*
X113233534Y-128736443D01*
X113077009Y-128652778D01*
X113041271Y-128623448D01*
X112939814Y-128540186D01*
X112856552Y-128438729D01*
X112827222Y-128402991D01*
X112743557Y-128246466D01*
X112692037Y-128076627D01*
X112674641Y-127900000D01*
X112692037Y-127723373D01*
X112743557Y-127553534D01*
X112827222Y-127397009D01*
X112856552Y-127361271D01*
X112939814Y-127259814D01*
X113041271Y-127176552D01*
X113077009Y-127147222D01*
X113233534Y-127063557D01*
X113403373Y-127012037D01*
X113469558Y-127005518D01*
X113535740Y-126999000D01*
X113624260Y-126999000D01*
X113690442Y-127005518D01*
X113690442Y-127005518D01*
G37*
G36*
X129250442Y-127005518D02*
G01*
X129316627Y-127012037D01*
X129486466Y-127063557D01*
X129642991Y-127147222D01*
X129678729Y-127176552D01*
X129780186Y-127259814D01*
X129863448Y-127361271D01*
X129892778Y-127397009D01*
X129976443Y-127553534D01*
X130027963Y-127723373D01*
X130045359Y-127900000D01*
X130027963Y-128076627D01*
X129976443Y-128246466D01*
X129892778Y-128402991D01*
X129863448Y-128438729D01*
X129780186Y-128540186D01*
X129678729Y-128623448D01*
X129642991Y-128652778D01*
X129486466Y-128736443D01*
X129316627Y-128787963D01*
X129250442Y-128794482D01*
X129184260Y-128801000D01*
X129095740Y-128801000D01*
X129029558Y-128794482D01*
X128963373Y-128787963D01*
X128793534Y-128736443D01*
X128637009Y-128652778D01*
X128601271Y-128623448D01*
X128499814Y-128540186D01*
X128416552Y-128438729D01*
X128387222Y-128402991D01*
X128303557Y-128246466D01*
X128252037Y-128076627D01*
X128234641Y-127900000D01*
X128252037Y-127723373D01*
X128303557Y-127553534D01*
X128387222Y-127397009D01*
X128416552Y-127361271D01*
X128499814Y-127259814D01*
X128601271Y-127176552D01*
X128637009Y-127147222D01*
X128793534Y-127063557D01*
X128963373Y-127012037D01*
X129029558Y-127005518D01*
X129095740Y-126999000D01*
X129184260Y-126999000D01*
X129250442Y-127005518D01*
X129250442Y-127005518D01*
G37*
G36*
X131790442Y-127005518D02*
G01*
X131856627Y-127012037D01*
X132026466Y-127063557D01*
X132182991Y-127147222D01*
X132218729Y-127176552D01*
X132320186Y-127259814D01*
X132403448Y-127361271D01*
X132432778Y-127397009D01*
X132516443Y-127553534D01*
X132567963Y-127723373D01*
X132585359Y-127900000D01*
X132567963Y-128076627D01*
X132516443Y-128246466D01*
X132432778Y-128402991D01*
X132403448Y-128438729D01*
X132320186Y-128540186D01*
X132218729Y-128623448D01*
X132182991Y-128652778D01*
X132026466Y-128736443D01*
X131856627Y-128787963D01*
X131790442Y-128794482D01*
X131724260Y-128801000D01*
X131635740Y-128801000D01*
X131569558Y-128794482D01*
X131503373Y-128787963D01*
X131333534Y-128736443D01*
X131177009Y-128652778D01*
X131141271Y-128623448D01*
X131039814Y-128540186D01*
X130956552Y-128438729D01*
X130927222Y-128402991D01*
X130843557Y-128246466D01*
X130792037Y-128076627D01*
X130774641Y-127900000D01*
X130792037Y-127723373D01*
X130843557Y-127553534D01*
X130927222Y-127397009D01*
X130956552Y-127361271D01*
X131039814Y-127259814D01*
X131141271Y-127176552D01*
X131177009Y-127147222D01*
X131333534Y-127063557D01*
X131503373Y-127012037D01*
X131569558Y-127005518D01*
X131635740Y-126999000D01*
X131724260Y-126999000D01*
X131790442Y-127005518D01*
X131790442Y-127005518D01*
G37*
G36*
X127501000Y-128801000D02*
G01*
X125699000Y-128801000D01*
X125699000Y-126999000D01*
X127501000Y-126999000D01*
X127501000Y-128801000D01*
X127501000Y-128801000D01*
G37*
G36*
X129070443Y-123405519D02*
G01*
X129136627Y-123412037D01*
X129306466Y-123463557D01*
X129462991Y-123547222D01*
X129498729Y-123576552D01*
X129600186Y-123659814D01*
X129683448Y-123761271D01*
X129712778Y-123797009D01*
X129796443Y-123953534D01*
X129847963Y-124123373D01*
X129865359Y-124300000D01*
X129847963Y-124476627D01*
X129796443Y-124646466D01*
X129712778Y-124802991D01*
X129683448Y-124838729D01*
X129600186Y-124940186D01*
X129498729Y-125023448D01*
X129462991Y-125052778D01*
X129306466Y-125136443D01*
X129136627Y-125187963D01*
X129070443Y-125194481D01*
X129004260Y-125201000D01*
X128915740Y-125201000D01*
X128849557Y-125194481D01*
X128783373Y-125187963D01*
X128613534Y-125136443D01*
X128457009Y-125052778D01*
X128421271Y-125023448D01*
X128319814Y-124940186D01*
X128236552Y-124838729D01*
X128207222Y-124802991D01*
X128123557Y-124646466D01*
X128072037Y-124476627D01*
X128054641Y-124300000D01*
X128072037Y-124123373D01*
X128123557Y-123953534D01*
X128207222Y-123797009D01*
X128236552Y-123761271D01*
X128319814Y-123659814D01*
X128421271Y-123576552D01*
X128457009Y-123547222D01*
X128613534Y-123463557D01*
X128783373Y-123412037D01*
X128849557Y-123405519D01*
X128915740Y-123399000D01*
X129004260Y-123399000D01*
X129070443Y-123405519D01*
X129070443Y-123405519D01*
G37*
G36*
X126530443Y-123405519D02*
G01*
X126596627Y-123412037D01*
X126766466Y-123463557D01*
X126922991Y-123547222D01*
X126958729Y-123576552D01*
X127060186Y-123659814D01*
X127143448Y-123761271D01*
X127172778Y-123797009D01*
X127256443Y-123953534D01*
X127307963Y-124123373D01*
X127325359Y-124300000D01*
X127307963Y-124476627D01*
X127256443Y-124646466D01*
X127172778Y-124802991D01*
X127143448Y-124838729D01*
X127060186Y-124940186D01*
X126958729Y-125023448D01*
X126922991Y-125052778D01*
X126766466Y-125136443D01*
X126596627Y-125187963D01*
X126530443Y-125194481D01*
X126464260Y-125201000D01*
X126375740Y-125201000D01*
X126309557Y-125194481D01*
X126243373Y-125187963D01*
X126073534Y-125136443D01*
X125917009Y-125052778D01*
X125881271Y-125023448D01*
X125779814Y-124940186D01*
X125696552Y-124838729D01*
X125667222Y-124802991D01*
X125583557Y-124646466D01*
X125532037Y-124476627D01*
X125514641Y-124300000D01*
X125532037Y-124123373D01*
X125583557Y-123953534D01*
X125667222Y-123797009D01*
X125696552Y-123761271D01*
X125779814Y-123659814D01*
X125881271Y-123576552D01*
X125917009Y-123547222D01*
X126073534Y-123463557D01*
X126243373Y-123412037D01*
X126309557Y-123405519D01*
X126375740Y-123399000D01*
X126464260Y-123399000D01*
X126530443Y-123405519D01*
X126530443Y-123405519D01*
G37*
G36*
X124781000Y-125201000D02*
G01*
X122979000Y-125201000D01*
X122979000Y-123399000D01*
X124781000Y-123399000D01*
X124781000Y-125201000D01*
X124781000Y-125201000D01*
G37*
G36*
X116270443Y-123405519D02*
G01*
X116336627Y-123412037D01*
X116506466Y-123463557D01*
X116662991Y-123547222D01*
X116698729Y-123576552D01*
X116800186Y-123659814D01*
X116883448Y-123761271D01*
X116912778Y-123797009D01*
X116996443Y-123953534D01*
X117047963Y-124123373D01*
X117065359Y-124300000D01*
X117047963Y-124476627D01*
X116996443Y-124646466D01*
X116912778Y-124802991D01*
X116883448Y-124838729D01*
X116800186Y-124940186D01*
X116698729Y-125023448D01*
X116662991Y-125052778D01*
X116506466Y-125136443D01*
X116336627Y-125187963D01*
X116270443Y-125194481D01*
X116204260Y-125201000D01*
X116115740Y-125201000D01*
X116049557Y-125194481D01*
X115983373Y-125187963D01*
X115813534Y-125136443D01*
X115657009Y-125052778D01*
X115621271Y-125023448D01*
X115519814Y-124940186D01*
X115436552Y-124838729D01*
X115407222Y-124802991D01*
X115323557Y-124646466D01*
X115272037Y-124476627D01*
X115254641Y-124300000D01*
X115272037Y-124123373D01*
X115323557Y-123953534D01*
X115407222Y-123797009D01*
X115436552Y-123761271D01*
X115519814Y-123659814D01*
X115621271Y-123576552D01*
X115657009Y-123547222D01*
X115813534Y-123463557D01*
X115983373Y-123412037D01*
X116049557Y-123405519D01*
X116115740Y-123399000D01*
X116204260Y-123399000D01*
X116270443Y-123405519D01*
X116270443Y-123405519D01*
G37*
G36*
X113730443Y-123405519D02*
G01*
X113796627Y-123412037D01*
X113966466Y-123463557D01*
X114122991Y-123547222D01*
X114158729Y-123576552D01*
X114260186Y-123659814D01*
X114343448Y-123761271D01*
X114372778Y-123797009D01*
X114456443Y-123953534D01*
X114507963Y-124123373D01*
X114525359Y-124300000D01*
X114507963Y-124476627D01*
X114456443Y-124646466D01*
X114372778Y-124802991D01*
X114343448Y-124838729D01*
X114260186Y-124940186D01*
X114158729Y-125023448D01*
X114122991Y-125052778D01*
X113966466Y-125136443D01*
X113796627Y-125187963D01*
X113730443Y-125194481D01*
X113664260Y-125201000D01*
X113575740Y-125201000D01*
X113509557Y-125194481D01*
X113443373Y-125187963D01*
X113273534Y-125136443D01*
X113117009Y-125052778D01*
X113081271Y-125023448D01*
X112979814Y-124940186D01*
X112896552Y-124838729D01*
X112867222Y-124802991D01*
X112783557Y-124646466D01*
X112732037Y-124476627D01*
X112714641Y-124300000D01*
X112732037Y-124123373D01*
X112783557Y-123953534D01*
X112867222Y-123797009D01*
X112896552Y-123761271D01*
X112979814Y-123659814D01*
X113081271Y-123576552D01*
X113117009Y-123547222D01*
X113273534Y-123463557D01*
X113443373Y-123412037D01*
X113509557Y-123405519D01*
X113575740Y-123399000D01*
X113664260Y-123399000D01*
X113730443Y-123405519D01*
X113730443Y-123405519D01*
G37*
G36*
X111190443Y-123405519D02*
G01*
X111256627Y-123412037D01*
X111426466Y-123463557D01*
X111582991Y-123547222D01*
X111618729Y-123576552D01*
X111720186Y-123659814D01*
X111803448Y-123761271D01*
X111832778Y-123797009D01*
X111916443Y-123953534D01*
X111967963Y-124123373D01*
X111985359Y-124300000D01*
X111967963Y-124476627D01*
X111916443Y-124646466D01*
X111832778Y-124802991D01*
X111803448Y-124838729D01*
X111720186Y-124940186D01*
X111618729Y-125023448D01*
X111582991Y-125052778D01*
X111426466Y-125136443D01*
X111256627Y-125187963D01*
X111190443Y-125194481D01*
X111124260Y-125201000D01*
X111035740Y-125201000D01*
X110969557Y-125194481D01*
X110903373Y-125187963D01*
X110733534Y-125136443D01*
X110577009Y-125052778D01*
X110541271Y-125023448D01*
X110439814Y-124940186D01*
X110356552Y-124838729D01*
X110327222Y-124802991D01*
X110243557Y-124646466D01*
X110192037Y-124476627D01*
X110174641Y-124300000D01*
X110192037Y-124123373D01*
X110243557Y-123953534D01*
X110327222Y-123797009D01*
X110356552Y-123761271D01*
X110439814Y-123659814D01*
X110541271Y-123576552D01*
X110577009Y-123547222D01*
X110733534Y-123463557D01*
X110903373Y-123412037D01*
X110969557Y-123405519D01*
X111035740Y-123399000D01*
X111124260Y-123399000D01*
X111190443Y-123405519D01*
X111190443Y-123405519D01*
G37*
G36*
X108650443Y-123405519D02*
G01*
X108716627Y-123412037D01*
X108886466Y-123463557D01*
X109042991Y-123547222D01*
X109078729Y-123576552D01*
X109180186Y-123659814D01*
X109263448Y-123761271D01*
X109292778Y-123797009D01*
X109376443Y-123953534D01*
X109427963Y-124123373D01*
X109445359Y-124300000D01*
X109427963Y-124476627D01*
X109376443Y-124646466D01*
X109292778Y-124802991D01*
X109263448Y-124838729D01*
X109180186Y-124940186D01*
X109078729Y-125023448D01*
X109042991Y-125052778D01*
X108886466Y-125136443D01*
X108716627Y-125187963D01*
X108650443Y-125194481D01*
X108584260Y-125201000D01*
X108495740Y-125201000D01*
X108429557Y-125194481D01*
X108363373Y-125187963D01*
X108193534Y-125136443D01*
X108037009Y-125052778D01*
X108001271Y-125023448D01*
X107899814Y-124940186D01*
X107816552Y-124838729D01*
X107787222Y-124802991D01*
X107703557Y-124646466D01*
X107652037Y-124476627D01*
X107634641Y-124300000D01*
X107652037Y-124123373D01*
X107703557Y-123953534D01*
X107787222Y-123797009D01*
X107816552Y-123761271D01*
X107899814Y-123659814D01*
X108001271Y-123576552D01*
X108037009Y-123547222D01*
X108193534Y-123463557D01*
X108363373Y-123412037D01*
X108429557Y-123405519D01*
X108495740Y-123399000D01*
X108584260Y-123399000D01*
X108650443Y-123405519D01*
X108650443Y-123405519D01*
G37*
G36*
X106901000Y-125201000D02*
G01*
X105099000Y-125201000D01*
X105099000Y-123399000D01*
X106901000Y-123399000D01*
X106901000Y-125201000D01*
X106901000Y-125201000D01*
G37*
G36*
X131610443Y-123405519D02*
G01*
X131676627Y-123412037D01*
X131846466Y-123463557D01*
X132002991Y-123547222D01*
X132038729Y-123576552D01*
X132140186Y-123659814D01*
X132223448Y-123761271D01*
X132252778Y-123797009D01*
X132336443Y-123953534D01*
X132387963Y-124123373D01*
X132405359Y-124300000D01*
X132387963Y-124476627D01*
X132336443Y-124646466D01*
X132252778Y-124802991D01*
X132223448Y-124838729D01*
X132140186Y-124940186D01*
X132038729Y-125023448D01*
X132002991Y-125052778D01*
X131846466Y-125136443D01*
X131676627Y-125187963D01*
X131610443Y-125194481D01*
X131544260Y-125201000D01*
X131455740Y-125201000D01*
X131389557Y-125194481D01*
X131323373Y-125187963D01*
X131153534Y-125136443D01*
X130997009Y-125052778D01*
X130961271Y-125023448D01*
X130859814Y-124940186D01*
X130776552Y-124838729D01*
X130747222Y-124802991D01*
X130663557Y-124646466D01*
X130612037Y-124476627D01*
X130594641Y-124300000D01*
X130612037Y-124123373D01*
X130663557Y-123953534D01*
X130747222Y-123797009D01*
X130776552Y-123761271D01*
X130859814Y-123659814D01*
X130961271Y-123576552D01*
X130997009Y-123547222D01*
X131153534Y-123463557D01*
X131323373Y-123412037D01*
X131389557Y-123405519D01*
X131455740Y-123399000D01*
X131544260Y-123399000D01*
X131610443Y-123405519D01*
X131610443Y-123405519D01*
G37*
G36*
X134150443Y-123405519D02*
G01*
X134216627Y-123412037D01*
X134386466Y-123463557D01*
X134542991Y-123547222D01*
X134578729Y-123576552D01*
X134680186Y-123659814D01*
X134763448Y-123761271D01*
X134792778Y-123797009D01*
X134876443Y-123953534D01*
X134927963Y-124123373D01*
X134945359Y-124300000D01*
X134927963Y-124476627D01*
X134876443Y-124646466D01*
X134792778Y-124802991D01*
X134763448Y-124838729D01*
X134680186Y-124940186D01*
X134578729Y-125023448D01*
X134542991Y-125052778D01*
X134386466Y-125136443D01*
X134216627Y-125187963D01*
X134150443Y-125194481D01*
X134084260Y-125201000D01*
X133995740Y-125201000D01*
X133929557Y-125194481D01*
X133863373Y-125187963D01*
X133693534Y-125136443D01*
X133537009Y-125052778D01*
X133501271Y-125023448D01*
X133399814Y-124940186D01*
X133316552Y-124838729D01*
X133287222Y-124802991D01*
X133203557Y-124646466D01*
X133152037Y-124476627D01*
X133134641Y-124300000D01*
X133152037Y-124123373D01*
X133203557Y-123953534D01*
X133287222Y-123797009D01*
X133316552Y-123761271D01*
X133399814Y-123659814D01*
X133501271Y-123576552D01*
X133537009Y-123547222D01*
X133693534Y-123463557D01*
X133863373Y-123412037D01*
X133929557Y-123405519D01*
X133995740Y-123399000D01*
X134084260Y-123399000D01*
X134150443Y-123405519D01*
X134150443Y-123405519D01*
G37*
G36*
X111310443Y-105405519D02*
G01*
X111376627Y-105412037D01*
X111546466Y-105463557D01*
X111702991Y-105547222D01*
X111738729Y-105576552D01*
X111840186Y-105659814D01*
X111923448Y-105761271D01*
X111952778Y-105797009D01*
X112036443Y-105953534D01*
X112087963Y-106123373D01*
X112105359Y-106300000D01*
X112087963Y-106476627D01*
X112036443Y-106646466D01*
X111952778Y-106802991D01*
X111923448Y-106838729D01*
X111840186Y-106940186D01*
X111738729Y-107023448D01*
X111702991Y-107052778D01*
X111546466Y-107136443D01*
X111376627Y-107187963D01*
X111310443Y-107194481D01*
X111244260Y-107201000D01*
X111155740Y-107201000D01*
X111089557Y-107194481D01*
X111023373Y-107187963D01*
X110853534Y-107136443D01*
X110697009Y-107052778D01*
X110661271Y-107023448D01*
X110559814Y-106940186D01*
X110476552Y-106838729D01*
X110447222Y-106802991D01*
X110363557Y-106646466D01*
X110312037Y-106476627D01*
X110294641Y-106300000D01*
X110312037Y-106123373D01*
X110363557Y-105953534D01*
X110447222Y-105797009D01*
X110476552Y-105761271D01*
X110559814Y-105659814D01*
X110661271Y-105576552D01*
X110697009Y-105547222D01*
X110853534Y-105463557D01*
X111023373Y-105412037D01*
X111089557Y-105405519D01*
X111155740Y-105399000D01*
X111244260Y-105399000D01*
X111310443Y-105405519D01*
X111310443Y-105405519D01*
G37*
G36*
X131790443Y-105405519D02*
G01*
X131856627Y-105412037D01*
X132026466Y-105463557D01*
X132182991Y-105547222D01*
X132218729Y-105576552D01*
X132320186Y-105659814D01*
X132403448Y-105761271D01*
X132432778Y-105797009D01*
X132516443Y-105953534D01*
X132567963Y-106123373D01*
X132585359Y-106300000D01*
X132567963Y-106476627D01*
X132516443Y-106646466D01*
X132432778Y-106802991D01*
X132403448Y-106838729D01*
X132320186Y-106940186D01*
X132218729Y-107023448D01*
X132182991Y-107052778D01*
X132026466Y-107136443D01*
X131856627Y-107187963D01*
X131790443Y-107194481D01*
X131724260Y-107201000D01*
X131635740Y-107201000D01*
X131569557Y-107194481D01*
X131503373Y-107187963D01*
X131333534Y-107136443D01*
X131177009Y-107052778D01*
X131141271Y-107023448D01*
X131039814Y-106940186D01*
X130956552Y-106838729D01*
X130927222Y-106802991D01*
X130843557Y-106646466D01*
X130792037Y-106476627D01*
X130774641Y-106300000D01*
X130792037Y-106123373D01*
X130843557Y-105953534D01*
X130927222Y-105797009D01*
X130956552Y-105761271D01*
X131039814Y-105659814D01*
X131141271Y-105576552D01*
X131177009Y-105547222D01*
X131333534Y-105463557D01*
X131503373Y-105412037D01*
X131569557Y-105405519D01*
X131635740Y-105399000D01*
X131724260Y-105399000D01*
X131790443Y-105405519D01*
X131790443Y-105405519D01*
G37*
G36*
X129250443Y-105405519D02*
G01*
X129316627Y-105412037D01*
X129486466Y-105463557D01*
X129642991Y-105547222D01*
X129678729Y-105576552D01*
X129780186Y-105659814D01*
X129863448Y-105761271D01*
X129892778Y-105797009D01*
X129976443Y-105953534D01*
X130027963Y-106123373D01*
X130045359Y-106300000D01*
X130027963Y-106476627D01*
X129976443Y-106646466D01*
X129892778Y-106802991D01*
X129863448Y-106838729D01*
X129780186Y-106940186D01*
X129678729Y-107023448D01*
X129642991Y-107052778D01*
X129486466Y-107136443D01*
X129316627Y-107187963D01*
X129250443Y-107194481D01*
X129184260Y-107201000D01*
X129095740Y-107201000D01*
X129029557Y-107194481D01*
X128963373Y-107187963D01*
X128793534Y-107136443D01*
X128637009Y-107052778D01*
X128601271Y-107023448D01*
X128499814Y-106940186D01*
X128416552Y-106838729D01*
X128387222Y-106802991D01*
X128303557Y-106646466D01*
X128252037Y-106476627D01*
X128234641Y-106300000D01*
X128252037Y-106123373D01*
X128303557Y-105953534D01*
X128387222Y-105797009D01*
X128416552Y-105761271D01*
X128499814Y-105659814D01*
X128601271Y-105576552D01*
X128637009Y-105547222D01*
X128793534Y-105463557D01*
X128963373Y-105412037D01*
X129029557Y-105405519D01*
X129095740Y-105399000D01*
X129184260Y-105399000D01*
X129250443Y-105405519D01*
X129250443Y-105405519D01*
G37*
G36*
X127501000Y-107201000D02*
G01*
X125699000Y-107201000D01*
X125699000Y-105399000D01*
X127501000Y-105399000D01*
X127501000Y-107201000D01*
X127501000Y-107201000D01*
G37*
G36*
X113850443Y-105405519D02*
G01*
X113916627Y-105412037D01*
X114086466Y-105463557D01*
X114242991Y-105547222D01*
X114278729Y-105576552D01*
X114380186Y-105659814D01*
X114463448Y-105761271D01*
X114492778Y-105797009D01*
X114576443Y-105953534D01*
X114627963Y-106123373D01*
X114645359Y-106300000D01*
X114627963Y-106476627D01*
X114576443Y-106646466D01*
X114492778Y-106802991D01*
X114463448Y-106838729D01*
X114380186Y-106940186D01*
X114278729Y-107023448D01*
X114242991Y-107052778D01*
X114086466Y-107136443D01*
X113916627Y-107187963D01*
X113850443Y-107194481D01*
X113784260Y-107201000D01*
X113695740Y-107201000D01*
X113629557Y-107194481D01*
X113563373Y-107187963D01*
X113393534Y-107136443D01*
X113237009Y-107052778D01*
X113201271Y-107023448D01*
X113099814Y-106940186D01*
X113016552Y-106838729D01*
X112987222Y-106802991D01*
X112903557Y-106646466D01*
X112852037Y-106476627D01*
X112834641Y-106300000D01*
X112852037Y-106123373D01*
X112903557Y-105953534D01*
X112987222Y-105797009D01*
X113016552Y-105761271D01*
X113099814Y-105659814D01*
X113201271Y-105576552D01*
X113237009Y-105547222D01*
X113393534Y-105463557D01*
X113563373Y-105412037D01*
X113629557Y-105405519D01*
X113695740Y-105399000D01*
X113784260Y-105399000D01*
X113850443Y-105405519D01*
X113850443Y-105405519D01*
G37*
G36*
X109561000Y-107201000D02*
G01*
X107759000Y-107201000D01*
X107759000Y-105399000D01*
X109561000Y-105399000D01*
X109561000Y-107201000D01*
X109561000Y-107201000D01*
G37*
G36*
X124901000Y-103601000D02*
G01*
X123099000Y-103601000D01*
X123099000Y-101799000D01*
X124901000Y-101799000D01*
X124901000Y-103601000D01*
X124901000Y-103601000D01*
G37*
G36*
X116270443Y-101805519D02*
G01*
X116336627Y-101812037D01*
X116506466Y-101863557D01*
X116662991Y-101947222D01*
X116698729Y-101976552D01*
X116800186Y-102059814D01*
X116883448Y-102161271D01*
X116912778Y-102197009D01*
X116996443Y-102353534D01*
X117047963Y-102523373D01*
X117065359Y-102700000D01*
X117047963Y-102876627D01*
X116996443Y-103046466D01*
X116912778Y-103202991D01*
X116883448Y-103238729D01*
X116800186Y-103340186D01*
X116698729Y-103423448D01*
X116662991Y-103452778D01*
X116506466Y-103536443D01*
X116336627Y-103587963D01*
X116270442Y-103594482D01*
X116204260Y-103601000D01*
X116115740Y-103601000D01*
X116049558Y-103594482D01*
X115983373Y-103587963D01*
X115813534Y-103536443D01*
X115657009Y-103452778D01*
X115621271Y-103423448D01*
X115519814Y-103340186D01*
X115436552Y-103238729D01*
X115407222Y-103202991D01*
X115323557Y-103046466D01*
X115272037Y-102876627D01*
X115254641Y-102700000D01*
X115272037Y-102523373D01*
X115323557Y-102353534D01*
X115407222Y-102197009D01*
X115436552Y-102161271D01*
X115519814Y-102059814D01*
X115621271Y-101976552D01*
X115657009Y-101947222D01*
X115813534Y-101863557D01*
X115983373Y-101812037D01*
X116049557Y-101805519D01*
X116115740Y-101799000D01*
X116204260Y-101799000D01*
X116270443Y-101805519D01*
X116270443Y-101805519D01*
G37*
G36*
X113730443Y-101805519D02*
G01*
X113796627Y-101812037D01*
X113966466Y-101863557D01*
X114122991Y-101947222D01*
X114158729Y-101976552D01*
X114260186Y-102059814D01*
X114343448Y-102161271D01*
X114372778Y-102197009D01*
X114456443Y-102353534D01*
X114507963Y-102523373D01*
X114525359Y-102700000D01*
X114507963Y-102876627D01*
X114456443Y-103046466D01*
X114372778Y-103202991D01*
X114343448Y-103238729D01*
X114260186Y-103340186D01*
X114158729Y-103423448D01*
X114122991Y-103452778D01*
X113966466Y-103536443D01*
X113796627Y-103587963D01*
X113730442Y-103594482D01*
X113664260Y-103601000D01*
X113575740Y-103601000D01*
X113509558Y-103594482D01*
X113443373Y-103587963D01*
X113273534Y-103536443D01*
X113117009Y-103452778D01*
X113081271Y-103423448D01*
X112979814Y-103340186D01*
X112896552Y-103238729D01*
X112867222Y-103202991D01*
X112783557Y-103046466D01*
X112732037Y-102876627D01*
X112714641Y-102700000D01*
X112732037Y-102523373D01*
X112783557Y-102353534D01*
X112867222Y-102197009D01*
X112896552Y-102161271D01*
X112979814Y-102059814D01*
X113081271Y-101976552D01*
X113117009Y-101947222D01*
X113273534Y-101863557D01*
X113443373Y-101812037D01*
X113509557Y-101805519D01*
X113575740Y-101799000D01*
X113664260Y-101799000D01*
X113730443Y-101805519D01*
X113730443Y-101805519D01*
G37*
G36*
X111190443Y-101805519D02*
G01*
X111256627Y-101812037D01*
X111426466Y-101863557D01*
X111582991Y-101947222D01*
X111618729Y-101976552D01*
X111720186Y-102059814D01*
X111803448Y-102161271D01*
X111832778Y-102197009D01*
X111916443Y-102353534D01*
X111967963Y-102523373D01*
X111985359Y-102700000D01*
X111967963Y-102876627D01*
X111916443Y-103046466D01*
X111832778Y-103202991D01*
X111803448Y-103238729D01*
X111720186Y-103340186D01*
X111618729Y-103423448D01*
X111582991Y-103452778D01*
X111426466Y-103536443D01*
X111256627Y-103587963D01*
X111190442Y-103594482D01*
X111124260Y-103601000D01*
X111035740Y-103601000D01*
X110969558Y-103594482D01*
X110903373Y-103587963D01*
X110733534Y-103536443D01*
X110577009Y-103452778D01*
X110541271Y-103423448D01*
X110439814Y-103340186D01*
X110356552Y-103238729D01*
X110327222Y-103202991D01*
X110243557Y-103046466D01*
X110192037Y-102876627D01*
X110174641Y-102700000D01*
X110192037Y-102523373D01*
X110243557Y-102353534D01*
X110327222Y-102197009D01*
X110356552Y-102161271D01*
X110439814Y-102059814D01*
X110541271Y-101976552D01*
X110577009Y-101947222D01*
X110733534Y-101863557D01*
X110903373Y-101812037D01*
X110969557Y-101805519D01*
X111035740Y-101799000D01*
X111124260Y-101799000D01*
X111190443Y-101805519D01*
X111190443Y-101805519D01*
G37*
G36*
X108650443Y-101805519D02*
G01*
X108716627Y-101812037D01*
X108886466Y-101863557D01*
X109042991Y-101947222D01*
X109078729Y-101976552D01*
X109180186Y-102059814D01*
X109263448Y-102161271D01*
X109292778Y-102197009D01*
X109376443Y-102353534D01*
X109427963Y-102523373D01*
X109445359Y-102700000D01*
X109427963Y-102876627D01*
X109376443Y-103046466D01*
X109292778Y-103202991D01*
X109263448Y-103238729D01*
X109180186Y-103340186D01*
X109078729Y-103423448D01*
X109042991Y-103452778D01*
X108886466Y-103536443D01*
X108716627Y-103587963D01*
X108650442Y-103594482D01*
X108584260Y-103601000D01*
X108495740Y-103601000D01*
X108429558Y-103594482D01*
X108363373Y-103587963D01*
X108193534Y-103536443D01*
X108037009Y-103452778D01*
X108001271Y-103423448D01*
X107899814Y-103340186D01*
X107816552Y-103238729D01*
X107787222Y-103202991D01*
X107703557Y-103046466D01*
X107652037Y-102876627D01*
X107634641Y-102700000D01*
X107652037Y-102523373D01*
X107703557Y-102353534D01*
X107787222Y-102197009D01*
X107816552Y-102161271D01*
X107899814Y-102059814D01*
X108001271Y-101976552D01*
X108037009Y-101947222D01*
X108193534Y-101863557D01*
X108363373Y-101812037D01*
X108429557Y-101805519D01*
X108495740Y-101799000D01*
X108584260Y-101799000D01*
X108650443Y-101805519D01*
X108650443Y-101805519D01*
G37*
G36*
X106901000Y-103601000D02*
G01*
X105099000Y-103601000D01*
X105099000Y-101799000D01*
X106901000Y-101799000D01*
X106901000Y-103601000D01*
X106901000Y-103601000D01*
G37*
G36*
X129190443Y-101805519D02*
G01*
X129256627Y-101812037D01*
X129426466Y-101863557D01*
X129582991Y-101947222D01*
X129618729Y-101976552D01*
X129720186Y-102059814D01*
X129803448Y-102161271D01*
X129832778Y-102197009D01*
X129916443Y-102353534D01*
X129967963Y-102523373D01*
X129985359Y-102700000D01*
X129967963Y-102876627D01*
X129916443Y-103046466D01*
X129832778Y-103202991D01*
X129803448Y-103238729D01*
X129720186Y-103340186D01*
X129618729Y-103423448D01*
X129582991Y-103452778D01*
X129426466Y-103536443D01*
X129256627Y-103587963D01*
X129190442Y-103594482D01*
X129124260Y-103601000D01*
X129035740Y-103601000D01*
X128969558Y-103594482D01*
X128903373Y-103587963D01*
X128733534Y-103536443D01*
X128577009Y-103452778D01*
X128541271Y-103423448D01*
X128439814Y-103340186D01*
X128356552Y-103238729D01*
X128327222Y-103202991D01*
X128243557Y-103046466D01*
X128192037Y-102876627D01*
X128174641Y-102700000D01*
X128192037Y-102523373D01*
X128243557Y-102353534D01*
X128327222Y-102197009D01*
X128356552Y-102161271D01*
X128439814Y-102059814D01*
X128541271Y-101976552D01*
X128577009Y-101947222D01*
X128733534Y-101863557D01*
X128903373Y-101812037D01*
X128969557Y-101805519D01*
X129035740Y-101799000D01*
X129124260Y-101799000D01*
X129190443Y-101805519D01*
X129190443Y-101805519D01*
G37*
G36*
X131730443Y-101805519D02*
G01*
X131796627Y-101812037D01*
X131966466Y-101863557D01*
X132122991Y-101947222D01*
X132158729Y-101976552D01*
X132260186Y-102059814D01*
X132343448Y-102161271D01*
X132372778Y-102197009D01*
X132456443Y-102353534D01*
X132507963Y-102523373D01*
X132525359Y-102700000D01*
X132507963Y-102876627D01*
X132456443Y-103046466D01*
X132372778Y-103202991D01*
X132343448Y-103238729D01*
X132260186Y-103340186D01*
X132158729Y-103423448D01*
X132122991Y-103452778D01*
X131966466Y-103536443D01*
X131796627Y-103587963D01*
X131730442Y-103594482D01*
X131664260Y-103601000D01*
X131575740Y-103601000D01*
X131509558Y-103594482D01*
X131443373Y-103587963D01*
X131273534Y-103536443D01*
X131117009Y-103452778D01*
X131081271Y-103423448D01*
X130979814Y-103340186D01*
X130896552Y-103238729D01*
X130867222Y-103202991D01*
X130783557Y-103046466D01*
X130732037Y-102876627D01*
X130714641Y-102700000D01*
X130732037Y-102523373D01*
X130783557Y-102353534D01*
X130867222Y-102197009D01*
X130896552Y-102161271D01*
X130979814Y-102059814D01*
X131081271Y-101976552D01*
X131117009Y-101947222D01*
X131273534Y-101863557D01*
X131443373Y-101812037D01*
X131509557Y-101805519D01*
X131575740Y-101799000D01*
X131664260Y-101799000D01*
X131730443Y-101805519D01*
X131730443Y-101805519D01*
G37*
G36*
X134270443Y-101805519D02*
G01*
X134336627Y-101812037D01*
X134506466Y-101863557D01*
X134662991Y-101947222D01*
X134698729Y-101976552D01*
X134800186Y-102059814D01*
X134883448Y-102161271D01*
X134912778Y-102197009D01*
X134996443Y-102353534D01*
X135047963Y-102523373D01*
X135065359Y-102700000D01*
X135047963Y-102876627D01*
X134996443Y-103046466D01*
X134912778Y-103202991D01*
X134883448Y-103238729D01*
X134800186Y-103340186D01*
X134698729Y-103423448D01*
X134662991Y-103452778D01*
X134506466Y-103536443D01*
X134336627Y-103587963D01*
X134270442Y-103594482D01*
X134204260Y-103601000D01*
X134115740Y-103601000D01*
X134049558Y-103594482D01*
X133983373Y-103587963D01*
X133813534Y-103536443D01*
X133657009Y-103452778D01*
X133621271Y-103423448D01*
X133519814Y-103340186D01*
X133436552Y-103238729D01*
X133407222Y-103202991D01*
X133323557Y-103046466D01*
X133272037Y-102876627D01*
X133254641Y-102700000D01*
X133272037Y-102523373D01*
X133323557Y-102353534D01*
X133407222Y-102197009D01*
X133436552Y-102161271D01*
X133519814Y-102059814D01*
X133621271Y-101976552D01*
X133657009Y-101947222D01*
X133813534Y-101863557D01*
X133983373Y-101812037D01*
X134049557Y-101805519D01*
X134115740Y-101799000D01*
X134204260Y-101799000D01*
X134270443Y-101805519D01*
X134270443Y-101805519D01*
G37*
G36*
X126650443Y-101805519D02*
G01*
X126716627Y-101812037D01*
X126886466Y-101863557D01*
X127042991Y-101947222D01*
X127078729Y-101976552D01*
X127180186Y-102059814D01*
X127263448Y-102161271D01*
X127292778Y-102197009D01*
X127376443Y-102353534D01*
X127427963Y-102523373D01*
X127445359Y-102700000D01*
X127427963Y-102876627D01*
X127376443Y-103046466D01*
X127292778Y-103202991D01*
X127263448Y-103238729D01*
X127180186Y-103340186D01*
X127078729Y-103423448D01*
X127042991Y-103452778D01*
X126886466Y-103536443D01*
X126716627Y-103587963D01*
X126650442Y-103594482D01*
X126584260Y-103601000D01*
X126495740Y-103601000D01*
X126429558Y-103594482D01*
X126363373Y-103587963D01*
X126193534Y-103536443D01*
X126037009Y-103452778D01*
X126001271Y-103423448D01*
X125899814Y-103340186D01*
X125816552Y-103238729D01*
X125787222Y-103202991D01*
X125703557Y-103046466D01*
X125652037Y-102876627D01*
X125634641Y-102700000D01*
X125652037Y-102523373D01*
X125703557Y-102353534D01*
X125787222Y-102197009D01*
X125816552Y-102161271D01*
X125899814Y-102059814D01*
X126001271Y-101976552D01*
X126037009Y-101947222D01*
X126193534Y-101863557D01*
X126363373Y-101812037D01*
X126429557Y-101805519D01*
X126495740Y-101799000D01*
X126584260Y-101799000D01*
X126650443Y-101805519D01*
X126650443Y-101805519D01*
G37*
M02*
