G04 #@! TF.GenerationSoftware,KiCad,Pcbnew,(5.1.2)-1*
G04 #@! TF.CreationDate,2020-05-27T18:22:03+09:00*
G04 #@! TF.ProjectId,i2s,6932732e-6b69-4636-9164-5f7063625858,v1.1*
G04 #@! TF.SameCoordinates,Original*
G04 #@! TF.FileFunction,Copper,L2,Bot*
G04 #@! TF.FilePolarity,Positive*
%FSLAX46Y46*%
G04 Gerber Fmt 4.6, Leading zero omitted, Abs format (unit mm)*
G04 Created by KiCad (PCBNEW (5.1.2)-1) date 2020-05-27 18:22:03*
%MOMM*%
%LPD*%
G04 APERTURE LIST*
%ADD10O,1.000000X1.000000*%
%ADD11R,1.000000X1.000000*%
%ADD12O,1.700000X1.700000*%
%ADD13R,1.700000X1.700000*%
%ADD14O,1.550000X1.550000*%
%ADD15O,1.250000X1.250000*%
%ADD16C,0.800000*%
%ADD17C,0.250000*%
%ADD18C,0.254000*%
G04 APERTURE END LIST*
D10*
X127260000Y-139700000D03*
X127260000Y-138430000D03*
X128530000Y-139700000D03*
X128530000Y-138430000D03*
X129800000Y-139700000D03*
X129800000Y-138430000D03*
X131070000Y-139700000D03*
X131070000Y-138430000D03*
X132340000Y-139700000D03*
X132340000Y-138430000D03*
X133610000Y-139700000D03*
X133610000Y-138430000D03*
X134880000Y-139700000D03*
X134880000Y-138430000D03*
X136150000Y-139700000D03*
D11*
X136150000Y-138430000D03*
D12*
X134040000Y-124300000D03*
X131500000Y-124300000D03*
X128960000Y-124300000D03*
X126420000Y-124300000D03*
D13*
X123880000Y-124300000D03*
D12*
X116160000Y-124300000D03*
X113620000Y-124300000D03*
X111080000Y-124300000D03*
X108540000Y-124300000D03*
D13*
X106000000Y-124300000D03*
D12*
X131680000Y-127900000D03*
X129140000Y-127900000D03*
D13*
X126600000Y-127900000D03*
D12*
X113580000Y-127900000D03*
X111040000Y-127900000D03*
D13*
X108500000Y-127900000D03*
D12*
X131680000Y-106300000D03*
X129140000Y-106300000D03*
D13*
X126600000Y-106300000D03*
D12*
X113740000Y-106300000D03*
X111200000Y-106300000D03*
D13*
X108660000Y-106300000D03*
D12*
X134160000Y-102700000D03*
X131620000Y-102700000D03*
X129080000Y-102700000D03*
X126540000Y-102700000D03*
D13*
X124000000Y-102700000D03*
D12*
X116160000Y-102700000D03*
X113620000Y-102700000D03*
X111080000Y-102700000D03*
X108540000Y-102700000D03*
D13*
X106000000Y-102700000D03*
D14*
X116600000Y-148700000D03*
X123600000Y-148700000D03*
D15*
X117600000Y-146000000D03*
X122600000Y-146000000D03*
D12*
X102030000Y-140670000D03*
X102030000Y-138130000D03*
X102030000Y-135590000D03*
X102030000Y-133050000D03*
X102030000Y-130510000D03*
D13*
X102030000Y-127970000D03*
D16*
X111322300Y-114745000D03*
X115778500Y-139504700D03*
X111349600Y-145619200D03*
X115047400Y-143245600D03*
X117760700Y-111397400D03*
X117315800Y-120214100D03*
X114956900Y-114133500D03*
X115947000Y-114571500D03*
X116381100Y-116078300D03*
X124249100Y-112060300D03*
X120628700Y-108770600D03*
X117039700Y-109992700D03*
X123123900Y-112152900D03*
X119730200Y-121439200D03*
X120891400Y-110901000D03*
X128056700Y-128946900D03*
X121805200Y-108883800D03*
X119715800Y-107349400D03*
X132835700Y-120856100D03*
X117451600Y-138481700D03*
X123746300Y-135789300D03*
X137295200Y-115940100D03*
X119700000Y-131347200D03*
X136563400Y-114560900D03*
X118760900Y-130678300D03*
X110400000Y-144600000D03*
X114100000Y-135900000D03*
X110500000Y-142300000D03*
X115200000Y-135500000D03*
X122573800Y-109658900D03*
X124226300Y-113720200D03*
X133056200Y-132838500D03*
X120704600Y-131399000D03*
X130610700Y-117991700D03*
X125270100Y-114923000D03*
X130577400Y-116991300D03*
X126373500Y-114999600D03*
X124085500Y-116098700D03*
X125396100Y-118016100D03*
X122595800Y-119045800D03*
X126873700Y-117253300D03*
X127174400Y-113527500D03*
X119018500Y-118132900D03*
X123912700Y-132070300D03*
X124859400Y-134815400D03*
X127179700Y-135194500D03*
X122437900Y-133493900D03*
X121600300Y-131970500D03*
X119200000Y-140006100D03*
X126891000Y-142610100D03*
X123565200Y-140342100D03*
X123464600Y-137958900D03*
X117947100Y-132502200D03*
D17*
X131680000Y-106300000D02*
X130504700Y-106300000D01*
X126540000Y-102700000D02*
X127715300Y-102700000D01*
X127715300Y-102700000D02*
X127715300Y-103067400D01*
X127715300Y-103067400D02*
X130504700Y-105856800D01*
X130504700Y-105856800D02*
X130504700Y-106300000D01*
X131680000Y-127900000D02*
X130504700Y-127900000D01*
X113580000Y-127900000D02*
X114755300Y-127900000D01*
X114755300Y-127900000D02*
X116144700Y-126510600D01*
X116144700Y-126510600D02*
X129812900Y-126510600D01*
X129812900Y-126510600D02*
X130504700Y-127202400D01*
X130504700Y-127202400D02*
X130504700Y-127900000D01*
X125240000Y-101400000D02*
X126540000Y-102700000D01*
X118635300Y-101400000D02*
X125240000Y-101400000D01*
X116160000Y-102700000D02*
X117335300Y-102700000D01*
X117335300Y-102700000D02*
X118635300Y-101400000D01*
X108540000Y-103902081D02*
X108937919Y-104300000D01*
X108540000Y-102700000D02*
X108540000Y-103902081D01*
X112500000Y-105060000D02*
X113740000Y-106300000D01*
X111740000Y-104300000D02*
X112500000Y-105060000D01*
X108937919Y-104300000D02*
X111740000Y-104300000D01*
X102030000Y-130510000D02*
X102030000Y-129334700D01*
X102030000Y-129334700D02*
X102838100Y-129334700D01*
X102838100Y-129334700D02*
X103205300Y-128967500D01*
X103205300Y-128967500D02*
X103205300Y-122862000D01*
X103205300Y-122862000D02*
X111322300Y-114745000D01*
X115047400Y-143245600D02*
X115778500Y-142514500D01*
X115778500Y-142514500D02*
X115778500Y-139504700D01*
X111349600Y-145619200D02*
X112673800Y-145619200D01*
X112673800Y-145619200D02*
X115047400Y-143245600D01*
X117315800Y-120214100D02*
X117315800Y-111842300D01*
X117315800Y-111842300D02*
X117760700Y-111397400D01*
X134040000Y-123124700D02*
X134040000Y-107526100D01*
X134040000Y-107526100D02*
X134160000Y-107406100D01*
X134160000Y-107406100D02*
X134160000Y-103875300D01*
X124000000Y-102700000D02*
X121224800Y-102700000D01*
X121224800Y-102700000D02*
X114301000Y-109623800D01*
X134040000Y-124300000D02*
X134040000Y-123124700D01*
X134160000Y-102700000D02*
X134160000Y-103875300D01*
X114301000Y-109623800D02*
X114301000Y-113477600D01*
X114301000Y-113477600D02*
X114956900Y-114133500D01*
X114301000Y-109623800D02*
X112791700Y-109623800D01*
X112791700Y-109623800D02*
X109835300Y-106667400D01*
X109835300Y-106667400D02*
X109835300Y-106300000D01*
X108660000Y-106300000D02*
X109835300Y-106300000D01*
X108660000Y-106300000D02*
X107484700Y-106300000D01*
X106000000Y-102700000D02*
X106000000Y-103875300D01*
X106000000Y-103875300D02*
X107484700Y-105360000D01*
X107484700Y-105360000D02*
X107484700Y-106300000D01*
X128600000Y-107900000D02*
X133666100Y-107900000D01*
X127900000Y-107200000D02*
X128600000Y-107900000D01*
X133666100Y-107900000D02*
X134040000Y-107526100D01*
X125175300Y-102700000D02*
X125175300Y-103021900D01*
X124000000Y-102700000D02*
X125175300Y-102700000D01*
X125175300Y-103021900D02*
X127034000Y-104880600D01*
X127034000Y-104880600D02*
X127580600Y-104880600D01*
X127580600Y-104880600D02*
X127900000Y-105200000D01*
X127900000Y-105200000D02*
X127900000Y-107200000D01*
X125424700Y-106300000D02*
X119702500Y-106300000D01*
X119702500Y-106300000D02*
X115947000Y-110055500D01*
X115947000Y-110055500D02*
X115947000Y-114571500D01*
X126600000Y-106300000D02*
X125424700Y-106300000D01*
X108886200Y-126378200D02*
X107175300Y-124667300D01*
X107175300Y-124667300D02*
X107175300Y-124300000D01*
X122704700Y-124300000D02*
X121529400Y-125475300D01*
X121529400Y-125475300D02*
X109789100Y-125475300D01*
X109789100Y-125475300D02*
X108886200Y-126378200D01*
X108886200Y-126378200D02*
X108886200Y-126926100D01*
X108886200Y-126926100D02*
X108500000Y-127312300D01*
X106000000Y-124300000D02*
X107175300Y-124300000D01*
X123880000Y-124300000D02*
X122704700Y-124300000D01*
X108500000Y-127900000D02*
X108500000Y-127312300D01*
X125424700Y-127900000D02*
X124249300Y-129075400D01*
X124249300Y-129075400D02*
X107418500Y-129075400D01*
X107418500Y-129075400D02*
X104824600Y-126481500D01*
X104824600Y-126481500D02*
X104824600Y-123293100D01*
X104824600Y-123293100D02*
X112039400Y-116078300D01*
X112039400Y-116078300D02*
X116381100Y-116078300D01*
X126600000Y-127900000D02*
X125424700Y-127900000D01*
X120628700Y-108770600D02*
X123157300Y-111299200D01*
X123157300Y-111299200D02*
X123488000Y-111299200D01*
X123488000Y-111299200D02*
X124249100Y-112060300D01*
X123123900Y-112152900D02*
X123123900Y-112107700D01*
X123123900Y-112107700D02*
X121008900Y-109992700D01*
X121008900Y-109992700D02*
X117039700Y-109992700D01*
X120891400Y-110901000D02*
X118285100Y-113507300D01*
X118285100Y-113507300D02*
X118285100Y-119994100D01*
X118285100Y-119994100D02*
X119730200Y-121439200D01*
X131789100Y-116406900D02*
X124266000Y-108883800D01*
X131789100Y-121745000D02*
X131789100Y-116406900D01*
X128409800Y-129300000D02*
X132300000Y-129300000D01*
X128056700Y-128946900D02*
X128409800Y-129300000D01*
X132300000Y-129300000D02*
X133100000Y-128500000D01*
X132800000Y-122755900D02*
X131789100Y-121745000D01*
X133100000Y-128500000D02*
X133100000Y-126716300D01*
X124266000Y-108883800D02*
X121805200Y-108883800D01*
X133100000Y-126716300D02*
X132800000Y-126416300D01*
X132800000Y-126416300D02*
X132800000Y-122755900D01*
X132835700Y-120856100D02*
X132835700Y-116816600D01*
X132835700Y-116816600D02*
X123368500Y-107349400D01*
X123368500Y-107349400D02*
X119715800Y-107349400D01*
X102030000Y-140670000D02*
X103205300Y-140670000D01*
X103205300Y-140670000D02*
X109100700Y-134774600D01*
X109100700Y-134774600D02*
X115513300Y-134774600D01*
X115513300Y-134774600D02*
X117451600Y-136712900D01*
X117451600Y-136712900D02*
X117451600Y-138481700D01*
X103205300Y-138130000D02*
X107059900Y-134275400D01*
X107059900Y-134275400D02*
X122232400Y-134275400D01*
X122232400Y-134275400D02*
X123746300Y-135789300D01*
X102030000Y-138130000D02*
X103205300Y-138130000D01*
X102030000Y-135590000D02*
X103205300Y-135590000D01*
X103205300Y-135590000D02*
X107289800Y-131505500D01*
X107289800Y-131505500D02*
X119541700Y-131505500D01*
X119541700Y-131505500D02*
X119700000Y-131347200D01*
X119700000Y-131347200D02*
X120602900Y-130444300D01*
X120602900Y-130444300D02*
X132428522Y-130444300D01*
X132428522Y-130444300D02*
X134000022Y-128872800D01*
X134000022Y-128872800D02*
X134000022Y-128572800D01*
X137295200Y-125277622D02*
X137295200Y-116505785D01*
X137295200Y-116505785D02*
X137295200Y-115940100D01*
X134000022Y-128572800D02*
X137295200Y-125277622D01*
X103205300Y-133050000D02*
X105577000Y-130678300D01*
X105577000Y-130678300D02*
X118760900Y-130678300D01*
X102030000Y-133050000D02*
X103205300Y-133050000D01*
X118760900Y-130678300D02*
X119689189Y-129750011D01*
X119689189Y-129750011D02*
X132486400Y-129750011D01*
X136563400Y-115126585D02*
X136563400Y-114560900D01*
X132486400Y-129750011D02*
X133550011Y-128686400D01*
X133550011Y-128686400D02*
X133550011Y-128386400D01*
X136563400Y-125373011D02*
X136563400Y-115126585D01*
X133550011Y-128386400D02*
X136563400Y-125373011D01*
X114100000Y-135900000D02*
X109675000Y-140325000D01*
X109675000Y-140325000D02*
X109675000Y-143875000D01*
X109675000Y-143875000D02*
X110400000Y-144600000D01*
X115200000Y-135500000D02*
X115200000Y-137600000D01*
X115200000Y-137600000D02*
X110500000Y-142300000D01*
X127329989Y-100949989D02*
X128230001Y-101850001D01*
X128230001Y-101850001D02*
X129080000Y-102700000D01*
X112830011Y-100949989D02*
X127329989Y-100949989D01*
X111080000Y-102700000D02*
X112830011Y-100949989D01*
X122573800Y-109658900D02*
X124332700Y-109658900D01*
X124332700Y-109658900D02*
X131336100Y-116662300D01*
X131336100Y-116662300D02*
X131336100Y-124300000D01*
X131500000Y-124300000D02*
X131336100Y-124300000D01*
X130324700Y-124300000D02*
X131305400Y-124300000D01*
X130324700Y-124975300D02*
X130324700Y-124300000D01*
X125555300Y-125600000D02*
X129700000Y-125600000D01*
X125200000Y-125244700D02*
X125555300Y-125600000D01*
X131305400Y-124300000D02*
X131336100Y-124300000D01*
X114920000Y-123000000D02*
X115200000Y-123000000D01*
X113620000Y-124300000D02*
X114920000Y-123000000D01*
X129700000Y-125600000D02*
X130324700Y-124975300D01*
X115200000Y-123000000D02*
X115349990Y-122850010D01*
X124850010Y-122850010D02*
X125200000Y-123200000D01*
X115349990Y-122850010D02*
X124850010Y-122850010D01*
X125200000Y-123200000D02*
X125200000Y-125244700D01*
X121867200Y-116079300D02*
X124226300Y-113720200D01*
X112255300Y-123932700D02*
X113788000Y-122400000D01*
X111080000Y-124300000D02*
X112255300Y-124300000D01*
X112255300Y-124300000D02*
X112255300Y-123932700D01*
X121867200Y-121532800D02*
X121000000Y-122400000D01*
X121867200Y-116079300D02*
X121867200Y-121532800D01*
X113788000Y-122400000D02*
X121000000Y-122400000D01*
X127060000Y-122400000D02*
X128110001Y-123450001D01*
X128110001Y-123450001D02*
X128960000Y-124300000D01*
X121000000Y-122400000D02*
X127060000Y-122400000D01*
X133056200Y-132838500D02*
X131112300Y-130894600D01*
X131112300Y-130894600D02*
X121209000Y-130894600D01*
X121209000Y-130894600D02*
X120704600Y-131399000D01*
X130610700Y-117991700D02*
X128637900Y-117991700D01*
X128637900Y-117991700D02*
X127174200Y-116528000D01*
X127174200Y-116528000D02*
X126875100Y-116528000D01*
X126875100Y-116528000D02*
X125270100Y-114923000D01*
X126373500Y-114999600D02*
X128365200Y-116991300D01*
X128365200Y-116991300D02*
X130577400Y-116991300D01*
X125396100Y-118016100D02*
X124085500Y-116705500D01*
X124085500Y-116705500D02*
X124085500Y-116098700D01*
X126873700Y-117253300D02*
X126873700Y-117625500D01*
X126873700Y-117625500D02*
X125453400Y-119045800D01*
X125453400Y-119045800D02*
X122595800Y-119045800D01*
X127174400Y-113527500D02*
X126641700Y-112994800D01*
X126641700Y-112994800D02*
X123918200Y-112994800D01*
X123918200Y-112994800D02*
X119018500Y-117894500D01*
X119018500Y-117894500D02*
X119018500Y-118132900D01*
X127260000Y-137604700D02*
X126434700Y-136779400D01*
X126434700Y-136779400D02*
X126434700Y-134592300D01*
X126434700Y-134592300D02*
X123912700Y-132070300D01*
X127260000Y-138430000D02*
X127260000Y-137604700D01*
X124859400Y-134815400D02*
X125372400Y-135328400D01*
X125372400Y-135328400D02*
X125372400Y-139043700D01*
X125372400Y-139043700D02*
X126874700Y-140546000D01*
X126874700Y-140546000D02*
X127684000Y-140546000D01*
X127684000Y-140546000D02*
X128530000Y-139700000D01*
X128530000Y-137604700D02*
X127179700Y-136254400D01*
X127179700Y-136254400D02*
X127179700Y-135194500D01*
X128530000Y-138430000D02*
X128530000Y-137604700D01*
X122437900Y-133493900D02*
X122512200Y-133493900D01*
X122512200Y-133493900D02*
X124922100Y-135903800D01*
X124922100Y-135903800D02*
X124922100Y-139230300D01*
X124922100Y-139230300D02*
X126688200Y-140996400D01*
X126688200Y-140996400D02*
X128503600Y-140996400D01*
X128503600Y-140996400D02*
X129800000Y-139700000D01*
X129800000Y-138430000D02*
X129800000Y-136708900D01*
X129800000Y-136708900D02*
X124436000Y-131344900D01*
X124436000Y-131344900D02*
X122225900Y-131344900D01*
X122225900Y-131344900D02*
X121600300Y-131970500D01*
X132340000Y-139700000D02*
X130590100Y-141449900D01*
X130590100Y-141449900D02*
X126419700Y-141449900D01*
X126419700Y-141449900D02*
X124246700Y-139276900D01*
X124246700Y-139276900D02*
X124246700Y-137701500D01*
X124246700Y-137701500D02*
X123720100Y-137174900D01*
X123720100Y-137174900D02*
X122031200Y-137174900D01*
X122031200Y-137174900D02*
X119200000Y-140006100D01*
X133610000Y-139700000D02*
X130699900Y-142610100D01*
X130699900Y-142610100D02*
X126891000Y-142610100D01*
X134880000Y-139700000D02*
X131244600Y-143335400D01*
X131244600Y-143335400D02*
X126558500Y-143335400D01*
X126558500Y-143335400D02*
X123565200Y-140342100D01*
X123464600Y-137958900D02*
X122807400Y-138616100D01*
X122807400Y-138616100D02*
X122807400Y-140725300D01*
X122807400Y-140725300D02*
X125867800Y-143785700D01*
X125867800Y-143785700D02*
X133294900Y-143785700D01*
X133294900Y-143785700D02*
X136991200Y-140089400D01*
X136991200Y-140089400D02*
X136991200Y-139271200D01*
X136991200Y-139271200D02*
X136150000Y-138430000D01*
X127260000Y-139700000D02*
X125822800Y-138262800D01*
X125822800Y-138262800D02*
X125822800Y-134709400D01*
X125822800Y-134709400D02*
X124560300Y-133446900D01*
X124560300Y-133446900D02*
X123840100Y-133446900D01*
X123840100Y-133446900D02*
X123089000Y-132695800D01*
X123089000Y-132695800D02*
X118140700Y-132695800D01*
X118140700Y-132695800D02*
X117947100Y-132502200D01*
D18*
G36*
X122578815Y-125601185D02*
G01*
X122675506Y-125680537D01*
X122785820Y-125739502D01*
X122905518Y-125775812D01*
X123030000Y-125788072D01*
X124664108Y-125788072D01*
X124688998Y-125808499D01*
X124991496Y-126110997D01*
X125015299Y-126140001D01*
X125131024Y-126234974D01*
X125263053Y-126305546D01*
X125406314Y-126349003D01*
X125517967Y-126360000D01*
X125517976Y-126360000D01*
X125555299Y-126363676D01*
X125592622Y-126360000D01*
X129662678Y-126360000D01*
X129700000Y-126363676D01*
X129737322Y-126360000D01*
X129737333Y-126360000D01*
X129848986Y-126349003D01*
X129992247Y-126305546D01*
X130124276Y-126234974D01*
X130240001Y-126140001D01*
X130263803Y-126110998D01*
X130777280Y-125597521D01*
X130928966Y-125678599D01*
X131208889Y-125763513D01*
X131427050Y-125785000D01*
X131572950Y-125785000D01*
X131791111Y-125763513D01*
X132040000Y-125688013D01*
X132040000Y-126378977D01*
X132036324Y-126416300D01*
X132040000Y-126453622D01*
X132040000Y-126453632D01*
X132040592Y-126459647D01*
X132036890Y-126458524D01*
X131807000Y-126579845D01*
X131807000Y-127773000D01*
X131827000Y-127773000D01*
X131827000Y-128027000D01*
X131807000Y-128027000D01*
X131807000Y-128047000D01*
X131553000Y-128047000D01*
X131553000Y-128027000D01*
X131533000Y-128027000D01*
X131533000Y-127773000D01*
X131553000Y-127773000D01*
X131553000Y-126579845D01*
X131323110Y-126458524D01*
X131175901Y-126503175D01*
X130913080Y-126628359D01*
X130679731Y-126802412D01*
X130484822Y-127018645D01*
X130415201Y-127135523D01*
X130380706Y-127070986D01*
X130195134Y-126844866D01*
X129969014Y-126659294D01*
X129711034Y-126521401D01*
X129431111Y-126436487D01*
X129212950Y-126415000D01*
X129067050Y-126415000D01*
X128848889Y-126436487D01*
X128568966Y-126521401D01*
X128310986Y-126659294D01*
X128084866Y-126844866D01*
X128060393Y-126874687D01*
X128039502Y-126805820D01*
X127980537Y-126695506D01*
X127901185Y-126598815D01*
X127804494Y-126519463D01*
X127694180Y-126460498D01*
X127574482Y-126424188D01*
X127450000Y-126411928D01*
X125750000Y-126411928D01*
X125625518Y-126424188D01*
X125505820Y-126460498D01*
X125395506Y-126519463D01*
X125298815Y-126598815D01*
X125219463Y-126695506D01*
X125160498Y-126805820D01*
X125124188Y-126925518D01*
X125111928Y-127050000D01*
X125111928Y-127205425D01*
X125000424Y-127265026D01*
X124884699Y-127359999D01*
X124860901Y-127388997D01*
X123934499Y-128315400D01*
X115000726Y-128315400D01*
X115021481Y-128256891D01*
X114900814Y-128027000D01*
X113707000Y-128027000D01*
X113707000Y-128047000D01*
X113453000Y-128047000D01*
X113453000Y-128027000D01*
X113433000Y-128027000D01*
X113433000Y-127773000D01*
X113453000Y-127773000D01*
X113453000Y-126579845D01*
X113707000Y-126579845D01*
X113707000Y-127773000D01*
X114900814Y-127773000D01*
X115021481Y-127543109D01*
X114924157Y-127268748D01*
X114775178Y-127018645D01*
X114580269Y-126802412D01*
X114346920Y-126628359D01*
X114084099Y-126503175D01*
X113936890Y-126458524D01*
X113707000Y-126579845D01*
X113453000Y-126579845D01*
X113223110Y-126458524D01*
X113075901Y-126503175D01*
X112813080Y-126628359D01*
X112579731Y-126802412D01*
X112384822Y-127018645D01*
X112315201Y-127135523D01*
X112280706Y-127070986D01*
X112095134Y-126844866D01*
X111869014Y-126659294D01*
X111611034Y-126521401D01*
X111331111Y-126436487D01*
X111112950Y-126415000D01*
X110967050Y-126415000D01*
X110748889Y-126436487D01*
X110468966Y-126521401D01*
X110210986Y-126659294D01*
X109984866Y-126844866D01*
X109960393Y-126874687D01*
X109939502Y-126805820D01*
X109880537Y-126695506D01*
X109801185Y-126598815D01*
X109767792Y-126571410D01*
X110103902Y-126235300D01*
X121492078Y-126235300D01*
X121529400Y-126238976D01*
X121566722Y-126235300D01*
X121566733Y-126235300D01*
X121678386Y-126224303D01*
X121821647Y-126180846D01*
X121953676Y-126110274D01*
X122069401Y-126015301D01*
X122093204Y-125986297D01*
X122533515Y-125545986D01*
X122578815Y-125601185D01*
X122578815Y-125601185D01*
G37*
X122578815Y-125601185D02*
X122675506Y-125680537D01*
X122785820Y-125739502D01*
X122905518Y-125775812D01*
X123030000Y-125788072D01*
X124664108Y-125788072D01*
X124688998Y-125808499D01*
X124991496Y-126110997D01*
X125015299Y-126140001D01*
X125131024Y-126234974D01*
X125263053Y-126305546D01*
X125406314Y-126349003D01*
X125517967Y-126360000D01*
X125517976Y-126360000D01*
X125555299Y-126363676D01*
X125592622Y-126360000D01*
X129662678Y-126360000D01*
X129700000Y-126363676D01*
X129737322Y-126360000D01*
X129737333Y-126360000D01*
X129848986Y-126349003D01*
X129992247Y-126305546D01*
X130124276Y-126234974D01*
X130240001Y-126140001D01*
X130263803Y-126110998D01*
X130777280Y-125597521D01*
X130928966Y-125678599D01*
X131208889Y-125763513D01*
X131427050Y-125785000D01*
X131572950Y-125785000D01*
X131791111Y-125763513D01*
X132040000Y-125688013D01*
X132040000Y-126378977D01*
X132036324Y-126416300D01*
X132040000Y-126453622D01*
X132040000Y-126453632D01*
X132040592Y-126459647D01*
X132036890Y-126458524D01*
X131807000Y-126579845D01*
X131807000Y-127773000D01*
X131827000Y-127773000D01*
X131827000Y-128027000D01*
X131807000Y-128027000D01*
X131807000Y-128047000D01*
X131553000Y-128047000D01*
X131553000Y-128027000D01*
X131533000Y-128027000D01*
X131533000Y-127773000D01*
X131553000Y-127773000D01*
X131553000Y-126579845D01*
X131323110Y-126458524D01*
X131175901Y-126503175D01*
X130913080Y-126628359D01*
X130679731Y-126802412D01*
X130484822Y-127018645D01*
X130415201Y-127135523D01*
X130380706Y-127070986D01*
X130195134Y-126844866D01*
X129969014Y-126659294D01*
X129711034Y-126521401D01*
X129431111Y-126436487D01*
X129212950Y-126415000D01*
X129067050Y-126415000D01*
X128848889Y-126436487D01*
X128568966Y-126521401D01*
X128310986Y-126659294D01*
X128084866Y-126844866D01*
X128060393Y-126874687D01*
X128039502Y-126805820D01*
X127980537Y-126695506D01*
X127901185Y-126598815D01*
X127804494Y-126519463D01*
X127694180Y-126460498D01*
X127574482Y-126424188D01*
X127450000Y-126411928D01*
X125750000Y-126411928D01*
X125625518Y-126424188D01*
X125505820Y-126460498D01*
X125395506Y-126519463D01*
X125298815Y-126598815D01*
X125219463Y-126695506D01*
X125160498Y-126805820D01*
X125124188Y-126925518D01*
X125111928Y-127050000D01*
X125111928Y-127205425D01*
X125000424Y-127265026D01*
X124884699Y-127359999D01*
X124860901Y-127388997D01*
X123934499Y-128315400D01*
X115000726Y-128315400D01*
X115021481Y-128256891D01*
X114900814Y-128027000D01*
X113707000Y-128027000D01*
X113707000Y-128047000D01*
X113453000Y-128047000D01*
X113453000Y-128027000D01*
X113433000Y-128027000D01*
X113433000Y-127773000D01*
X113453000Y-127773000D01*
X113453000Y-126579845D01*
X113707000Y-126579845D01*
X113707000Y-127773000D01*
X114900814Y-127773000D01*
X115021481Y-127543109D01*
X114924157Y-127268748D01*
X114775178Y-127018645D01*
X114580269Y-126802412D01*
X114346920Y-126628359D01*
X114084099Y-126503175D01*
X113936890Y-126458524D01*
X113707000Y-126579845D01*
X113453000Y-126579845D01*
X113223110Y-126458524D01*
X113075901Y-126503175D01*
X112813080Y-126628359D01*
X112579731Y-126802412D01*
X112384822Y-127018645D01*
X112315201Y-127135523D01*
X112280706Y-127070986D01*
X112095134Y-126844866D01*
X111869014Y-126659294D01*
X111611034Y-126521401D01*
X111331111Y-126436487D01*
X111112950Y-126415000D01*
X110967050Y-126415000D01*
X110748889Y-126436487D01*
X110468966Y-126521401D01*
X110210986Y-126659294D01*
X109984866Y-126844866D01*
X109960393Y-126874687D01*
X109939502Y-126805820D01*
X109880537Y-126695506D01*
X109801185Y-126598815D01*
X109767792Y-126571410D01*
X110103902Y-126235300D01*
X121492078Y-126235300D01*
X121529400Y-126238976D01*
X121566722Y-126235300D01*
X121566733Y-126235300D01*
X121678386Y-126224303D01*
X121821647Y-126180846D01*
X121953676Y-126110274D01*
X122069401Y-126015301D01*
X122093204Y-125986297D01*
X122533515Y-125545986D01*
X122578815Y-125601185D01*
G36*
X111445995Y-101259203D02*
G01*
X111371111Y-101236487D01*
X111152950Y-101215000D01*
X111007050Y-101215000D01*
X110788889Y-101236487D01*
X110508966Y-101321401D01*
X110250986Y-101459294D01*
X110024866Y-101644866D01*
X109839294Y-101870986D01*
X109804799Y-101935523D01*
X109735178Y-101818645D01*
X109540269Y-101602412D01*
X109306920Y-101428359D01*
X109044099Y-101303175D01*
X108896890Y-101258524D01*
X108667000Y-101379845D01*
X108667000Y-102573000D01*
X108687000Y-102573000D01*
X108687000Y-102827000D01*
X108667000Y-102827000D01*
X108667000Y-104020155D01*
X108896890Y-104141476D01*
X109044099Y-104096825D01*
X109306920Y-103971641D01*
X109540269Y-103797588D01*
X109735178Y-103581355D01*
X109804799Y-103464477D01*
X109839294Y-103529014D01*
X110024866Y-103755134D01*
X110250986Y-103940706D01*
X110508966Y-104078599D01*
X110788889Y-104163513D01*
X111007050Y-104185000D01*
X111152950Y-104185000D01*
X111371111Y-104163513D01*
X111651034Y-104078599D01*
X111909014Y-103940706D01*
X112135134Y-103755134D01*
X112320706Y-103529014D01*
X112350000Y-103474209D01*
X112379294Y-103529014D01*
X112564866Y-103755134D01*
X112790986Y-103940706D01*
X113048966Y-104078599D01*
X113328889Y-104163513D01*
X113547050Y-104185000D01*
X113692950Y-104185000D01*
X113911111Y-104163513D01*
X114191034Y-104078599D01*
X114449014Y-103940706D01*
X114675134Y-103755134D01*
X114860706Y-103529014D01*
X114895201Y-103464477D01*
X114964822Y-103581355D01*
X115159731Y-103797588D01*
X115393080Y-103971641D01*
X115655901Y-104096825D01*
X115803110Y-104141476D01*
X116033000Y-104020155D01*
X116033000Y-102827000D01*
X116287000Y-102827000D01*
X116287000Y-104020155D01*
X116516890Y-104141476D01*
X116664099Y-104096825D01*
X116926920Y-103971641D01*
X117160269Y-103797588D01*
X117355178Y-103581355D01*
X117504157Y-103331252D01*
X117601481Y-103056891D01*
X117480814Y-102827000D01*
X116287000Y-102827000D01*
X116033000Y-102827000D01*
X116013000Y-102827000D01*
X116013000Y-102573000D01*
X116033000Y-102573000D01*
X116033000Y-102553000D01*
X116287000Y-102553000D01*
X116287000Y-102573000D01*
X117480814Y-102573000D01*
X117601481Y-102343109D01*
X117504157Y-102068748D01*
X117355178Y-101818645D01*
X117257237Y-101709989D01*
X122528899Y-101709989D01*
X122524188Y-101725518D01*
X122511928Y-101850000D01*
X122511928Y-101940000D01*
X121262123Y-101940000D01*
X121224800Y-101936324D01*
X121187477Y-101940000D01*
X121187467Y-101940000D01*
X121075814Y-101950997D01*
X120932553Y-101994454D01*
X120800524Y-102065026D01*
X120684799Y-102159999D01*
X120661001Y-102188997D01*
X113986199Y-108863800D01*
X113106502Y-108863800D01*
X111868959Y-107626257D01*
X112029014Y-107540706D01*
X112255134Y-107355134D01*
X112440706Y-107129014D01*
X112475201Y-107064477D01*
X112544822Y-107181355D01*
X112739731Y-107397588D01*
X112973080Y-107571641D01*
X113235901Y-107696825D01*
X113383110Y-107741476D01*
X113613000Y-107620155D01*
X113613000Y-106427000D01*
X113867000Y-106427000D01*
X113867000Y-107620155D01*
X114096890Y-107741476D01*
X114244099Y-107696825D01*
X114506920Y-107571641D01*
X114740269Y-107397588D01*
X114935178Y-107181355D01*
X115084157Y-106931252D01*
X115181481Y-106656891D01*
X115060814Y-106427000D01*
X113867000Y-106427000D01*
X113613000Y-106427000D01*
X113593000Y-106427000D01*
X113593000Y-106173000D01*
X113613000Y-106173000D01*
X113613000Y-104979845D01*
X113867000Y-104979845D01*
X113867000Y-106173000D01*
X115060814Y-106173000D01*
X115181481Y-105943109D01*
X115084157Y-105668748D01*
X114935178Y-105418645D01*
X114740269Y-105202412D01*
X114506920Y-105028359D01*
X114244099Y-104903175D01*
X114096890Y-104858524D01*
X113867000Y-104979845D01*
X113613000Y-104979845D01*
X113383110Y-104858524D01*
X113235901Y-104903175D01*
X112973080Y-105028359D01*
X112739731Y-105202412D01*
X112544822Y-105418645D01*
X112475201Y-105535523D01*
X112440706Y-105470986D01*
X112255134Y-105244866D01*
X112029014Y-105059294D01*
X111771034Y-104921401D01*
X111491111Y-104836487D01*
X111272950Y-104815000D01*
X111127050Y-104815000D01*
X110908889Y-104836487D01*
X110628966Y-104921401D01*
X110370986Y-105059294D01*
X110144866Y-105244866D01*
X110120393Y-105274687D01*
X110099502Y-105205820D01*
X110040537Y-105095506D01*
X109961185Y-104998815D01*
X109864494Y-104919463D01*
X109754180Y-104860498D01*
X109634482Y-104824188D01*
X109510000Y-104811928D01*
X108014866Y-104811928D01*
X107995704Y-104796202D01*
X107245987Y-104046485D01*
X107301185Y-104001185D01*
X107380537Y-103904494D01*
X107439502Y-103794180D01*
X107463966Y-103713534D01*
X107539731Y-103797588D01*
X107773080Y-103971641D01*
X108035901Y-104096825D01*
X108183110Y-104141476D01*
X108413000Y-104020155D01*
X108413000Y-102827000D01*
X108393000Y-102827000D01*
X108393000Y-102573000D01*
X108413000Y-102573000D01*
X108413000Y-101379845D01*
X108183110Y-101258524D01*
X108035901Y-101303175D01*
X107773080Y-101428359D01*
X107539731Y-101602412D01*
X107463966Y-101686466D01*
X107439502Y-101605820D01*
X107380537Y-101495506D01*
X107301185Y-101398815D01*
X107204494Y-101319463D01*
X107094180Y-101260498D01*
X106974482Y-101224188D01*
X106850000Y-101211928D01*
X105150000Y-101211928D01*
X105025518Y-101224188D01*
X104905820Y-101260498D01*
X104795506Y-101319463D01*
X104698815Y-101398815D01*
X104619463Y-101495506D01*
X104560498Y-101605820D01*
X104524188Y-101725518D01*
X104511928Y-101850000D01*
X104511928Y-103550000D01*
X104524188Y-103674482D01*
X104560498Y-103794180D01*
X104619463Y-103904494D01*
X104698815Y-104001185D01*
X104795506Y-104080537D01*
X104905820Y-104139502D01*
X105025518Y-104175812D01*
X105150000Y-104188072D01*
X105305425Y-104188072D01*
X105365026Y-104299576D01*
X105436201Y-104386302D01*
X105460000Y-104415301D01*
X105488998Y-104439099D01*
X106724700Y-105674802D01*
X106724701Y-106262658D01*
X106721023Y-106300000D01*
X106735697Y-106448986D01*
X106779154Y-106592247D01*
X106849726Y-106724276D01*
X106944699Y-106840001D01*
X107060424Y-106934974D01*
X107171928Y-106994575D01*
X107171928Y-107150000D01*
X107184188Y-107274482D01*
X107220498Y-107394180D01*
X107279463Y-107504494D01*
X107358815Y-107601185D01*
X107455506Y-107680537D01*
X107565820Y-107739502D01*
X107685518Y-107775812D01*
X107810000Y-107788072D01*
X109510000Y-107788072D01*
X109634482Y-107775812D01*
X109754180Y-107739502D01*
X109805284Y-107712186D01*
X112227901Y-110134803D01*
X112251699Y-110163801D01*
X112280697Y-110187599D01*
X112367423Y-110258774D01*
X112434445Y-110294598D01*
X112499453Y-110329346D01*
X112642714Y-110372803D01*
X112754367Y-110383800D01*
X112754377Y-110383800D01*
X112791700Y-110387476D01*
X112829023Y-110383800D01*
X113541000Y-110383800D01*
X113541001Y-113440268D01*
X113537324Y-113477600D01*
X113541001Y-113514933D01*
X113551998Y-113626586D01*
X113552965Y-113629774D01*
X113595454Y-113769846D01*
X113666026Y-113901876D01*
X113717503Y-113964600D01*
X113761000Y-114017601D01*
X113789998Y-114041399D01*
X113921900Y-114173301D01*
X113921900Y-114235439D01*
X113961674Y-114435398D01*
X114039695Y-114623756D01*
X114152963Y-114793274D01*
X114297126Y-114937437D01*
X114466644Y-115050705D01*
X114655002Y-115128726D01*
X114854961Y-115168500D01*
X115058839Y-115168500D01*
X115096159Y-115161077D01*
X115143063Y-115231274D01*
X115230089Y-115318300D01*
X112184017Y-115318300D01*
X112239505Y-115235256D01*
X112317526Y-115046898D01*
X112357300Y-114846939D01*
X112357300Y-114643061D01*
X112317526Y-114443102D01*
X112239505Y-114254744D01*
X112126237Y-114085226D01*
X111982074Y-113941063D01*
X111812556Y-113827795D01*
X111624198Y-113749774D01*
X111424239Y-113710000D01*
X111220361Y-113710000D01*
X111020402Y-113749774D01*
X110832044Y-113827795D01*
X110662526Y-113941063D01*
X110518363Y-114085226D01*
X110405095Y-114254744D01*
X110327074Y-114443102D01*
X110287300Y-114643061D01*
X110287300Y-114705197D01*
X102694298Y-122298201D01*
X102665300Y-122321999D01*
X102641502Y-122350997D01*
X102641501Y-122350998D01*
X102570326Y-122437724D01*
X102499754Y-122569754D01*
X102472948Y-122658126D01*
X102456298Y-122713014D01*
X102445348Y-122824188D01*
X102441624Y-122862000D01*
X102445301Y-122899332D01*
X102445300Y-126484295D01*
X102315750Y-126485000D01*
X102157000Y-126643750D01*
X102157000Y-127843000D01*
X102177000Y-127843000D01*
X102177000Y-128097000D01*
X102157000Y-128097000D01*
X102157000Y-128117000D01*
X101903000Y-128117000D01*
X101903000Y-128097000D01*
X101883000Y-128097000D01*
X101883000Y-127843000D01*
X101903000Y-127843000D01*
X101903000Y-126643750D01*
X101744250Y-126485000D01*
X101180000Y-126481928D01*
X101055518Y-126494188D01*
X100935820Y-126530498D01*
X100825506Y-126589463D01*
X100728815Y-126668815D01*
X100660000Y-126752667D01*
X100660000Y-101032279D01*
X100669580Y-100934576D01*
X100688580Y-100871644D01*
X100719445Y-100813595D01*
X100760989Y-100762657D01*
X100811644Y-100720752D01*
X100869471Y-100689485D01*
X100932272Y-100670044D01*
X101027835Y-100660000D01*
X112045198Y-100660000D01*
X111445995Y-101259203D01*
X111445995Y-101259203D01*
G37*
X111445995Y-101259203D02*
X111371111Y-101236487D01*
X111152950Y-101215000D01*
X111007050Y-101215000D01*
X110788889Y-101236487D01*
X110508966Y-101321401D01*
X110250986Y-101459294D01*
X110024866Y-101644866D01*
X109839294Y-101870986D01*
X109804799Y-101935523D01*
X109735178Y-101818645D01*
X109540269Y-101602412D01*
X109306920Y-101428359D01*
X109044099Y-101303175D01*
X108896890Y-101258524D01*
X108667000Y-101379845D01*
X108667000Y-102573000D01*
X108687000Y-102573000D01*
X108687000Y-102827000D01*
X108667000Y-102827000D01*
X108667000Y-104020155D01*
X108896890Y-104141476D01*
X109044099Y-104096825D01*
X109306920Y-103971641D01*
X109540269Y-103797588D01*
X109735178Y-103581355D01*
X109804799Y-103464477D01*
X109839294Y-103529014D01*
X110024866Y-103755134D01*
X110250986Y-103940706D01*
X110508966Y-104078599D01*
X110788889Y-104163513D01*
X111007050Y-104185000D01*
X111152950Y-104185000D01*
X111371111Y-104163513D01*
X111651034Y-104078599D01*
X111909014Y-103940706D01*
X112135134Y-103755134D01*
X112320706Y-103529014D01*
X112350000Y-103474209D01*
X112379294Y-103529014D01*
X112564866Y-103755134D01*
X112790986Y-103940706D01*
X113048966Y-104078599D01*
X113328889Y-104163513D01*
X113547050Y-104185000D01*
X113692950Y-104185000D01*
X113911111Y-104163513D01*
X114191034Y-104078599D01*
X114449014Y-103940706D01*
X114675134Y-103755134D01*
X114860706Y-103529014D01*
X114895201Y-103464477D01*
X114964822Y-103581355D01*
X115159731Y-103797588D01*
X115393080Y-103971641D01*
X115655901Y-104096825D01*
X115803110Y-104141476D01*
X116033000Y-104020155D01*
X116033000Y-102827000D01*
X116287000Y-102827000D01*
X116287000Y-104020155D01*
X116516890Y-104141476D01*
X116664099Y-104096825D01*
X116926920Y-103971641D01*
X117160269Y-103797588D01*
X117355178Y-103581355D01*
X117504157Y-103331252D01*
X117601481Y-103056891D01*
X117480814Y-102827000D01*
X116287000Y-102827000D01*
X116033000Y-102827000D01*
X116013000Y-102827000D01*
X116013000Y-102573000D01*
X116033000Y-102573000D01*
X116033000Y-102553000D01*
X116287000Y-102553000D01*
X116287000Y-102573000D01*
X117480814Y-102573000D01*
X117601481Y-102343109D01*
X117504157Y-102068748D01*
X117355178Y-101818645D01*
X117257237Y-101709989D01*
X122528899Y-101709989D01*
X122524188Y-101725518D01*
X122511928Y-101850000D01*
X122511928Y-101940000D01*
X121262123Y-101940000D01*
X121224800Y-101936324D01*
X121187477Y-101940000D01*
X121187467Y-101940000D01*
X121075814Y-101950997D01*
X120932553Y-101994454D01*
X120800524Y-102065026D01*
X120684799Y-102159999D01*
X120661001Y-102188997D01*
X113986199Y-108863800D01*
X113106502Y-108863800D01*
X111868959Y-107626257D01*
X112029014Y-107540706D01*
X112255134Y-107355134D01*
X112440706Y-107129014D01*
X112475201Y-107064477D01*
X112544822Y-107181355D01*
X112739731Y-107397588D01*
X112973080Y-107571641D01*
X113235901Y-107696825D01*
X113383110Y-107741476D01*
X113613000Y-107620155D01*
X113613000Y-106427000D01*
X113867000Y-106427000D01*
X113867000Y-107620155D01*
X114096890Y-107741476D01*
X114244099Y-107696825D01*
X114506920Y-107571641D01*
X114740269Y-107397588D01*
X114935178Y-107181355D01*
X115084157Y-106931252D01*
X115181481Y-106656891D01*
X115060814Y-106427000D01*
X113867000Y-106427000D01*
X113613000Y-106427000D01*
X113593000Y-106427000D01*
X113593000Y-106173000D01*
X113613000Y-106173000D01*
X113613000Y-104979845D01*
X113867000Y-104979845D01*
X113867000Y-106173000D01*
X115060814Y-106173000D01*
X115181481Y-105943109D01*
X115084157Y-105668748D01*
X114935178Y-105418645D01*
X114740269Y-105202412D01*
X114506920Y-105028359D01*
X114244099Y-104903175D01*
X114096890Y-104858524D01*
X113867000Y-104979845D01*
X113613000Y-104979845D01*
X113383110Y-104858524D01*
X113235901Y-104903175D01*
X112973080Y-105028359D01*
X112739731Y-105202412D01*
X112544822Y-105418645D01*
X112475201Y-105535523D01*
X112440706Y-105470986D01*
X112255134Y-105244866D01*
X112029014Y-105059294D01*
X111771034Y-104921401D01*
X111491111Y-104836487D01*
X111272950Y-104815000D01*
X111127050Y-104815000D01*
X110908889Y-104836487D01*
X110628966Y-104921401D01*
X110370986Y-105059294D01*
X110144866Y-105244866D01*
X110120393Y-105274687D01*
X110099502Y-105205820D01*
X110040537Y-105095506D01*
X109961185Y-104998815D01*
X109864494Y-104919463D01*
X109754180Y-104860498D01*
X109634482Y-104824188D01*
X109510000Y-104811928D01*
X108014866Y-104811928D01*
X107995704Y-104796202D01*
X107245987Y-104046485D01*
X107301185Y-104001185D01*
X107380537Y-103904494D01*
X107439502Y-103794180D01*
X107463966Y-103713534D01*
X107539731Y-103797588D01*
X107773080Y-103971641D01*
X108035901Y-104096825D01*
X108183110Y-104141476D01*
X108413000Y-104020155D01*
X108413000Y-102827000D01*
X108393000Y-102827000D01*
X108393000Y-102573000D01*
X108413000Y-102573000D01*
X108413000Y-101379845D01*
X108183110Y-101258524D01*
X108035901Y-101303175D01*
X107773080Y-101428359D01*
X107539731Y-101602412D01*
X107463966Y-101686466D01*
X107439502Y-101605820D01*
X107380537Y-101495506D01*
X107301185Y-101398815D01*
X107204494Y-101319463D01*
X107094180Y-101260498D01*
X106974482Y-101224188D01*
X106850000Y-101211928D01*
X105150000Y-101211928D01*
X105025518Y-101224188D01*
X104905820Y-101260498D01*
X104795506Y-101319463D01*
X104698815Y-101398815D01*
X104619463Y-101495506D01*
X104560498Y-101605820D01*
X104524188Y-101725518D01*
X104511928Y-101850000D01*
X104511928Y-103550000D01*
X104524188Y-103674482D01*
X104560498Y-103794180D01*
X104619463Y-103904494D01*
X104698815Y-104001185D01*
X104795506Y-104080537D01*
X104905820Y-104139502D01*
X105025518Y-104175812D01*
X105150000Y-104188072D01*
X105305425Y-104188072D01*
X105365026Y-104299576D01*
X105436201Y-104386302D01*
X105460000Y-104415301D01*
X105488998Y-104439099D01*
X106724700Y-105674802D01*
X106724701Y-106262658D01*
X106721023Y-106300000D01*
X106735697Y-106448986D01*
X106779154Y-106592247D01*
X106849726Y-106724276D01*
X106944699Y-106840001D01*
X107060424Y-106934974D01*
X107171928Y-106994575D01*
X107171928Y-107150000D01*
X107184188Y-107274482D01*
X107220498Y-107394180D01*
X107279463Y-107504494D01*
X107358815Y-107601185D01*
X107455506Y-107680537D01*
X107565820Y-107739502D01*
X107685518Y-107775812D01*
X107810000Y-107788072D01*
X109510000Y-107788072D01*
X109634482Y-107775812D01*
X109754180Y-107739502D01*
X109805284Y-107712186D01*
X112227901Y-110134803D01*
X112251699Y-110163801D01*
X112280697Y-110187599D01*
X112367423Y-110258774D01*
X112434445Y-110294598D01*
X112499453Y-110329346D01*
X112642714Y-110372803D01*
X112754367Y-110383800D01*
X112754377Y-110383800D01*
X112791700Y-110387476D01*
X112829023Y-110383800D01*
X113541000Y-110383800D01*
X113541001Y-113440268D01*
X113537324Y-113477600D01*
X113541001Y-113514933D01*
X113551998Y-113626586D01*
X113552965Y-113629774D01*
X113595454Y-113769846D01*
X113666026Y-113901876D01*
X113717503Y-113964600D01*
X113761000Y-114017601D01*
X113789998Y-114041399D01*
X113921900Y-114173301D01*
X113921900Y-114235439D01*
X113961674Y-114435398D01*
X114039695Y-114623756D01*
X114152963Y-114793274D01*
X114297126Y-114937437D01*
X114466644Y-115050705D01*
X114655002Y-115128726D01*
X114854961Y-115168500D01*
X115058839Y-115168500D01*
X115096159Y-115161077D01*
X115143063Y-115231274D01*
X115230089Y-115318300D01*
X112184017Y-115318300D01*
X112239505Y-115235256D01*
X112317526Y-115046898D01*
X112357300Y-114846939D01*
X112357300Y-114643061D01*
X112317526Y-114443102D01*
X112239505Y-114254744D01*
X112126237Y-114085226D01*
X111982074Y-113941063D01*
X111812556Y-113827795D01*
X111624198Y-113749774D01*
X111424239Y-113710000D01*
X111220361Y-113710000D01*
X111020402Y-113749774D01*
X110832044Y-113827795D01*
X110662526Y-113941063D01*
X110518363Y-114085226D01*
X110405095Y-114254744D01*
X110327074Y-114443102D01*
X110287300Y-114643061D01*
X110287300Y-114705197D01*
X102694298Y-122298201D01*
X102665300Y-122321999D01*
X102641502Y-122350997D01*
X102641501Y-122350998D01*
X102570326Y-122437724D01*
X102499754Y-122569754D01*
X102472948Y-122658126D01*
X102456298Y-122713014D01*
X102445348Y-122824188D01*
X102441624Y-122862000D01*
X102445301Y-122899332D01*
X102445300Y-126484295D01*
X102315750Y-126485000D01*
X102157000Y-126643750D01*
X102157000Y-127843000D01*
X102177000Y-127843000D01*
X102177000Y-128097000D01*
X102157000Y-128097000D01*
X102157000Y-128117000D01*
X101903000Y-128117000D01*
X101903000Y-128097000D01*
X101883000Y-128097000D01*
X101883000Y-127843000D01*
X101903000Y-127843000D01*
X101903000Y-126643750D01*
X101744250Y-126485000D01*
X101180000Y-126481928D01*
X101055518Y-126494188D01*
X100935820Y-126530498D01*
X100825506Y-126589463D01*
X100728815Y-126668815D01*
X100660000Y-126752667D01*
X100660000Y-101032279D01*
X100669580Y-100934576D01*
X100688580Y-100871644D01*
X100719445Y-100813595D01*
X100760989Y-100762657D01*
X100811644Y-100720752D01*
X100869471Y-100689485D01*
X100932272Y-100670044D01*
X101027835Y-100660000D01*
X112045198Y-100660000D01*
X111445995Y-101259203D01*
G36*
X122280424Y-123665026D02*
G01*
X122164699Y-123759999D01*
X122140901Y-123788997D01*
X121214599Y-124715300D01*
X117580762Y-124715300D01*
X117601481Y-124656891D01*
X117480814Y-124427000D01*
X116287000Y-124427000D01*
X116287000Y-124447000D01*
X116033000Y-124447000D01*
X116033000Y-124427000D01*
X116013000Y-124427000D01*
X116013000Y-124173000D01*
X116033000Y-124173000D01*
X116033000Y-124153000D01*
X116287000Y-124153000D01*
X116287000Y-124173000D01*
X117480814Y-124173000D01*
X117601481Y-123943109D01*
X117504157Y-123668748D01*
X117469169Y-123610010D01*
X122383350Y-123610010D01*
X122280424Y-123665026D01*
X122280424Y-123665026D01*
G37*
X122280424Y-123665026D02*
X122164699Y-123759999D01*
X122140901Y-123788997D01*
X121214599Y-124715300D01*
X117580762Y-124715300D01*
X117601481Y-124656891D01*
X117480814Y-124427000D01*
X116287000Y-124427000D01*
X116287000Y-124447000D01*
X116033000Y-124447000D01*
X116033000Y-124427000D01*
X116013000Y-124427000D01*
X116013000Y-124173000D01*
X116033000Y-124173000D01*
X116033000Y-124153000D01*
X116287000Y-124153000D01*
X116287000Y-124173000D01*
X117480814Y-124173000D01*
X117601481Y-123943109D01*
X117504157Y-123668748D01*
X117469169Y-123610010D01*
X122383350Y-123610010D01*
X122280424Y-123665026D01*
G36*
X126547000Y-124173000D02*
G01*
X126567000Y-124173000D01*
X126567000Y-124427000D01*
X126547000Y-124427000D01*
X126547000Y-124447000D01*
X126293000Y-124447000D01*
X126293000Y-124427000D01*
X126273000Y-124427000D01*
X126273000Y-124173000D01*
X126293000Y-124173000D01*
X126293000Y-124153000D01*
X126547000Y-124153000D01*
X126547000Y-124173000D01*
X126547000Y-124173000D01*
G37*
X126547000Y-124173000D02*
X126567000Y-124173000D01*
X126567000Y-124427000D01*
X126547000Y-124427000D01*
X126547000Y-124447000D01*
X126293000Y-124447000D01*
X126293000Y-124427000D01*
X126273000Y-124427000D01*
X126273000Y-124173000D01*
X126293000Y-124173000D01*
X126293000Y-124153000D01*
X126547000Y-124153000D01*
X126547000Y-124173000D01*
G36*
X115721326Y-116882237D02*
G01*
X115890844Y-116995505D01*
X116079202Y-117073526D01*
X116279161Y-117113300D01*
X116483039Y-117113300D01*
X116555800Y-117098827D01*
X116555800Y-119510389D01*
X116511863Y-119554326D01*
X116398595Y-119723844D01*
X116320574Y-119912202D01*
X116280800Y-120112161D01*
X116280800Y-120316039D01*
X116320574Y-120515998D01*
X116398595Y-120704356D01*
X116511863Y-120873874D01*
X116656026Y-121018037D01*
X116825544Y-121131305D01*
X117013902Y-121209326D01*
X117213861Y-121249100D01*
X117417739Y-121249100D01*
X117617698Y-121209326D01*
X117806056Y-121131305D01*
X117975574Y-121018037D01*
X118104905Y-120888706D01*
X118695200Y-121479002D01*
X118695200Y-121541139D01*
X118714865Y-121640000D01*
X113825322Y-121640000D01*
X113787999Y-121636324D01*
X113750676Y-121640000D01*
X113750667Y-121640000D01*
X113639014Y-121650997D01*
X113537515Y-121681786D01*
X113495753Y-121694454D01*
X113363723Y-121765026D01*
X113342635Y-121782333D01*
X113247999Y-121859999D01*
X113224201Y-121888997D01*
X111988595Y-123124604D01*
X111909014Y-123059294D01*
X111651034Y-122921401D01*
X111371111Y-122836487D01*
X111152950Y-122815000D01*
X111007050Y-122815000D01*
X110788889Y-122836487D01*
X110508966Y-122921401D01*
X110250986Y-123059294D01*
X110024866Y-123244866D01*
X109839294Y-123470986D01*
X109804799Y-123535523D01*
X109735178Y-123418645D01*
X109540269Y-123202412D01*
X109306920Y-123028359D01*
X109044099Y-122903175D01*
X108896890Y-122858524D01*
X108667000Y-122979845D01*
X108667000Y-124173000D01*
X108687000Y-124173000D01*
X108687000Y-124427000D01*
X108667000Y-124427000D01*
X108667000Y-124447000D01*
X108413000Y-124447000D01*
X108413000Y-124427000D01*
X108393000Y-124427000D01*
X108393000Y-124173000D01*
X108413000Y-124173000D01*
X108413000Y-122979845D01*
X108183110Y-122858524D01*
X108035901Y-122903175D01*
X107773080Y-123028359D01*
X107539731Y-123202412D01*
X107463966Y-123286466D01*
X107439502Y-123205820D01*
X107380537Y-123095506D01*
X107301185Y-122998815D01*
X107204494Y-122919463D01*
X107094180Y-122860498D01*
X106974482Y-122824188D01*
X106850000Y-122811928D01*
X106380573Y-122811928D01*
X112354202Y-116838300D01*
X115677389Y-116838300D01*
X115721326Y-116882237D01*
X115721326Y-116882237D01*
G37*
X115721326Y-116882237D02*
X115890844Y-116995505D01*
X116079202Y-117073526D01*
X116279161Y-117113300D01*
X116483039Y-117113300D01*
X116555800Y-117098827D01*
X116555800Y-119510389D01*
X116511863Y-119554326D01*
X116398595Y-119723844D01*
X116320574Y-119912202D01*
X116280800Y-120112161D01*
X116280800Y-120316039D01*
X116320574Y-120515998D01*
X116398595Y-120704356D01*
X116511863Y-120873874D01*
X116656026Y-121018037D01*
X116825544Y-121131305D01*
X117013902Y-121209326D01*
X117213861Y-121249100D01*
X117417739Y-121249100D01*
X117617698Y-121209326D01*
X117806056Y-121131305D01*
X117975574Y-121018037D01*
X118104905Y-120888706D01*
X118695200Y-121479002D01*
X118695200Y-121541139D01*
X118714865Y-121640000D01*
X113825322Y-121640000D01*
X113787999Y-121636324D01*
X113750676Y-121640000D01*
X113750667Y-121640000D01*
X113639014Y-121650997D01*
X113537515Y-121681786D01*
X113495753Y-121694454D01*
X113363723Y-121765026D01*
X113342635Y-121782333D01*
X113247999Y-121859999D01*
X113224201Y-121888997D01*
X111988595Y-123124604D01*
X111909014Y-123059294D01*
X111651034Y-122921401D01*
X111371111Y-122836487D01*
X111152950Y-122815000D01*
X111007050Y-122815000D01*
X110788889Y-122836487D01*
X110508966Y-122921401D01*
X110250986Y-123059294D01*
X110024866Y-123244866D01*
X109839294Y-123470986D01*
X109804799Y-123535523D01*
X109735178Y-123418645D01*
X109540269Y-123202412D01*
X109306920Y-123028359D01*
X109044099Y-122903175D01*
X108896890Y-122858524D01*
X108667000Y-122979845D01*
X108667000Y-124173000D01*
X108687000Y-124173000D01*
X108687000Y-124427000D01*
X108667000Y-124427000D01*
X108667000Y-124447000D01*
X108413000Y-124447000D01*
X108413000Y-124427000D01*
X108393000Y-124427000D01*
X108393000Y-124173000D01*
X108413000Y-124173000D01*
X108413000Y-122979845D01*
X108183110Y-122858524D01*
X108035901Y-122903175D01*
X107773080Y-123028359D01*
X107539731Y-123202412D01*
X107463966Y-123286466D01*
X107439502Y-123205820D01*
X107380537Y-123095506D01*
X107301185Y-122998815D01*
X107204494Y-122919463D01*
X107094180Y-122860498D01*
X106974482Y-122824188D01*
X106850000Y-122811928D01*
X106380573Y-122811928D01*
X112354202Y-116838300D01*
X115677389Y-116838300D01*
X115721326Y-116882237D01*
G36*
X127839294Y-103529014D02*
G01*
X128024866Y-103755134D01*
X128250986Y-103940706D01*
X128508966Y-104078599D01*
X128788889Y-104163513D01*
X129007050Y-104185000D01*
X129152950Y-104185000D01*
X129371111Y-104163513D01*
X129651034Y-104078599D01*
X129909014Y-103940706D01*
X130135134Y-103755134D01*
X130320706Y-103529014D01*
X130350000Y-103474209D01*
X130379294Y-103529014D01*
X130564866Y-103755134D01*
X130790986Y-103940706D01*
X131048966Y-104078599D01*
X131328889Y-104163513D01*
X131547050Y-104185000D01*
X131692950Y-104185000D01*
X131911111Y-104163513D01*
X132191034Y-104078599D01*
X132449014Y-103940706D01*
X132675134Y-103755134D01*
X132860706Y-103529014D01*
X132890000Y-103474209D01*
X132919294Y-103529014D01*
X133104866Y-103755134D01*
X133330986Y-103940706D01*
X133400001Y-103977595D01*
X133400000Y-107091298D01*
X133351298Y-107140000D01*
X132899812Y-107140000D01*
X133024157Y-106931252D01*
X133121481Y-106656891D01*
X133000814Y-106427000D01*
X131807000Y-106427000D01*
X131807000Y-106447000D01*
X131553000Y-106447000D01*
X131553000Y-106427000D01*
X131533000Y-106427000D01*
X131533000Y-106173000D01*
X131553000Y-106173000D01*
X131553000Y-104979845D01*
X131807000Y-104979845D01*
X131807000Y-106173000D01*
X133000814Y-106173000D01*
X133121481Y-105943109D01*
X133024157Y-105668748D01*
X132875178Y-105418645D01*
X132680269Y-105202412D01*
X132446920Y-105028359D01*
X132184099Y-104903175D01*
X132036890Y-104858524D01*
X131807000Y-104979845D01*
X131553000Y-104979845D01*
X131323110Y-104858524D01*
X131175901Y-104903175D01*
X130913080Y-105028359D01*
X130679731Y-105202412D01*
X130484822Y-105418645D01*
X130415201Y-105535523D01*
X130380706Y-105470986D01*
X130195134Y-105244866D01*
X129969014Y-105059294D01*
X129711034Y-104921401D01*
X129431111Y-104836487D01*
X129212950Y-104815000D01*
X129067050Y-104815000D01*
X128848889Y-104836487D01*
X128606255Y-104910090D01*
X128605546Y-104907753D01*
X128534974Y-104775724D01*
X128440001Y-104659999D01*
X128410998Y-104636197D01*
X128144404Y-104369603D01*
X128120601Y-104340599D01*
X128004876Y-104245626D01*
X127872847Y-104175054D01*
X127729586Y-104131597D01*
X127617933Y-104120600D01*
X127617922Y-104120600D01*
X127580600Y-104116924D01*
X127543278Y-104120600D01*
X127348802Y-104120600D01*
X127234390Y-104006188D01*
X127306920Y-103971641D01*
X127540269Y-103797588D01*
X127735178Y-103581355D01*
X127804799Y-103464477D01*
X127839294Y-103529014D01*
X127839294Y-103529014D01*
G37*
X127839294Y-103529014D02*
X128024866Y-103755134D01*
X128250986Y-103940706D01*
X128508966Y-104078599D01*
X128788889Y-104163513D01*
X129007050Y-104185000D01*
X129152950Y-104185000D01*
X129371111Y-104163513D01*
X129651034Y-104078599D01*
X129909014Y-103940706D01*
X130135134Y-103755134D01*
X130320706Y-103529014D01*
X130350000Y-103474209D01*
X130379294Y-103529014D01*
X130564866Y-103755134D01*
X130790986Y-103940706D01*
X131048966Y-104078599D01*
X131328889Y-104163513D01*
X131547050Y-104185000D01*
X131692950Y-104185000D01*
X131911111Y-104163513D01*
X132191034Y-104078599D01*
X132449014Y-103940706D01*
X132675134Y-103755134D01*
X132860706Y-103529014D01*
X132890000Y-103474209D01*
X132919294Y-103529014D01*
X133104866Y-103755134D01*
X133330986Y-103940706D01*
X133400001Y-103977595D01*
X133400000Y-107091298D01*
X133351298Y-107140000D01*
X132899812Y-107140000D01*
X133024157Y-106931252D01*
X133121481Y-106656891D01*
X133000814Y-106427000D01*
X131807000Y-106427000D01*
X131807000Y-106447000D01*
X131553000Y-106447000D01*
X131553000Y-106427000D01*
X131533000Y-106427000D01*
X131533000Y-106173000D01*
X131553000Y-106173000D01*
X131553000Y-104979845D01*
X131807000Y-104979845D01*
X131807000Y-106173000D01*
X133000814Y-106173000D01*
X133121481Y-105943109D01*
X133024157Y-105668748D01*
X132875178Y-105418645D01*
X132680269Y-105202412D01*
X132446920Y-105028359D01*
X132184099Y-104903175D01*
X132036890Y-104858524D01*
X131807000Y-104979845D01*
X131553000Y-104979845D01*
X131323110Y-104858524D01*
X131175901Y-104903175D01*
X130913080Y-105028359D01*
X130679731Y-105202412D01*
X130484822Y-105418645D01*
X130415201Y-105535523D01*
X130380706Y-105470986D01*
X130195134Y-105244866D01*
X129969014Y-105059294D01*
X129711034Y-104921401D01*
X129431111Y-104836487D01*
X129212950Y-104815000D01*
X129067050Y-104815000D01*
X128848889Y-104836487D01*
X128606255Y-104910090D01*
X128605546Y-104907753D01*
X128534974Y-104775724D01*
X128440001Y-104659999D01*
X128410998Y-104636197D01*
X128144404Y-104369603D01*
X128120601Y-104340599D01*
X128004876Y-104245626D01*
X127872847Y-104175054D01*
X127729586Y-104131597D01*
X127617933Y-104120600D01*
X127617922Y-104120600D01*
X127580600Y-104116924D01*
X127543278Y-104120600D01*
X127348802Y-104120600D01*
X127234390Y-104006188D01*
X127306920Y-103971641D01*
X127540269Y-103797588D01*
X127735178Y-103581355D01*
X127804799Y-103464477D01*
X127839294Y-103529014D01*
G36*
X126667000Y-102573000D02*
G01*
X126687000Y-102573000D01*
X126687000Y-102827000D01*
X126667000Y-102827000D01*
X126667000Y-102847000D01*
X126413000Y-102847000D01*
X126413000Y-102827000D01*
X126393000Y-102827000D01*
X126393000Y-102573000D01*
X126413000Y-102573000D01*
X126413000Y-102553000D01*
X126667000Y-102553000D01*
X126667000Y-102573000D01*
X126667000Y-102573000D01*
G37*
X126667000Y-102573000D02*
X126687000Y-102573000D01*
X126687000Y-102827000D01*
X126667000Y-102827000D01*
X126667000Y-102847000D01*
X126413000Y-102847000D01*
X126413000Y-102827000D01*
X126393000Y-102827000D01*
X126393000Y-102573000D01*
X126413000Y-102573000D01*
X126413000Y-102553000D01*
X126667000Y-102553000D01*
X126667000Y-102573000D01*
M02*
