G04 #@! TF.GenerationSoftware,KiCad,Pcbnew,(5.1.2)-1*
G04 #@! TF.CreationDate,2020-05-27T18:22:03+09:00*
G04 #@! TF.ProjectId,i2s,6932732e-6b69-4636-9164-5f7063625858,v1.1*
G04 #@! TF.SameCoordinates,Original*
G04 #@! TF.FileFunction,Legend,Top*
G04 #@! TF.FilePolarity,Positive*
%FSLAX46Y46*%
G04 Gerber Fmt 4.6, Leading zero omitted, Abs format (unit mm)*
G04 Created by KiCad (PCBNEW (5.1.2)-1) date 2020-05-27 18:22:03*
%MOMM*%
%LPD*%
G04 APERTURE LIST*
%ADD10C,0.150000*%
%ADD11C,0.120000*%
%ADD12C,0.300000*%
G04 APERTURE END LIST*
D10*
X108004761Y-122652380D02*
X108004761Y-121652380D01*
X108338095Y-122366666D01*
X108671428Y-121652380D01*
X108671428Y-122652380D01*
X109147619Y-122652380D02*
X109147619Y-121652380D01*
X110195238Y-122557142D02*
X110147619Y-122604761D01*
X110004761Y-122652380D01*
X109909523Y-122652380D01*
X109766666Y-122604761D01*
X109671428Y-122509523D01*
X109623809Y-122414285D01*
X109576190Y-122223809D01*
X109576190Y-122080952D01*
X109623809Y-121890476D01*
X109671428Y-121795238D01*
X109766666Y-121700000D01*
X109909523Y-121652380D01*
X110004761Y-121652380D01*
X110147619Y-121700000D01*
X110195238Y-121747619D01*
X110576190Y-121747619D02*
X110623809Y-121700000D01*
X110719047Y-121652380D01*
X110957142Y-121652380D01*
X111052380Y-121700000D01*
X111100000Y-121747619D01*
X111147619Y-121842857D01*
X111147619Y-121938095D01*
X111100000Y-122080952D01*
X110528571Y-122652380D01*
X111147619Y-122652380D01*
X111338095Y-122747619D02*
X112100000Y-122747619D01*
X112814285Y-122652380D02*
X112338095Y-122652380D01*
X112338095Y-121652380D01*
X113147619Y-122128571D02*
X113480952Y-122128571D01*
X113623809Y-122652380D02*
X113147619Y-122652380D01*
X113147619Y-121652380D01*
X113623809Y-121652380D01*
X114385714Y-122128571D02*
X114052380Y-122128571D01*
X114052380Y-122652380D02*
X114052380Y-121652380D01*
X114528571Y-121652380D01*
X114766666Y-121652380D02*
X115338095Y-121652380D01*
X115052380Y-122652380D02*
X115052380Y-121652380D01*
X125728571Y-122652380D02*
X125728571Y-121652380D01*
X126061904Y-122366666D01*
X126395238Y-121652380D01*
X126395238Y-122652380D01*
X126871428Y-122652380D02*
X126871428Y-121652380D01*
X127919047Y-122557142D02*
X127871428Y-122604761D01*
X127728571Y-122652380D01*
X127633333Y-122652380D01*
X127490476Y-122604761D01*
X127395238Y-122509523D01*
X127347619Y-122414285D01*
X127300000Y-122223809D01*
X127300000Y-122080952D01*
X127347619Y-121890476D01*
X127395238Y-121795238D01*
X127490476Y-121700000D01*
X127633333Y-121652380D01*
X127728571Y-121652380D01*
X127871428Y-121700000D01*
X127919047Y-121747619D01*
X128300000Y-121747619D02*
X128347619Y-121700000D01*
X128442857Y-121652380D01*
X128680952Y-121652380D01*
X128776190Y-121700000D01*
X128823809Y-121747619D01*
X128871428Y-121842857D01*
X128871428Y-121938095D01*
X128823809Y-122080952D01*
X128252380Y-122652380D01*
X128871428Y-122652380D01*
X129061904Y-122747619D02*
X129823809Y-122747619D01*
X130633333Y-122652380D02*
X130300000Y-122176190D01*
X130061904Y-122652380D02*
X130061904Y-121652380D01*
X130442857Y-121652380D01*
X130538095Y-121700000D01*
X130585714Y-121747619D01*
X130633333Y-121842857D01*
X130633333Y-121985714D01*
X130585714Y-122080952D01*
X130538095Y-122128571D01*
X130442857Y-122176190D01*
X130061904Y-122176190D01*
X131061904Y-122652380D02*
X131061904Y-121652380D01*
X132061904Y-121700000D02*
X131966666Y-121652380D01*
X131823809Y-121652380D01*
X131680952Y-121700000D01*
X131585714Y-121795238D01*
X131538095Y-121890476D01*
X131490476Y-122080952D01*
X131490476Y-122223809D01*
X131538095Y-122414285D01*
X131585714Y-122509523D01*
X131680952Y-122604761D01*
X131823809Y-122652380D01*
X131919047Y-122652380D01*
X132061904Y-122604761D01*
X132109523Y-122557142D01*
X132109523Y-122223809D01*
X131919047Y-122223809D01*
X132538095Y-122652380D02*
X132538095Y-121652380D01*
X132538095Y-122128571D02*
X133109523Y-122128571D01*
X133109523Y-122652380D02*
X133109523Y-121652380D01*
X133442857Y-121652380D02*
X134014285Y-121652380D01*
X133728571Y-122652380D02*
X133728571Y-121652380D01*
X126128571Y-101152380D02*
X126128571Y-100152380D01*
X126461904Y-100866666D01*
X126795238Y-100152380D01*
X126795238Y-101152380D01*
X127271428Y-101152380D02*
X127271428Y-100152380D01*
X128319047Y-101057142D02*
X128271428Y-101104761D01*
X128128571Y-101152380D01*
X128033333Y-101152380D01*
X127890476Y-101104761D01*
X127795238Y-101009523D01*
X127747619Y-100914285D01*
X127700000Y-100723809D01*
X127700000Y-100580952D01*
X127747619Y-100390476D01*
X127795238Y-100295238D01*
X127890476Y-100200000D01*
X128033333Y-100152380D01*
X128128571Y-100152380D01*
X128271428Y-100200000D01*
X128319047Y-100247619D01*
X129271428Y-101152380D02*
X128700000Y-101152380D01*
X128985714Y-101152380D02*
X128985714Y-100152380D01*
X128890476Y-100295238D01*
X128795238Y-100390476D01*
X128700000Y-100438095D01*
X129461904Y-101247619D02*
X130223809Y-101247619D01*
X131033333Y-101152380D02*
X130700000Y-100676190D01*
X130461904Y-101152380D02*
X130461904Y-100152380D01*
X130842857Y-100152380D01*
X130938095Y-100200000D01*
X130985714Y-100247619D01*
X131033333Y-100342857D01*
X131033333Y-100485714D01*
X130985714Y-100580952D01*
X130938095Y-100628571D01*
X130842857Y-100676190D01*
X130461904Y-100676190D01*
X131461904Y-101152380D02*
X131461904Y-100152380D01*
X132461904Y-100200000D02*
X132366666Y-100152380D01*
X132223809Y-100152380D01*
X132080952Y-100200000D01*
X131985714Y-100295238D01*
X131938095Y-100390476D01*
X131890476Y-100580952D01*
X131890476Y-100723809D01*
X131938095Y-100914285D01*
X131985714Y-101009523D01*
X132080952Y-101104761D01*
X132223809Y-101152380D01*
X132319047Y-101152380D01*
X132461904Y-101104761D01*
X132509523Y-101057142D01*
X132509523Y-100723809D01*
X132319047Y-100723809D01*
X132938095Y-101152380D02*
X132938095Y-100152380D01*
X132938095Y-100628571D02*
X133509523Y-100628571D01*
X133509523Y-101152380D02*
X133509523Y-100152380D01*
X133842857Y-100152380D02*
X134414285Y-100152380D01*
X134128571Y-101152380D02*
X134128571Y-100152380D01*
X108204761Y-101152380D02*
X108204761Y-100152380D01*
X108538095Y-100866666D01*
X108871428Y-100152380D01*
X108871428Y-101152380D01*
X109347619Y-101152380D02*
X109347619Y-100152380D01*
X110395238Y-101057142D02*
X110347619Y-101104761D01*
X110204761Y-101152380D01*
X110109523Y-101152380D01*
X109966666Y-101104761D01*
X109871428Y-101009523D01*
X109823809Y-100914285D01*
X109776190Y-100723809D01*
X109776190Y-100580952D01*
X109823809Y-100390476D01*
X109871428Y-100295238D01*
X109966666Y-100200000D01*
X110109523Y-100152380D01*
X110204761Y-100152380D01*
X110347619Y-100200000D01*
X110395238Y-100247619D01*
X111347619Y-101152380D02*
X110776190Y-101152380D01*
X111061904Y-101152380D02*
X111061904Y-100152380D01*
X110966666Y-100295238D01*
X110871428Y-100390476D01*
X110776190Y-100438095D01*
X111538095Y-101247619D02*
X112300000Y-101247619D01*
X113014285Y-101152380D02*
X112538095Y-101152380D01*
X112538095Y-100152380D01*
X113347619Y-100628571D02*
X113680952Y-100628571D01*
X113823809Y-101152380D02*
X113347619Y-101152380D01*
X113347619Y-100152380D01*
X113823809Y-100152380D01*
X114585714Y-100628571D02*
X114252380Y-100628571D01*
X114252380Y-101152380D02*
X114252380Y-100152380D01*
X114728571Y-100152380D01*
X114966666Y-100152380D02*
X115538095Y-100152380D01*
X115252380Y-101152380D02*
X115252380Y-100152380D01*
D11*
X103538095Y-140261904D02*
X103919047Y-139995238D01*
X103538095Y-139804761D02*
X104338095Y-139804761D01*
X104338095Y-140109523D01*
X104300000Y-140185714D01*
X104261904Y-140223809D01*
X104185714Y-140261904D01*
X104071428Y-140261904D01*
X103995238Y-140223809D01*
X103957142Y-140185714D01*
X103919047Y-140109523D01*
X103919047Y-139804761D01*
X103576190Y-140566666D02*
X103538095Y-140680952D01*
X103538095Y-140871428D01*
X103576190Y-140947619D01*
X103614285Y-140985714D01*
X103690476Y-141023809D01*
X103766666Y-141023809D01*
X103842857Y-140985714D01*
X103880952Y-140947619D01*
X103919047Y-140871428D01*
X103957142Y-140719047D01*
X103995238Y-140642857D01*
X104033333Y-140604761D01*
X104109523Y-140566666D01*
X104185714Y-140566666D01*
X104261904Y-140604761D01*
X104300000Y-140642857D01*
X104338095Y-140719047D01*
X104338095Y-140909523D01*
X104300000Y-141023809D01*
X104338095Y-141252380D02*
X104338095Y-141709523D01*
X103538095Y-141480952D02*
X104338095Y-141480952D01*
X103614285Y-137604761D02*
X103576190Y-137566666D01*
X103538095Y-137452380D01*
X103538095Y-137376190D01*
X103576190Y-137261904D01*
X103652380Y-137185714D01*
X103728571Y-137147619D01*
X103880952Y-137109523D01*
X103995238Y-137109523D01*
X104147619Y-137147619D01*
X104223809Y-137185714D01*
X104300000Y-137261904D01*
X104338095Y-137376190D01*
X104338095Y-137452380D01*
X104300000Y-137566666D01*
X104261904Y-137604761D01*
X103957142Y-138214285D02*
X103957142Y-137947619D01*
X103538095Y-137947619D02*
X104338095Y-137947619D01*
X104338095Y-138328571D01*
X104300000Y-139052380D02*
X104338095Y-138976190D01*
X104338095Y-138861904D01*
X104300000Y-138747619D01*
X104223809Y-138671428D01*
X104147619Y-138633333D01*
X103995238Y-138595238D01*
X103880952Y-138595238D01*
X103728571Y-138633333D01*
X103652380Y-138671428D01*
X103576190Y-138747619D01*
X103538095Y-138861904D01*
X103538095Y-138938095D01*
X103576190Y-139052380D01*
X103614285Y-139090476D01*
X103880952Y-139090476D01*
X103880952Y-138938095D01*
X104300000Y-127290476D02*
X104338095Y-127214285D01*
X104338095Y-127100000D01*
X104300000Y-126985714D01*
X104223809Y-126909523D01*
X104147619Y-126871428D01*
X103995238Y-126833333D01*
X103880952Y-126833333D01*
X103728571Y-126871428D01*
X103652380Y-126909523D01*
X103576190Y-126985714D01*
X103538095Y-127100000D01*
X103538095Y-127176190D01*
X103576190Y-127290476D01*
X103614285Y-127328571D01*
X103880952Y-127328571D01*
X103880952Y-127176190D01*
X103538095Y-127671428D02*
X104338095Y-127671428D01*
X103538095Y-128128571D01*
X104338095Y-128128571D01*
X103538095Y-128509523D02*
X104338095Y-128509523D01*
X104338095Y-128700000D01*
X104300000Y-128814285D01*
X104223809Y-128890476D01*
X104147619Y-128928571D01*
X103995238Y-128966666D01*
X103880952Y-128966666D01*
X103728571Y-128928571D01*
X103652380Y-128890476D01*
X103576190Y-128814285D01*
X103538095Y-128700000D01*
X103538095Y-128509523D01*
X104338095Y-129761904D02*
X104338095Y-130257142D01*
X104033333Y-129990476D01*
X104033333Y-130104761D01*
X103995238Y-130180952D01*
X103957142Y-130219047D01*
X103880952Y-130257142D01*
X103690476Y-130257142D01*
X103614285Y-130219047D01*
X103576190Y-130180952D01*
X103538095Y-130104761D01*
X103538095Y-129876190D01*
X103576190Y-129800000D01*
X103614285Y-129761904D01*
X103614285Y-130600000D02*
X103576190Y-130638095D01*
X103538095Y-130600000D01*
X103576190Y-130561904D01*
X103614285Y-130600000D01*
X103538095Y-130600000D01*
X104338095Y-130904761D02*
X104338095Y-131400000D01*
X104033333Y-131133333D01*
X104033333Y-131247619D01*
X103995238Y-131323809D01*
X103957142Y-131361904D01*
X103880952Y-131400000D01*
X103690476Y-131400000D01*
X103614285Y-131361904D01*
X103576190Y-131323809D01*
X103538095Y-131247619D01*
X103538095Y-131019047D01*
X103576190Y-130942857D01*
X103614285Y-130904761D01*
X103576190Y-134747619D02*
X103538095Y-134861904D01*
X103538095Y-135052380D01*
X103576190Y-135128571D01*
X103614285Y-135166666D01*
X103690476Y-135204761D01*
X103766666Y-135204761D01*
X103842857Y-135166666D01*
X103880952Y-135128571D01*
X103919047Y-135052380D01*
X103957142Y-134900000D01*
X103995238Y-134823809D01*
X104033333Y-134785714D01*
X104109523Y-134747619D01*
X104185714Y-134747619D01*
X104261904Y-134785714D01*
X104300000Y-134823809D01*
X104338095Y-134900000D01*
X104338095Y-135090476D01*
X104300000Y-135204761D01*
X103614285Y-136004761D02*
X103576190Y-135966666D01*
X103538095Y-135852380D01*
X103538095Y-135776190D01*
X103576190Y-135661904D01*
X103652380Y-135585714D01*
X103728571Y-135547619D01*
X103880952Y-135509523D01*
X103995238Y-135509523D01*
X104147619Y-135547619D01*
X104223809Y-135585714D01*
X104300000Y-135661904D01*
X104338095Y-135776190D01*
X104338095Y-135852380D01*
X104300000Y-135966666D01*
X104261904Y-136004761D01*
X103538095Y-136728571D02*
X103538095Y-136347619D01*
X104338095Y-136347619D01*
X103576190Y-132128571D02*
X103538095Y-132242857D01*
X103538095Y-132433333D01*
X103576190Y-132509523D01*
X103614285Y-132547619D01*
X103690476Y-132585714D01*
X103766666Y-132585714D01*
X103842857Y-132547619D01*
X103880952Y-132509523D01*
X103919047Y-132433333D01*
X103957142Y-132280952D01*
X103995238Y-132204761D01*
X104033333Y-132166666D01*
X104109523Y-132128571D01*
X104185714Y-132128571D01*
X104261904Y-132166666D01*
X104300000Y-132204761D01*
X104338095Y-132280952D01*
X104338095Y-132471428D01*
X104300000Y-132585714D01*
X103538095Y-132928571D02*
X104338095Y-132928571D01*
X104338095Y-133119047D01*
X104300000Y-133233333D01*
X104223809Y-133309523D01*
X104147619Y-133347619D01*
X103995238Y-133385714D01*
X103880952Y-133385714D01*
X103728571Y-133347619D01*
X103652380Y-133309523D01*
X103576190Y-133233333D01*
X103538095Y-133119047D01*
X103538095Y-132928571D01*
X103766666Y-133690476D02*
X103766666Y-134071428D01*
X103538095Y-133614285D02*
X104338095Y-133880952D01*
X103538095Y-134147619D01*
D10*
X103072619Y-108857142D02*
X102263095Y-108857142D01*
X102167857Y-108904761D01*
X102120238Y-108952380D01*
X102072619Y-109047619D01*
X102072619Y-109238095D01*
X102120238Y-109333333D01*
X102167857Y-109380952D01*
X102263095Y-109428571D01*
X103072619Y-109428571D01*
X102120238Y-109857142D02*
X102072619Y-110000000D01*
X102072619Y-110238095D01*
X102120238Y-110333333D01*
X102167857Y-110380952D01*
X102263095Y-110428571D01*
X102358333Y-110428571D01*
X102453571Y-110380952D01*
X102501190Y-110333333D01*
X102548809Y-110238095D01*
X102596428Y-110047619D01*
X102644047Y-109952380D01*
X102691666Y-109904761D01*
X102786904Y-109857142D01*
X102882142Y-109857142D01*
X102977380Y-109904761D01*
X103025000Y-109952380D01*
X103072619Y-110047619D01*
X103072619Y-110285714D01*
X103025000Y-110428571D01*
X102596428Y-111190476D02*
X102548809Y-111333333D01*
X102501190Y-111380952D01*
X102405952Y-111428571D01*
X102263095Y-111428571D01*
X102167857Y-111380952D01*
X102120238Y-111333333D01*
X102072619Y-111238095D01*
X102072619Y-110857142D01*
X103072619Y-110857142D01*
X103072619Y-111190476D01*
X103025000Y-111285714D01*
X102977380Y-111333333D01*
X102882142Y-111380952D01*
X102786904Y-111380952D01*
X102691666Y-111333333D01*
X102644047Y-111285714D01*
X102596428Y-111190476D01*
X102596428Y-110857142D01*
X102072619Y-112619047D02*
X103072619Y-112619047D01*
X103072619Y-113000000D01*
X103025000Y-113095238D01*
X102977380Y-113142857D01*
X102882142Y-113190476D01*
X102739285Y-113190476D01*
X102644047Y-113142857D01*
X102596428Y-113095238D01*
X102548809Y-113000000D01*
X102548809Y-112619047D01*
X102072619Y-113619047D02*
X103072619Y-113619047D01*
X103072619Y-113857142D01*
X103025000Y-114000000D01*
X102929761Y-114095238D01*
X102834523Y-114142857D01*
X102644047Y-114190476D01*
X102501190Y-114190476D01*
X102310714Y-114142857D01*
X102215476Y-114095238D01*
X102120238Y-114000000D01*
X102072619Y-113857142D01*
X102072619Y-113619047D01*
X102072619Y-114619047D02*
X103072619Y-114619047D01*
X102358333Y-114952380D01*
X103072619Y-115285714D01*
X102072619Y-115285714D01*
X102167857Y-117095238D02*
X102120238Y-117047619D01*
X102072619Y-116904761D01*
X102072619Y-116809523D01*
X102120238Y-116666666D01*
X102215476Y-116571428D01*
X102310714Y-116523809D01*
X102501190Y-116476190D01*
X102644047Y-116476190D01*
X102834523Y-116523809D01*
X102929761Y-116571428D01*
X103025000Y-116666666D01*
X103072619Y-116809523D01*
X103072619Y-116904761D01*
X103025000Y-117047619D01*
X102977380Y-117095238D01*
X102072619Y-117666666D02*
X102120238Y-117571428D01*
X102167857Y-117523809D01*
X102263095Y-117476190D01*
X102548809Y-117476190D01*
X102644047Y-117523809D01*
X102691666Y-117571428D01*
X102739285Y-117666666D01*
X102739285Y-117809523D01*
X102691666Y-117904761D01*
X102644047Y-117952380D01*
X102548809Y-118000000D01*
X102263095Y-118000000D01*
X102167857Y-117952380D01*
X102120238Y-117904761D01*
X102072619Y-117809523D01*
X102072619Y-117666666D01*
X102739285Y-118428571D02*
X102072619Y-118428571D01*
X102644047Y-118428571D02*
X102691666Y-118476190D01*
X102739285Y-118571428D01*
X102739285Y-118714285D01*
X102691666Y-118809523D01*
X102596428Y-118857142D01*
X102072619Y-118857142D01*
X102739285Y-119238095D02*
X102072619Y-119476190D01*
X102739285Y-119714285D01*
X102120238Y-120476190D02*
X102072619Y-120380952D01*
X102072619Y-120190476D01*
X102120238Y-120095238D01*
X102215476Y-120047619D01*
X102596428Y-120047619D01*
X102691666Y-120095238D01*
X102739285Y-120190476D01*
X102739285Y-120380952D01*
X102691666Y-120476190D01*
X102596428Y-120523809D01*
X102501190Y-120523809D01*
X102405952Y-120047619D01*
X102072619Y-120952380D02*
X102739285Y-120952380D01*
X102548809Y-120952380D02*
X102644047Y-120999999D01*
X102691666Y-121047619D01*
X102739285Y-121142857D01*
X102739285Y-121238095D01*
X102739285Y-121428571D02*
X102739285Y-121809523D01*
X103072619Y-121571428D02*
X102215476Y-121571428D01*
X102120238Y-121619047D01*
X102072619Y-121714285D01*
X102072619Y-121809523D01*
X102120238Y-122523809D02*
X102072619Y-122428571D01*
X102072619Y-122238095D01*
X102120238Y-122142857D01*
X102215476Y-122095238D01*
X102596428Y-122095238D01*
X102691666Y-122142857D01*
X102739285Y-122238095D01*
X102739285Y-122428571D01*
X102691666Y-122523809D01*
X102596428Y-122571428D01*
X102501190Y-122571428D01*
X102405952Y-122095238D01*
X102072619Y-122999999D02*
X102739285Y-122999999D01*
X102548809Y-122999999D02*
X102644047Y-123047619D01*
X102691666Y-123095238D01*
X102739285Y-123190476D01*
X102739285Y-123285714D01*
X101327380Y-108333333D02*
X101375000Y-108380952D01*
X101422619Y-108476190D01*
X101422619Y-108714285D01*
X101375000Y-108809523D01*
X101327380Y-108857142D01*
X101232142Y-108904761D01*
X101136904Y-108904761D01*
X100994047Y-108857142D01*
X100422619Y-108285714D01*
X100422619Y-108904761D01*
X101422619Y-109523809D02*
X101422619Y-109619047D01*
X101375000Y-109714285D01*
X101327380Y-109761904D01*
X101232142Y-109809523D01*
X101041666Y-109857142D01*
X100803571Y-109857142D01*
X100613095Y-109809523D01*
X100517857Y-109761904D01*
X100470238Y-109714285D01*
X100422619Y-109619047D01*
X100422619Y-109523809D01*
X100470238Y-109428571D01*
X100517857Y-109380952D01*
X100613095Y-109333333D01*
X100803571Y-109285714D01*
X101041666Y-109285714D01*
X101232142Y-109333333D01*
X101327380Y-109380952D01*
X101375000Y-109428571D01*
X101422619Y-109523809D01*
X101422619Y-110476190D02*
X101422619Y-110571428D01*
X101375000Y-110666666D01*
X101327380Y-110714285D01*
X101232142Y-110761904D01*
X101041666Y-110809523D01*
X100803571Y-110809523D01*
X100613095Y-110761904D01*
X100517857Y-110714285D01*
X100470238Y-110666666D01*
X100422619Y-110571428D01*
X100422619Y-110476190D01*
X100470238Y-110380952D01*
X100517857Y-110333333D01*
X100613095Y-110285714D01*
X100803571Y-110238095D01*
X101041666Y-110238095D01*
X101232142Y-110285714D01*
X101327380Y-110333333D01*
X101375000Y-110380952D01*
X101422619Y-110476190D01*
X101422619Y-111714285D02*
X101422619Y-111238095D01*
X100946428Y-111190476D01*
X100994047Y-111238095D01*
X101041666Y-111333333D01*
X101041666Y-111571428D01*
X100994047Y-111666666D01*
X100946428Y-111714285D01*
X100851190Y-111761904D01*
X100613095Y-111761904D01*
X100517857Y-111714285D01*
X100470238Y-111666666D01*
X100422619Y-111571428D01*
X100422619Y-111333333D01*
X100470238Y-111238095D01*
X100517857Y-111190476D01*
X101089285Y-112857142D02*
X100422619Y-113095238D01*
X101089285Y-113333333D01*
X100422619Y-114238095D02*
X100422619Y-113666666D01*
X100422619Y-113952380D02*
X101422619Y-113952380D01*
X101279761Y-113857142D01*
X101184523Y-113761904D01*
X101136904Y-113666666D01*
X100517857Y-114666666D02*
X100470238Y-114714285D01*
X100422619Y-114666666D01*
X100470238Y-114619047D01*
X100517857Y-114666666D01*
X100422619Y-114666666D01*
X100422619Y-115666666D02*
X100422619Y-115095238D01*
X100422619Y-115380952D02*
X101422619Y-115380952D01*
X101279761Y-115285714D01*
X101184523Y-115190476D01*
X101136904Y-115095238D01*
X100517857Y-117428571D02*
X100470238Y-117380952D01*
X100422619Y-117238095D01*
X100422619Y-117142857D01*
X100470238Y-117000000D01*
X100565476Y-116904761D01*
X100660714Y-116857142D01*
X100851190Y-116809523D01*
X100994047Y-116809523D01*
X101184523Y-116857142D01*
X101279761Y-116904761D01*
X101375000Y-117000000D01*
X101422619Y-117142857D01*
X101422619Y-117238095D01*
X101375000Y-117380952D01*
X101327380Y-117428571D01*
X100422619Y-117857142D02*
X101089285Y-117857142D01*
X100898809Y-117857142D02*
X100994047Y-117904761D01*
X101041666Y-117952380D01*
X101089285Y-118047619D01*
X101089285Y-118142857D01*
X100470238Y-118857142D02*
X100422619Y-118761904D01*
X100422619Y-118571428D01*
X100470238Y-118476190D01*
X100565476Y-118428571D01*
X100946428Y-118428571D01*
X101041666Y-118476190D01*
X101089285Y-118571428D01*
X101089285Y-118761904D01*
X101041666Y-118857142D01*
X100946428Y-118904761D01*
X100851190Y-118904761D01*
X100755952Y-118428571D01*
X100470238Y-119285714D02*
X100422619Y-119380952D01*
X100422619Y-119571428D01*
X100470238Y-119666666D01*
X100565476Y-119714285D01*
X100613095Y-119714285D01*
X100708333Y-119666666D01*
X100755952Y-119571428D01*
X100755952Y-119428571D01*
X100803571Y-119333333D01*
X100898809Y-119285714D01*
X100946428Y-119285714D01*
X101041666Y-119333333D01*
X101089285Y-119428571D01*
X101089285Y-119571428D01*
X101041666Y-119666666D01*
X100470238Y-120571428D02*
X100422619Y-120476190D01*
X100422619Y-120285714D01*
X100470238Y-120190476D01*
X100517857Y-120142857D01*
X100613095Y-120095238D01*
X100898809Y-120095238D01*
X100994047Y-120142857D01*
X101041666Y-120190476D01*
X101089285Y-120285714D01*
X101089285Y-120476190D01*
X101041666Y-120571428D01*
X100470238Y-121380952D02*
X100422619Y-121285714D01*
X100422619Y-121095238D01*
X100470238Y-121000000D01*
X100565476Y-120952380D01*
X100946428Y-120952380D01*
X101041666Y-121000000D01*
X101089285Y-121095238D01*
X101089285Y-121285714D01*
X101041666Y-121380952D01*
X100946428Y-121428571D01*
X100851190Y-121428571D01*
X100755952Y-120952380D01*
X101089285Y-121857142D02*
X100422619Y-121857142D01*
X100994047Y-121857142D02*
X101041666Y-121904761D01*
X101089285Y-122000000D01*
X101089285Y-122142857D01*
X101041666Y-122238095D01*
X100946428Y-122285714D01*
X100422619Y-122285714D01*
X101089285Y-122619047D02*
X101089285Y-123000000D01*
X101422619Y-122761904D02*
X100565476Y-122761904D01*
X100470238Y-122809523D01*
X100422619Y-122904761D01*
X100422619Y-123000000D01*
X128450000Y-112750000D02*
X134425000Y-112750000D01*
X129975000Y-119650000D02*
X134425000Y-119650000D01*
D11*
X134874779Y-111090000D02*
X134549221Y-111090000D01*
X134874779Y-112110000D02*
X134549221Y-112110000D01*
X131437221Y-112110000D02*
X131762779Y-112110000D01*
X131437221Y-111090000D02*
X131762779Y-111090000D01*
X136910000Y-137300000D02*
X136910000Y-138430000D01*
X136150000Y-137300000D02*
X136910000Y-137300000D01*
X136845000Y-140007530D02*
X136845000Y-140830000D01*
X136845000Y-139190000D02*
X136845000Y-139392470D01*
X136713471Y-139190000D02*
X136845000Y-139190000D01*
X135443471Y-139190000D02*
X135586529Y-139190000D01*
X135390000Y-138993471D02*
X135390000Y-139136529D01*
X135390000Y-137300000D02*
X135390000Y-137866529D01*
X136845000Y-140830000D02*
X126565000Y-140830000D01*
X135390000Y-137300000D02*
X126565000Y-137300000D01*
X126565000Y-138737530D02*
X126565000Y-139392470D01*
X126565000Y-140007530D02*
X126565000Y-140830000D01*
X126565000Y-137300000D02*
X126565000Y-138122470D01*
X112200000Y-119700000D02*
G75*
G03X112200000Y-119700000I-700000J0D01*
G01*
X116300000Y-119600000D02*
G75*
G03X116300000Y-119600000I-700000J0D01*
G01*
X118310000Y-127675221D02*
X118310000Y-128000779D01*
X119330000Y-127675221D02*
X119330000Y-128000779D01*
X116740000Y-127665221D02*
X116740000Y-127990779D01*
X117760000Y-127665221D02*
X117760000Y-127990779D01*
X109010000Y-113074779D02*
X109010000Y-112749221D01*
X107990000Y-113074779D02*
X107990000Y-112749221D01*
X113017221Y-148050000D02*
X113342779Y-148050000D01*
X113017221Y-147030000D02*
X113342779Y-147030000D01*
X112000578Y-134420000D02*
X111483422Y-134420000D01*
X112000578Y-135840000D02*
X111483422Y-135840000D01*
X123220000Y-112495000D02*
X123220000Y-112020000D01*
X118000000Y-117240000D02*
X118475000Y-117240000D01*
X118000000Y-116765000D02*
X118000000Y-117240000D01*
X118000000Y-112020000D02*
X118475000Y-112020000D01*
X118000000Y-112495000D02*
X118000000Y-112020000D01*
X123220000Y-117240000D02*
X122745000Y-117240000D01*
X123220000Y-116765000D02*
X123220000Y-117240000D01*
X117815000Y-133370000D02*
X117340000Y-133370000D01*
X122560000Y-138590000D02*
X122560000Y-138115000D01*
X122085000Y-138590000D02*
X122560000Y-138590000D01*
X117340000Y-138590000D02*
X117340000Y-138115000D01*
X117815000Y-138590000D02*
X117340000Y-138590000D01*
X122560000Y-133370000D02*
X122560000Y-133845000D01*
X122085000Y-133370000D02*
X122560000Y-133370000D01*
X107010000Y-115300000D02*
X104560000Y-115300000D01*
X105210000Y-118520000D02*
X107010000Y-118520000D01*
X113700000Y-141590000D02*
X111250000Y-141590000D01*
X111900000Y-144810000D02*
X113700000Y-144810000D01*
X126452779Y-130020000D02*
X126127221Y-130020000D01*
X126452779Y-131040000D02*
X126127221Y-131040000D01*
X108340779Y-130060000D02*
X108015221Y-130060000D01*
X108340779Y-131080000D02*
X108015221Y-131080000D01*
X126470779Y-108440000D02*
X126145221Y-108440000D01*
X126470779Y-109460000D02*
X126145221Y-109460000D01*
X108520779Y-108430000D02*
X108195221Y-108430000D01*
X108520779Y-109450000D02*
X108195221Y-109450000D01*
X116674779Y-121090000D02*
X116349221Y-121090000D01*
X116674779Y-122110000D02*
X116349221Y-122110000D01*
X106750779Y-138390000D02*
X106425221Y-138390000D01*
X106750779Y-139410000D02*
X106425221Y-139410000D01*
X106712779Y-140890000D02*
X106387221Y-140890000D01*
X106712779Y-141910000D02*
X106387221Y-141910000D01*
X122550000Y-125630000D02*
X122550000Y-124300000D01*
X123880000Y-125630000D02*
X122550000Y-125630000D01*
X125150000Y-125630000D02*
X125150000Y-122970000D01*
X125150000Y-122970000D02*
X135370000Y-122970000D01*
X125150000Y-125630000D02*
X135370000Y-125630000D01*
X135370000Y-125630000D02*
X135370000Y-122970000D01*
X104670000Y-125630000D02*
X104670000Y-124300000D01*
X106000000Y-125630000D02*
X104670000Y-125630000D01*
X107270000Y-125630000D02*
X107270000Y-122970000D01*
X107270000Y-122970000D02*
X117490000Y-122970000D01*
X107270000Y-125630000D02*
X117490000Y-125630000D01*
X117490000Y-125630000D02*
X117490000Y-122970000D01*
X125270000Y-129230000D02*
X125270000Y-127900000D01*
X126600000Y-129230000D02*
X125270000Y-129230000D01*
X127870000Y-129230000D02*
X127870000Y-126570000D01*
X127870000Y-126570000D02*
X133010000Y-126570000D01*
X127870000Y-129230000D02*
X133010000Y-129230000D01*
X133010000Y-129230000D02*
X133010000Y-126570000D01*
X107170000Y-129230000D02*
X107170000Y-127900000D01*
X108500000Y-129230000D02*
X107170000Y-129230000D01*
X109770000Y-129230000D02*
X109770000Y-126570000D01*
X109770000Y-126570000D02*
X114910000Y-126570000D01*
X109770000Y-129230000D02*
X114910000Y-129230000D01*
X114910000Y-129230000D02*
X114910000Y-126570000D01*
X125270000Y-107630000D02*
X125270000Y-106300000D01*
X126600000Y-107630000D02*
X125270000Y-107630000D01*
X127870000Y-107630000D02*
X127870000Y-104970000D01*
X127870000Y-104970000D02*
X133010000Y-104970000D01*
X127870000Y-107630000D02*
X133010000Y-107630000D01*
X133010000Y-107630000D02*
X133010000Y-104970000D01*
X107330000Y-107630000D02*
X107330000Y-106300000D01*
X108660000Y-107630000D02*
X107330000Y-107630000D01*
X109930000Y-107630000D02*
X109930000Y-104970000D01*
X109930000Y-104970000D02*
X115070000Y-104970000D01*
X109930000Y-107630000D02*
X115070000Y-107630000D01*
X115070000Y-107630000D02*
X115070000Y-104970000D01*
X122670000Y-104030000D02*
X122670000Y-102700000D01*
X124000000Y-104030000D02*
X122670000Y-104030000D01*
X125270000Y-104030000D02*
X125270000Y-101370000D01*
X125270000Y-101370000D02*
X135490000Y-101370000D01*
X125270000Y-104030000D02*
X135490000Y-104030000D01*
X135490000Y-104030000D02*
X135490000Y-101370000D01*
X104670000Y-104030000D02*
X104670000Y-102700000D01*
X106000000Y-104030000D02*
X104670000Y-104030000D01*
X107270000Y-104030000D02*
X107270000Y-101370000D01*
X107270000Y-101370000D02*
X117490000Y-101370000D01*
X107270000Y-104030000D02*
X117490000Y-104030000D01*
X117490000Y-104030000D02*
X117490000Y-101370000D01*
D10*
X118350000Y-144200000D02*
X119100000Y-144200000D01*
D12*
X115600000Y-149700000D02*
X115600000Y-145200000D01*
X115600000Y-145200000D02*
X115600000Y-144700000D01*
X115600000Y-144700000D02*
X124600000Y-144700000D01*
X124600000Y-144700000D02*
X124600000Y-149700000D01*
D11*
X100700000Y-126640000D02*
X102030000Y-126640000D01*
X100700000Y-127970000D02*
X100700000Y-126640000D01*
X100700000Y-129240000D02*
X103360000Y-129240000D01*
X103360000Y-129240000D02*
X103360000Y-142000000D01*
X100700000Y-129240000D02*
X100700000Y-142000000D01*
X100700000Y-142000000D02*
X103360000Y-142000000D01*
X113352779Y-145440000D02*
X113027221Y-145440000D01*
X113352779Y-146460000D02*
X113027221Y-146460000D01*
X123490000Y-127925221D02*
X123490000Y-128250779D01*
X124510000Y-127925221D02*
X124510000Y-128250779D01*
X105360000Y-127819221D02*
X105360000Y-128144779D01*
X106380000Y-127819221D02*
X106380000Y-128144779D01*
X132287221Y-131050000D02*
X132612779Y-131050000D01*
X132287221Y-130030000D02*
X132612779Y-130030000D01*
X129514779Y-130020000D02*
X129189221Y-130020000D01*
X129514779Y-131040000D02*
X129189221Y-131040000D01*
X114127221Y-131080000D02*
X114452779Y-131080000D01*
X114127221Y-130060000D02*
X114452779Y-130060000D01*
X111384779Y-130060000D02*
X111059221Y-130060000D01*
X111384779Y-131080000D02*
X111059221Y-131080000D01*
X132305221Y-109480000D02*
X132630779Y-109480000D01*
X132305221Y-108460000D02*
X132630779Y-108460000D01*
X129544779Y-108440000D02*
X129219221Y-108440000D01*
X129544779Y-109460000D02*
X129219221Y-109460000D01*
X114347221Y-109460000D02*
X114672779Y-109460000D01*
X114347221Y-108440000D02*
X114672779Y-108440000D01*
X111584779Y-108430000D02*
X111259221Y-108430000D01*
X111584779Y-109450000D02*
X111259221Y-109450000D01*
X123470000Y-106325221D02*
X123470000Y-106650779D01*
X124490000Y-106325221D02*
X124490000Y-106650779D01*
X105490000Y-106249221D02*
X105490000Y-106574779D01*
X106510000Y-106249221D02*
X106510000Y-106574779D01*
X123349221Y-122110000D02*
X123674779Y-122110000D01*
X123349221Y-121090000D02*
X123674779Y-121090000D01*
X111696578Y-115990000D02*
X111179422Y-115990000D01*
X111696578Y-117410000D02*
X111179422Y-117410000D01*
X111472779Y-113310000D02*
X111147221Y-113310000D01*
X111472779Y-114330000D02*
X111147221Y-114330000D01*
X111460779Y-111710000D02*
X111135221Y-111710000D01*
X111460779Y-112730000D02*
X111135221Y-112730000D01*
X106176578Y-113340000D02*
X105659422Y-113340000D01*
X106176578Y-114760000D02*
X105659422Y-114760000D01*
X106262779Y-111650000D02*
X105937221Y-111650000D01*
X106262779Y-112670000D02*
X105937221Y-112670000D01*
X109410000Y-117374779D02*
X109410000Y-117049221D01*
X108390000Y-117374779D02*
X108390000Y-117049221D01*
X112104779Y-137990000D02*
X111779221Y-137990000D01*
X112104779Y-139010000D02*
X111779221Y-139010000D01*
X105679422Y-120510000D02*
X106196578Y-120510000D01*
X105679422Y-119090000D02*
X106196578Y-119090000D01*
X112104779Y-136420000D02*
X111779221Y-136420000D01*
X112104779Y-137440000D02*
X111779221Y-137440000D01*
D10*
X126378095Y-112892380D02*
X126378095Y-113701904D01*
X126425714Y-113797142D01*
X126473333Y-113844761D01*
X126568571Y-113892380D01*
X126759047Y-113892380D01*
X126854285Y-113844761D01*
X126901904Y-113797142D01*
X126949523Y-113701904D01*
X126949523Y-112892380D01*
X127901904Y-112892380D02*
X127425714Y-112892380D01*
X127378095Y-113368571D01*
X127425714Y-113320952D01*
X127520952Y-113273333D01*
X127759047Y-113273333D01*
X127854285Y-113320952D01*
X127901904Y-113368571D01*
X127949523Y-113463809D01*
X127949523Y-113701904D01*
X127901904Y-113797142D01*
X127854285Y-113844761D01*
X127759047Y-113892380D01*
X127520952Y-113892380D01*
X127425714Y-113844761D01*
X127378095Y-113797142D01*
X136956642Y-111957142D02*
X136909023Y-112004761D01*
X136766166Y-112052380D01*
X136670928Y-112052380D01*
X136528071Y-112004761D01*
X136432833Y-111909523D01*
X136385214Y-111814285D01*
X136337595Y-111623809D01*
X136337595Y-111480952D01*
X136385214Y-111290476D01*
X136432833Y-111195238D01*
X136528071Y-111100000D01*
X136670928Y-111052380D01*
X136766166Y-111052380D01*
X136909023Y-111100000D01*
X136956642Y-111147619D01*
X137909023Y-112052380D02*
X137337595Y-112052380D01*
X137623309Y-112052380D02*
X137623309Y-111052380D01*
X137528071Y-111195238D01*
X137432833Y-111290476D01*
X137337595Y-111338095D01*
X138813785Y-111052380D02*
X138337595Y-111052380D01*
X138289976Y-111528571D01*
X138337595Y-111480952D01*
X138432833Y-111433333D01*
X138670928Y-111433333D01*
X138766166Y-111480952D01*
X138813785Y-111528571D01*
X138861404Y-111623809D01*
X138861404Y-111861904D01*
X138813785Y-111957142D01*
X138766166Y-112004761D01*
X138670928Y-112052380D01*
X138432833Y-112052380D01*
X138337595Y-112004761D01*
X138289976Y-111957142D01*
X128057142Y-112257142D02*
X128009523Y-112304761D01*
X127866666Y-112352380D01*
X127771428Y-112352380D01*
X127628571Y-112304761D01*
X127533333Y-112209523D01*
X127485714Y-112114285D01*
X127438095Y-111923809D01*
X127438095Y-111780952D01*
X127485714Y-111590476D01*
X127533333Y-111495238D01*
X127628571Y-111400000D01*
X127771428Y-111352380D01*
X127866666Y-111352380D01*
X128009523Y-111400000D01*
X128057142Y-111447619D01*
X129009523Y-112352380D02*
X128438095Y-112352380D01*
X128723809Y-112352380D02*
X128723809Y-111352380D01*
X128628571Y-111495238D01*
X128533333Y-111590476D01*
X128438095Y-111638095D01*
X129390476Y-111447619D02*
X129438095Y-111400000D01*
X129533333Y-111352380D01*
X129771428Y-111352380D01*
X129866666Y-111400000D01*
X129914285Y-111447619D01*
X129961904Y-111542857D01*
X129961904Y-111638095D01*
X129914285Y-111780952D01*
X129342857Y-112352380D01*
X129961904Y-112352380D01*
X137297380Y-139874523D02*
X138011666Y-139874523D01*
X138154523Y-139922142D01*
X138249761Y-140017380D01*
X138297380Y-140160238D01*
X138297380Y-140255476D01*
X138297380Y-138874523D02*
X138297380Y-139445952D01*
X138297380Y-139160238D02*
X137297380Y-139160238D01*
X137440238Y-139255476D01*
X137535476Y-139350714D01*
X137583095Y-139445952D01*
X138297380Y-137922142D02*
X138297380Y-138493571D01*
X138297380Y-138207857D02*
X137297380Y-138207857D01*
X137440238Y-138303095D01*
X137535476Y-138398333D01*
X137583095Y-138493571D01*
X109861904Y-117852380D02*
X110433333Y-117852380D01*
X110147619Y-118852380D02*
X110147619Y-117852380D01*
X110766666Y-118852380D02*
X110766666Y-117852380D01*
X111147619Y-117852380D01*
X111242857Y-117900000D01*
X111290476Y-117947619D01*
X111338095Y-118042857D01*
X111338095Y-118185714D01*
X111290476Y-118280952D01*
X111242857Y-118328571D01*
X111147619Y-118376190D01*
X110766666Y-118376190D01*
X112290476Y-118852380D02*
X111719047Y-118852380D01*
X112004761Y-118852380D02*
X112004761Y-117852380D01*
X111909523Y-117995238D01*
X111814285Y-118090476D01*
X111719047Y-118138095D01*
X112861904Y-118280952D02*
X112766666Y-118233333D01*
X112719047Y-118185714D01*
X112671428Y-118090476D01*
X112671428Y-118042857D01*
X112719047Y-117947619D01*
X112766666Y-117900000D01*
X112861904Y-117852380D01*
X113052380Y-117852380D01*
X113147619Y-117900000D01*
X113195238Y-117947619D01*
X113242857Y-118042857D01*
X113242857Y-118090476D01*
X113195238Y-118185714D01*
X113147619Y-118233333D01*
X113052380Y-118280952D01*
X112861904Y-118280952D01*
X112766666Y-118328571D01*
X112719047Y-118376190D01*
X112671428Y-118471428D01*
X112671428Y-118661904D01*
X112719047Y-118757142D01*
X112766666Y-118804761D01*
X112861904Y-118852380D01*
X113052380Y-118852380D01*
X113147619Y-118804761D01*
X113195238Y-118757142D01*
X113242857Y-118661904D01*
X113242857Y-118471428D01*
X113195238Y-118376190D01*
X113147619Y-118328571D01*
X113052380Y-118280952D01*
X113861904Y-117452380D02*
X114433333Y-117452380D01*
X114147619Y-118452380D02*
X114147619Y-117452380D01*
X114766666Y-118452380D02*
X114766666Y-117452380D01*
X115147619Y-117452380D01*
X115242857Y-117500000D01*
X115290476Y-117547619D01*
X115338095Y-117642857D01*
X115338095Y-117785714D01*
X115290476Y-117880952D01*
X115242857Y-117928571D01*
X115147619Y-117976190D01*
X114766666Y-117976190D01*
X116290476Y-118452380D02*
X115719047Y-118452380D01*
X116004761Y-118452380D02*
X116004761Y-117452380D01*
X115909523Y-117595238D01*
X115814285Y-117690476D01*
X115719047Y-117738095D01*
X116623809Y-117452380D02*
X117290476Y-117452380D01*
X116861904Y-118452380D01*
X119372380Y-131353357D02*
X118896190Y-131686690D01*
X119372380Y-131924785D02*
X118372380Y-131924785D01*
X118372380Y-131543833D01*
X118420000Y-131448595D01*
X118467619Y-131400976D01*
X118562857Y-131353357D01*
X118705714Y-131353357D01*
X118800952Y-131400976D01*
X118848571Y-131448595D01*
X118896190Y-131543833D01*
X118896190Y-131924785D01*
X118372380Y-131020023D02*
X119372380Y-130353357D01*
X118372380Y-130353357D02*
X119372380Y-131020023D01*
X119372380Y-129448595D02*
X119372380Y-130020023D01*
X119372380Y-129734309D02*
X118372380Y-129734309D01*
X118515238Y-129829547D01*
X118610476Y-129924785D01*
X118658095Y-130020023D01*
X117702380Y-130404666D02*
X117226190Y-130738000D01*
X117702380Y-130976095D02*
X116702380Y-130976095D01*
X116702380Y-130595142D01*
X116750000Y-130499904D01*
X116797619Y-130452285D01*
X116892857Y-130404666D01*
X117035714Y-130404666D01*
X117130952Y-130452285D01*
X117178571Y-130499904D01*
X117226190Y-130595142D01*
X117226190Y-130976095D01*
X116702380Y-130071333D02*
X116702380Y-129452285D01*
X117083333Y-129785619D01*
X117083333Y-129642761D01*
X117130952Y-129547523D01*
X117178571Y-129499904D01*
X117273809Y-129452285D01*
X117511904Y-129452285D01*
X117607142Y-129499904D01*
X117654761Y-129547523D01*
X117702380Y-129642761D01*
X117702380Y-129928476D01*
X117654761Y-130023714D01*
X117607142Y-130071333D01*
X108333333Y-111252380D02*
X107857142Y-111252380D01*
X107857142Y-110252380D01*
X108619047Y-110347619D02*
X108666666Y-110300000D01*
X108761904Y-110252380D01*
X109000000Y-110252380D01*
X109095238Y-110300000D01*
X109142857Y-110347619D01*
X109190476Y-110442857D01*
X109190476Y-110538095D01*
X109142857Y-110680952D01*
X108571428Y-111252380D01*
X109190476Y-111252380D01*
X110583333Y-147992380D02*
X110107142Y-147992380D01*
X110107142Y-146992380D01*
X111440476Y-147992380D02*
X110869047Y-147992380D01*
X111154761Y-147992380D02*
X111154761Y-146992380D01*
X111059523Y-147135238D01*
X110964285Y-147230476D01*
X110869047Y-147278095D01*
X108815333Y-135507142D02*
X108767714Y-135554761D01*
X108624857Y-135602380D01*
X108529619Y-135602380D01*
X108386761Y-135554761D01*
X108291523Y-135459523D01*
X108243904Y-135364285D01*
X108196285Y-135173809D01*
X108196285Y-135030952D01*
X108243904Y-134840476D01*
X108291523Y-134745238D01*
X108386761Y-134650000D01*
X108529619Y-134602380D01*
X108624857Y-134602380D01*
X108767714Y-134650000D01*
X108815333Y-134697619D01*
X109148666Y-134602380D02*
X109767714Y-134602380D01*
X109434380Y-134983333D01*
X109577238Y-134983333D01*
X109672476Y-135030952D01*
X109720095Y-135078571D01*
X109767714Y-135173809D01*
X109767714Y-135411904D01*
X109720095Y-135507142D01*
X109672476Y-135554761D01*
X109577238Y-135602380D01*
X109291523Y-135602380D01*
X109196285Y-135554761D01*
X109148666Y-135507142D01*
X123882380Y-115391904D02*
X124691904Y-115391904D01*
X124787142Y-115344285D01*
X124834761Y-115296666D01*
X124882380Y-115201428D01*
X124882380Y-115010952D01*
X124834761Y-114915714D01*
X124787142Y-114868095D01*
X124691904Y-114820476D01*
X123882380Y-114820476D01*
X124215714Y-113915714D02*
X124882380Y-113915714D01*
X123834761Y-114153809D02*
X124549047Y-114391904D01*
X124549047Y-113772857D01*
X115948095Y-132062380D02*
X115948095Y-132871904D01*
X115995714Y-132967142D01*
X116043333Y-133014761D01*
X116138571Y-133062380D01*
X116329047Y-133062380D01*
X116424285Y-133014761D01*
X116471904Y-132967142D01*
X116519523Y-132871904D01*
X116519523Y-132062380D01*
X116900476Y-132062380D02*
X117519523Y-132062380D01*
X117186190Y-132443333D01*
X117329047Y-132443333D01*
X117424285Y-132490952D01*
X117471904Y-132538571D01*
X117519523Y-132633809D01*
X117519523Y-132871904D01*
X117471904Y-132967142D01*
X117424285Y-133014761D01*
X117329047Y-133062380D01*
X117043333Y-133062380D01*
X116948095Y-133014761D01*
X116900476Y-132967142D01*
X108747619Y-118938095D02*
X107938095Y-118938095D01*
X107842857Y-118985714D01*
X107795238Y-119033333D01*
X107747619Y-119128571D01*
X107747619Y-119319047D01*
X107795238Y-119414285D01*
X107842857Y-119461904D01*
X107938095Y-119509523D01*
X108747619Y-119509523D01*
X108652380Y-119938095D02*
X108700000Y-119985714D01*
X108747619Y-120080952D01*
X108747619Y-120319047D01*
X108700000Y-120414285D01*
X108652380Y-120461904D01*
X108557142Y-120509523D01*
X108461904Y-120509523D01*
X108319047Y-120461904D01*
X107747619Y-119890476D01*
X107747619Y-120509523D01*
X112038095Y-139752380D02*
X112038095Y-140561904D01*
X112085714Y-140657142D01*
X112133333Y-140704761D01*
X112228571Y-140752380D01*
X112419047Y-140752380D01*
X112514285Y-140704761D01*
X112561904Y-140657142D01*
X112609523Y-140561904D01*
X112609523Y-139752380D01*
X113609523Y-140752380D02*
X113038095Y-140752380D01*
X113323809Y-140752380D02*
X113323809Y-139752380D01*
X113228571Y-139895238D01*
X113133333Y-139990476D01*
X113038095Y-140038095D01*
X125647142Y-132412380D02*
X125313809Y-131936190D01*
X125075714Y-132412380D02*
X125075714Y-131412380D01*
X125456666Y-131412380D01*
X125551904Y-131460000D01*
X125599523Y-131507619D01*
X125647142Y-131602857D01*
X125647142Y-131745714D01*
X125599523Y-131840952D01*
X125551904Y-131888571D01*
X125456666Y-131936190D01*
X125075714Y-131936190D01*
X126599523Y-132412380D02*
X126028095Y-132412380D01*
X126313809Y-132412380D02*
X126313809Y-131412380D01*
X126218571Y-131555238D01*
X126123333Y-131650476D01*
X126028095Y-131698095D01*
X126980476Y-131507619D02*
X127028095Y-131460000D01*
X127123333Y-131412380D01*
X127361428Y-131412380D01*
X127456666Y-131460000D01*
X127504285Y-131507619D01*
X127551904Y-131602857D01*
X127551904Y-131698095D01*
X127504285Y-131840952D01*
X126932857Y-132412380D01*
X127551904Y-132412380D01*
X107547642Y-132322380D02*
X107214309Y-131846190D01*
X106976214Y-132322380D02*
X106976214Y-131322380D01*
X107357166Y-131322380D01*
X107452404Y-131370000D01*
X107500023Y-131417619D01*
X107547642Y-131512857D01*
X107547642Y-131655714D01*
X107500023Y-131750952D01*
X107452404Y-131798571D01*
X107357166Y-131846190D01*
X106976214Y-131846190D01*
X108500023Y-132322380D02*
X107928595Y-132322380D01*
X108214309Y-132322380D02*
X108214309Y-131322380D01*
X108119071Y-131465238D01*
X108023833Y-131560476D01*
X107928595Y-131608095D01*
X109452404Y-132322380D02*
X108880976Y-132322380D01*
X109166690Y-132322380D02*
X109166690Y-131322380D01*
X109071452Y-131465238D01*
X108976214Y-131560476D01*
X108880976Y-131608095D01*
X122657642Y-109352380D02*
X122324309Y-108876190D01*
X122086214Y-109352380D02*
X122086214Y-108352380D01*
X122467166Y-108352380D01*
X122562404Y-108400000D01*
X122610023Y-108447619D01*
X122657642Y-108542857D01*
X122657642Y-108685714D01*
X122610023Y-108780952D01*
X122562404Y-108828571D01*
X122467166Y-108876190D01*
X122086214Y-108876190D01*
X123610023Y-109352380D02*
X123038595Y-109352380D01*
X123324309Y-109352380D02*
X123324309Y-108352380D01*
X123229071Y-108495238D01*
X123133833Y-108590476D01*
X123038595Y-108638095D01*
X124229071Y-108352380D02*
X124324309Y-108352380D01*
X124419547Y-108400000D01*
X124467166Y-108447619D01*
X124514785Y-108542857D01*
X124562404Y-108733333D01*
X124562404Y-108971428D01*
X124514785Y-109161904D01*
X124467166Y-109257142D01*
X124419547Y-109304761D01*
X124324309Y-109352380D01*
X124229071Y-109352380D01*
X124133833Y-109304761D01*
X124086214Y-109257142D01*
X124038595Y-109161904D01*
X123990976Y-108971428D01*
X123990976Y-108733333D01*
X124038595Y-108542857D01*
X124086214Y-108447619D01*
X124133833Y-108400000D01*
X124229071Y-108352380D01*
X105633333Y-109452380D02*
X105300000Y-108976190D01*
X105061904Y-109452380D02*
X105061904Y-108452380D01*
X105442857Y-108452380D01*
X105538095Y-108500000D01*
X105585714Y-108547619D01*
X105633333Y-108642857D01*
X105633333Y-108785714D01*
X105585714Y-108880952D01*
X105538095Y-108928571D01*
X105442857Y-108976190D01*
X105061904Y-108976190D01*
X106109523Y-109452380D02*
X106300000Y-109452380D01*
X106395238Y-109404761D01*
X106442857Y-109357142D01*
X106538095Y-109214285D01*
X106585714Y-109023809D01*
X106585714Y-108642857D01*
X106538095Y-108547619D01*
X106490476Y-108500000D01*
X106395238Y-108452380D01*
X106204761Y-108452380D01*
X106109523Y-108500000D01*
X106061904Y-108547619D01*
X106014285Y-108642857D01*
X106014285Y-108880952D01*
X106061904Y-108976190D01*
X106109523Y-109023809D01*
X106204761Y-109071428D01*
X106395238Y-109071428D01*
X106490476Y-109023809D01*
X106538095Y-108976190D01*
X106585714Y-108880952D01*
X119152380Y-121766666D02*
X118676190Y-122100000D01*
X119152380Y-122338095D02*
X118152380Y-122338095D01*
X118152380Y-121957142D01*
X118200000Y-121861904D01*
X118247619Y-121814285D01*
X118342857Y-121766666D01*
X118485714Y-121766666D01*
X118580952Y-121814285D01*
X118628571Y-121861904D01*
X118676190Y-121957142D01*
X118676190Y-122338095D01*
X118580952Y-121195238D02*
X118533333Y-121290476D01*
X118485714Y-121338095D01*
X118390476Y-121385714D01*
X118342857Y-121385714D01*
X118247619Y-121338095D01*
X118200000Y-121290476D01*
X118152380Y-121195238D01*
X118152380Y-121004761D01*
X118200000Y-120909523D01*
X118247619Y-120861904D01*
X118342857Y-120814285D01*
X118390476Y-120814285D01*
X118485714Y-120861904D01*
X118533333Y-120909523D01*
X118580952Y-121004761D01*
X118580952Y-121195238D01*
X118628571Y-121290476D01*
X118676190Y-121338095D01*
X118771428Y-121385714D01*
X118961904Y-121385714D01*
X119057142Y-121338095D01*
X119104761Y-121290476D01*
X119152380Y-121195238D01*
X119152380Y-121004761D01*
X119104761Y-120909523D01*
X119057142Y-120861904D01*
X118961904Y-120814285D01*
X118771428Y-120814285D01*
X118676190Y-120861904D01*
X118628571Y-120909523D01*
X118580952Y-121004761D01*
X106413833Y-137962380D02*
X106080500Y-137486190D01*
X105842404Y-137962380D02*
X105842404Y-136962380D01*
X106223357Y-136962380D01*
X106318595Y-137010000D01*
X106366214Y-137057619D01*
X106413833Y-137152857D01*
X106413833Y-137295714D01*
X106366214Y-137390952D01*
X106318595Y-137438571D01*
X106223357Y-137486190D01*
X105842404Y-137486190D01*
X106794785Y-137057619D02*
X106842404Y-137010000D01*
X106937642Y-136962380D01*
X107175738Y-136962380D01*
X107270976Y-137010000D01*
X107318595Y-137057619D01*
X107366214Y-137152857D01*
X107366214Y-137248095D01*
X107318595Y-137390952D01*
X106747166Y-137962380D01*
X107366214Y-137962380D01*
X106453333Y-143272380D02*
X106120000Y-142796190D01*
X105881904Y-143272380D02*
X105881904Y-142272380D01*
X106262857Y-142272380D01*
X106358095Y-142320000D01*
X106405714Y-142367619D01*
X106453333Y-142462857D01*
X106453333Y-142605714D01*
X106405714Y-142700952D01*
X106358095Y-142748571D01*
X106262857Y-142796190D01*
X105881904Y-142796190D01*
X107405714Y-143272380D02*
X106834285Y-143272380D01*
X107120000Y-143272380D02*
X107120000Y-142272380D01*
X107024761Y-142415238D01*
X106929523Y-142510476D01*
X106834285Y-142558095D01*
X135652380Y-124909523D02*
X136366666Y-124909523D01*
X136509523Y-124957142D01*
X136604761Y-125052380D01*
X136652380Y-125195238D01*
X136652380Y-125290476D01*
X136652380Y-123909523D02*
X136652380Y-124480952D01*
X136652380Y-124195238D02*
X135652380Y-124195238D01*
X135795238Y-124290476D01*
X135890476Y-124385714D01*
X135938095Y-124480952D01*
X135652380Y-123290476D02*
X135652380Y-123195238D01*
X135700000Y-123100000D01*
X135747619Y-123052380D01*
X135842857Y-123004761D01*
X136033333Y-122957142D01*
X136271428Y-122957142D01*
X136461904Y-123004761D01*
X136557142Y-123052380D01*
X136604761Y-123100000D01*
X136652380Y-123195238D01*
X136652380Y-123290476D01*
X136604761Y-123385714D01*
X136557142Y-123433333D01*
X136461904Y-123480952D01*
X136271428Y-123528571D01*
X136033333Y-123528571D01*
X135842857Y-123480952D01*
X135747619Y-123433333D01*
X135700000Y-123385714D01*
X135652380Y-123290476D01*
X103052380Y-124633333D02*
X103766666Y-124633333D01*
X103909523Y-124680952D01*
X104004761Y-124776190D01*
X104052380Y-124919047D01*
X104052380Y-125014285D01*
X104052380Y-124109523D02*
X104052380Y-123919047D01*
X104004761Y-123823809D01*
X103957142Y-123776190D01*
X103814285Y-123680952D01*
X103623809Y-123633333D01*
X103242857Y-123633333D01*
X103147619Y-123680952D01*
X103100000Y-123728571D01*
X103052380Y-123823809D01*
X103052380Y-124014285D01*
X103100000Y-124109523D01*
X103147619Y-124157142D01*
X103242857Y-124204761D01*
X103480952Y-124204761D01*
X103576190Y-124157142D01*
X103623809Y-124109523D01*
X103671428Y-124014285D01*
X103671428Y-123823809D01*
X103623809Y-123728571D01*
X103576190Y-123680952D01*
X103480952Y-123633333D01*
X133702380Y-128383333D02*
X134416666Y-128383333D01*
X134559523Y-128430952D01*
X134654761Y-128526190D01*
X134702380Y-128669047D01*
X134702380Y-128764285D01*
X134130952Y-127764285D02*
X134083333Y-127859523D01*
X134035714Y-127907142D01*
X133940476Y-127954761D01*
X133892857Y-127954761D01*
X133797619Y-127907142D01*
X133750000Y-127859523D01*
X133702380Y-127764285D01*
X133702380Y-127573809D01*
X133750000Y-127478571D01*
X133797619Y-127430952D01*
X133892857Y-127383333D01*
X133940476Y-127383333D01*
X134035714Y-127430952D01*
X134083333Y-127478571D01*
X134130952Y-127573809D01*
X134130952Y-127764285D01*
X134178571Y-127859523D01*
X134226190Y-127907142D01*
X134321428Y-127954761D01*
X134511904Y-127954761D01*
X134607142Y-127907142D01*
X134654761Y-127859523D01*
X134702380Y-127764285D01*
X134702380Y-127573809D01*
X134654761Y-127478571D01*
X134607142Y-127430952D01*
X134511904Y-127383333D01*
X134321428Y-127383333D01*
X134226190Y-127430952D01*
X134178571Y-127478571D01*
X134130952Y-127573809D01*
X115392380Y-128373333D02*
X116106666Y-128373333D01*
X116249523Y-128420952D01*
X116344761Y-128516190D01*
X116392380Y-128659047D01*
X116392380Y-128754285D01*
X115392380Y-127992380D02*
X115392380Y-127325714D01*
X116392380Y-127754285D01*
X133702380Y-106783333D02*
X134416666Y-106783333D01*
X134559523Y-106830952D01*
X134654761Y-106926190D01*
X134702380Y-107069047D01*
X134702380Y-107164285D01*
X133702380Y-105878571D02*
X133702380Y-106069047D01*
X133750000Y-106164285D01*
X133797619Y-106211904D01*
X133940476Y-106307142D01*
X134130952Y-106354761D01*
X134511904Y-106354761D01*
X134607142Y-106307142D01*
X134654761Y-106259523D01*
X134702380Y-106164285D01*
X134702380Y-105973809D01*
X134654761Y-105878571D01*
X134607142Y-105830952D01*
X134511904Y-105783333D01*
X134273809Y-105783333D01*
X134178571Y-105830952D01*
X134130952Y-105878571D01*
X134083333Y-105973809D01*
X134083333Y-106164285D01*
X134130952Y-106259523D01*
X134178571Y-106307142D01*
X134273809Y-106354761D01*
X115702380Y-106633333D02*
X116416666Y-106633333D01*
X116559523Y-106680952D01*
X116654761Y-106776190D01*
X116702380Y-106919047D01*
X116702380Y-107014285D01*
X115702380Y-105680952D02*
X115702380Y-106157142D01*
X116178571Y-106204761D01*
X116130952Y-106157142D01*
X116083333Y-106061904D01*
X116083333Y-105823809D01*
X116130952Y-105728571D01*
X116178571Y-105680952D01*
X116273809Y-105633333D01*
X116511904Y-105633333D01*
X116607142Y-105680952D01*
X116654761Y-105728571D01*
X116702380Y-105823809D01*
X116702380Y-106061904D01*
X116654761Y-106157142D01*
X116607142Y-106204761D01*
X136202380Y-103033333D02*
X136916666Y-103033333D01*
X137059523Y-103080952D01*
X137154761Y-103176190D01*
X137202380Y-103319047D01*
X137202380Y-103414285D01*
X136535714Y-102128571D02*
X137202380Y-102128571D01*
X136154761Y-102366666D02*
X136869047Y-102604761D01*
X136869047Y-101985714D01*
X118202380Y-103033333D02*
X118916666Y-103033333D01*
X119059523Y-103080952D01*
X119154761Y-103176190D01*
X119202380Y-103319047D01*
X119202380Y-103414285D01*
X118202380Y-102652380D02*
X118202380Y-102033333D01*
X118583333Y-102366666D01*
X118583333Y-102223809D01*
X118630952Y-102128571D01*
X118678571Y-102080952D01*
X118773809Y-102033333D01*
X119011904Y-102033333D01*
X119107142Y-102080952D01*
X119154761Y-102128571D01*
X119202380Y-102223809D01*
X119202380Y-102509523D01*
X119154761Y-102604761D01*
X119107142Y-102652380D01*
X119833333Y-148261904D02*
X119833333Y-148833333D01*
X119795238Y-148947619D01*
X119719047Y-149023809D01*
X119604761Y-149061904D01*
X119528571Y-149061904D01*
X120176190Y-148338095D02*
X120214285Y-148300000D01*
X120290476Y-148261904D01*
X120480952Y-148261904D01*
X120557142Y-148300000D01*
X120595238Y-148338095D01*
X120633333Y-148414285D01*
X120633333Y-148490476D01*
X120595238Y-148604761D01*
X120138095Y-149061904D01*
X120633333Y-149061904D01*
X101696666Y-125092380D02*
X101696666Y-125806666D01*
X101649047Y-125949523D01*
X101553809Y-126044761D01*
X101410952Y-126092380D01*
X101315714Y-126092380D01*
X102696666Y-126092380D02*
X102125238Y-126092380D01*
X102410952Y-126092380D02*
X102410952Y-125092380D01*
X102315714Y-125235238D01*
X102220476Y-125330476D01*
X102125238Y-125378095D01*
X110356666Y-145878571D02*
X110023333Y-145878571D01*
X110023333Y-146402380D02*
X110023333Y-145402380D01*
X110499523Y-145402380D01*
X111404285Y-146402380D02*
X110832857Y-146402380D01*
X111118571Y-146402380D02*
X111118571Y-145402380D01*
X111023333Y-145545238D01*
X110928095Y-145640476D01*
X110832857Y-145688095D01*
X122857142Y-128693357D02*
X122904761Y-128740976D01*
X122952380Y-128883833D01*
X122952380Y-128979071D01*
X122904761Y-129121928D01*
X122809523Y-129217166D01*
X122714285Y-129264785D01*
X122523809Y-129312404D01*
X122380952Y-129312404D01*
X122190476Y-129264785D01*
X122095238Y-129217166D01*
X122000000Y-129121928D01*
X121952380Y-128979071D01*
X121952380Y-128883833D01*
X122000000Y-128740976D01*
X122047619Y-128693357D01*
X122047619Y-128312404D02*
X122000000Y-128264785D01*
X121952380Y-128169547D01*
X121952380Y-127931452D01*
X122000000Y-127836214D01*
X122047619Y-127788595D01*
X122142857Y-127740976D01*
X122238095Y-127740976D01*
X122380952Y-127788595D01*
X122952380Y-128360023D01*
X122952380Y-127740976D01*
X122952380Y-127264785D02*
X122952380Y-127074309D01*
X122904761Y-126979071D01*
X122857142Y-126931452D01*
X122714285Y-126836214D01*
X122523809Y-126788595D01*
X122142857Y-126788595D01*
X122047619Y-126836214D01*
X122000000Y-126883833D01*
X121952380Y-126979071D01*
X121952380Y-127169547D01*
X122000000Y-127264785D01*
X122047619Y-127312404D01*
X122142857Y-127360023D01*
X122380952Y-127360023D01*
X122476190Y-127312404D01*
X122523809Y-127264785D01*
X122571428Y-127169547D01*
X122571428Y-126979071D01*
X122523809Y-126883833D01*
X122476190Y-126836214D01*
X122380952Y-126788595D01*
X106127142Y-131574857D02*
X106174761Y-131622476D01*
X106222380Y-131765333D01*
X106222380Y-131860571D01*
X106174761Y-132003428D01*
X106079523Y-132098666D01*
X105984285Y-132146285D01*
X105793809Y-132193904D01*
X105650952Y-132193904D01*
X105460476Y-132146285D01*
X105365238Y-132098666D01*
X105270000Y-132003428D01*
X105222380Y-131860571D01*
X105222380Y-131765333D01*
X105270000Y-131622476D01*
X105317619Y-131574857D01*
X105317619Y-131193904D02*
X105270000Y-131146285D01*
X105222380Y-131051047D01*
X105222380Y-130812952D01*
X105270000Y-130717714D01*
X105317619Y-130670095D01*
X105412857Y-130622476D01*
X105508095Y-130622476D01*
X105650952Y-130670095D01*
X106222380Y-131241523D01*
X106222380Y-130622476D01*
X105650952Y-130051047D02*
X105603333Y-130146285D01*
X105555714Y-130193904D01*
X105460476Y-130241523D01*
X105412857Y-130241523D01*
X105317619Y-130193904D01*
X105270000Y-130146285D01*
X105222380Y-130051047D01*
X105222380Y-129860571D01*
X105270000Y-129765333D01*
X105317619Y-129717714D01*
X105412857Y-129670095D01*
X105460476Y-129670095D01*
X105555714Y-129717714D01*
X105603333Y-129765333D01*
X105650952Y-129860571D01*
X105650952Y-130051047D01*
X105698571Y-130146285D01*
X105746190Y-130193904D01*
X105841428Y-130241523D01*
X106031904Y-130241523D01*
X106127142Y-130193904D01*
X106174761Y-130146285D01*
X106222380Y-130051047D01*
X106222380Y-129860571D01*
X106174761Y-129765333D01*
X106127142Y-129717714D01*
X106031904Y-129670095D01*
X105841428Y-129670095D01*
X105746190Y-129717714D01*
X105698571Y-129765333D01*
X105650952Y-129860571D01*
X131687142Y-132357142D02*
X131639523Y-132404761D01*
X131496666Y-132452380D01*
X131401428Y-132452380D01*
X131258571Y-132404761D01*
X131163333Y-132309523D01*
X131115714Y-132214285D01*
X131068095Y-132023809D01*
X131068095Y-131880952D01*
X131115714Y-131690476D01*
X131163333Y-131595238D01*
X131258571Y-131500000D01*
X131401428Y-131452380D01*
X131496666Y-131452380D01*
X131639523Y-131500000D01*
X131687142Y-131547619D01*
X132068095Y-131547619D02*
X132115714Y-131500000D01*
X132210952Y-131452380D01*
X132449047Y-131452380D01*
X132544285Y-131500000D01*
X132591904Y-131547619D01*
X132639523Y-131642857D01*
X132639523Y-131738095D01*
X132591904Y-131880952D01*
X132020476Y-132452380D01*
X132639523Y-132452380D01*
X132972857Y-131452380D02*
X133639523Y-131452380D01*
X133210952Y-132452380D01*
X128776642Y-132347142D02*
X128729023Y-132394761D01*
X128586166Y-132442380D01*
X128490928Y-132442380D01*
X128348071Y-132394761D01*
X128252833Y-132299523D01*
X128205214Y-132204285D01*
X128157595Y-132013809D01*
X128157595Y-131870952D01*
X128205214Y-131680476D01*
X128252833Y-131585238D01*
X128348071Y-131490000D01*
X128490928Y-131442380D01*
X128586166Y-131442380D01*
X128729023Y-131490000D01*
X128776642Y-131537619D01*
X129157595Y-131537619D02*
X129205214Y-131490000D01*
X129300452Y-131442380D01*
X129538547Y-131442380D01*
X129633785Y-131490000D01*
X129681404Y-131537619D01*
X129729023Y-131632857D01*
X129729023Y-131728095D01*
X129681404Y-131870952D01*
X129109976Y-132442380D01*
X129729023Y-132442380D01*
X130586166Y-131442380D02*
X130395690Y-131442380D01*
X130300452Y-131490000D01*
X130252833Y-131537619D01*
X130157595Y-131680476D01*
X130109976Y-131870952D01*
X130109976Y-132251904D01*
X130157595Y-132347142D01*
X130205214Y-132394761D01*
X130300452Y-132442380D01*
X130490928Y-132442380D01*
X130586166Y-132394761D01*
X130633785Y-132347142D01*
X130681404Y-132251904D01*
X130681404Y-132013809D01*
X130633785Y-131918571D01*
X130586166Y-131870952D01*
X130490928Y-131823333D01*
X130300452Y-131823333D01*
X130205214Y-131870952D01*
X130157595Y-131918571D01*
X130109976Y-132013809D01*
X113577142Y-132357142D02*
X113529523Y-132404761D01*
X113386666Y-132452380D01*
X113291428Y-132452380D01*
X113148571Y-132404761D01*
X113053333Y-132309523D01*
X113005714Y-132214285D01*
X112958095Y-132023809D01*
X112958095Y-131880952D01*
X113005714Y-131690476D01*
X113053333Y-131595238D01*
X113148571Y-131500000D01*
X113291428Y-131452380D01*
X113386666Y-131452380D01*
X113529523Y-131500000D01*
X113577142Y-131547619D01*
X113958095Y-131547619D02*
X114005714Y-131500000D01*
X114100952Y-131452380D01*
X114339047Y-131452380D01*
X114434285Y-131500000D01*
X114481904Y-131547619D01*
X114529523Y-131642857D01*
X114529523Y-131738095D01*
X114481904Y-131880952D01*
X113910476Y-132452380D01*
X114529523Y-132452380D01*
X115434285Y-131452380D02*
X114958095Y-131452380D01*
X114910476Y-131928571D01*
X114958095Y-131880952D01*
X115053333Y-131833333D01*
X115291428Y-131833333D01*
X115386666Y-131880952D01*
X115434285Y-131928571D01*
X115481904Y-132023809D01*
X115481904Y-132261904D01*
X115434285Y-132357142D01*
X115386666Y-132404761D01*
X115291428Y-132452380D01*
X115053333Y-132452380D01*
X114958095Y-132404761D01*
X114910476Y-132357142D01*
X110516642Y-132327142D02*
X110469023Y-132374761D01*
X110326166Y-132422380D01*
X110230928Y-132422380D01*
X110088071Y-132374761D01*
X109992833Y-132279523D01*
X109945214Y-132184285D01*
X109897595Y-131993809D01*
X109897595Y-131850952D01*
X109945214Y-131660476D01*
X109992833Y-131565238D01*
X110088071Y-131470000D01*
X110230928Y-131422380D01*
X110326166Y-131422380D01*
X110469023Y-131470000D01*
X110516642Y-131517619D01*
X110897595Y-131517619D02*
X110945214Y-131470000D01*
X111040452Y-131422380D01*
X111278547Y-131422380D01*
X111373785Y-131470000D01*
X111421404Y-131517619D01*
X111469023Y-131612857D01*
X111469023Y-131708095D01*
X111421404Y-131850952D01*
X110849976Y-132422380D01*
X111469023Y-132422380D01*
X112326166Y-131755714D02*
X112326166Y-132422380D01*
X112088071Y-131374761D02*
X111849976Y-132089047D01*
X112469023Y-132089047D01*
X134757642Y-109357142D02*
X134710023Y-109404761D01*
X134567166Y-109452380D01*
X134471928Y-109452380D01*
X134329071Y-109404761D01*
X134233833Y-109309523D01*
X134186214Y-109214285D01*
X134138595Y-109023809D01*
X134138595Y-108880952D01*
X134186214Y-108690476D01*
X134233833Y-108595238D01*
X134329071Y-108500000D01*
X134471928Y-108452380D01*
X134567166Y-108452380D01*
X134710023Y-108500000D01*
X134757642Y-108547619D01*
X135138595Y-108547619D02*
X135186214Y-108500000D01*
X135281452Y-108452380D01*
X135519547Y-108452380D01*
X135614785Y-108500000D01*
X135662404Y-108547619D01*
X135710023Y-108642857D01*
X135710023Y-108738095D01*
X135662404Y-108880952D01*
X135090976Y-109452380D01*
X135710023Y-109452380D01*
X136043357Y-108452380D02*
X136662404Y-108452380D01*
X136329071Y-108833333D01*
X136471928Y-108833333D01*
X136567166Y-108880952D01*
X136614785Y-108928571D01*
X136662404Y-109023809D01*
X136662404Y-109261904D01*
X136614785Y-109357142D01*
X136567166Y-109404761D01*
X136471928Y-109452380D01*
X136186214Y-109452380D01*
X136090976Y-109404761D01*
X136043357Y-109357142D01*
X127456642Y-110757142D02*
X127409023Y-110804761D01*
X127266166Y-110852380D01*
X127170928Y-110852380D01*
X127028071Y-110804761D01*
X126932833Y-110709523D01*
X126885214Y-110614285D01*
X126837595Y-110423809D01*
X126837595Y-110280952D01*
X126885214Y-110090476D01*
X126932833Y-109995238D01*
X127028071Y-109900000D01*
X127170928Y-109852380D01*
X127266166Y-109852380D01*
X127409023Y-109900000D01*
X127456642Y-109947619D01*
X127837595Y-109947619D02*
X127885214Y-109900000D01*
X127980452Y-109852380D01*
X128218547Y-109852380D01*
X128313785Y-109900000D01*
X128361404Y-109947619D01*
X128409023Y-110042857D01*
X128409023Y-110138095D01*
X128361404Y-110280952D01*
X127789976Y-110852380D01*
X128409023Y-110852380D01*
X128789976Y-109947619D02*
X128837595Y-109900000D01*
X128932833Y-109852380D01*
X129170928Y-109852380D01*
X129266166Y-109900000D01*
X129313785Y-109947619D01*
X129361404Y-110042857D01*
X129361404Y-110138095D01*
X129313785Y-110280952D01*
X128742357Y-110852380D01*
X129361404Y-110852380D01*
X113867142Y-110727142D02*
X113819523Y-110774761D01*
X113676666Y-110822380D01*
X113581428Y-110822380D01*
X113438571Y-110774761D01*
X113343333Y-110679523D01*
X113295714Y-110584285D01*
X113248095Y-110393809D01*
X113248095Y-110250952D01*
X113295714Y-110060476D01*
X113343333Y-109965238D01*
X113438571Y-109870000D01*
X113581428Y-109822380D01*
X113676666Y-109822380D01*
X113819523Y-109870000D01*
X113867142Y-109917619D01*
X114248095Y-109917619D02*
X114295714Y-109870000D01*
X114390952Y-109822380D01*
X114629047Y-109822380D01*
X114724285Y-109870000D01*
X114771904Y-109917619D01*
X114819523Y-110012857D01*
X114819523Y-110108095D01*
X114771904Y-110250952D01*
X114200476Y-110822380D01*
X114819523Y-110822380D01*
X115771904Y-110822380D02*
X115200476Y-110822380D01*
X115486190Y-110822380D02*
X115486190Y-109822380D01*
X115390952Y-109965238D01*
X115295714Y-110060476D01*
X115200476Y-110108095D01*
X110696642Y-110727142D02*
X110649023Y-110774761D01*
X110506166Y-110822380D01*
X110410928Y-110822380D01*
X110268071Y-110774761D01*
X110172833Y-110679523D01*
X110125214Y-110584285D01*
X110077595Y-110393809D01*
X110077595Y-110250952D01*
X110125214Y-110060476D01*
X110172833Y-109965238D01*
X110268071Y-109870000D01*
X110410928Y-109822380D01*
X110506166Y-109822380D01*
X110649023Y-109870000D01*
X110696642Y-109917619D01*
X111077595Y-109917619D02*
X111125214Y-109870000D01*
X111220452Y-109822380D01*
X111458547Y-109822380D01*
X111553785Y-109870000D01*
X111601404Y-109917619D01*
X111649023Y-110012857D01*
X111649023Y-110108095D01*
X111601404Y-110250952D01*
X111029976Y-110822380D01*
X111649023Y-110822380D01*
X112268071Y-109822380D02*
X112363309Y-109822380D01*
X112458547Y-109870000D01*
X112506166Y-109917619D01*
X112553785Y-110012857D01*
X112601404Y-110203333D01*
X112601404Y-110441428D01*
X112553785Y-110631904D01*
X112506166Y-110727142D01*
X112458547Y-110774761D01*
X112363309Y-110822380D01*
X112268071Y-110822380D01*
X112172833Y-110774761D01*
X112125214Y-110727142D01*
X112077595Y-110631904D01*
X112029976Y-110441428D01*
X112029976Y-110203333D01*
X112077595Y-110012857D01*
X112125214Y-109917619D01*
X112172833Y-109870000D01*
X112268071Y-109822380D01*
X122837142Y-107130857D02*
X122884761Y-107178476D01*
X122932380Y-107321333D01*
X122932380Y-107416571D01*
X122884761Y-107559428D01*
X122789523Y-107654666D01*
X122694285Y-107702285D01*
X122503809Y-107749904D01*
X122360952Y-107749904D01*
X122170476Y-107702285D01*
X122075238Y-107654666D01*
X121980000Y-107559428D01*
X121932380Y-107416571D01*
X121932380Y-107321333D01*
X121980000Y-107178476D01*
X122027619Y-107130857D01*
X122932380Y-106178476D02*
X122932380Y-106749904D01*
X122932380Y-106464190D02*
X121932380Y-106464190D01*
X122075238Y-106559428D01*
X122170476Y-106654666D01*
X122218095Y-106749904D01*
X122265714Y-105321333D02*
X122932380Y-105321333D01*
X121884761Y-105559428D02*
X122599047Y-105797523D01*
X122599047Y-105178476D01*
X105107142Y-107054857D02*
X105154761Y-107102476D01*
X105202380Y-107245333D01*
X105202380Y-107340571D01*
X105154761Y-107483428D01*
X105059523Y-107578666D01*
X104964285Y-107626285D01*
X104773809Y-107673904D01*
X104630952Y-107673904D01*
X104440476Y-107626285D01*
X104345238Y-107578666D01*
X104250000Y-107483428D01*
X104202380Y-107340571D01*
X104202380Y-107245333D01*
X104250000Y-107102476D01*
X104297619Y-107054857D01*
X105202380Y-106102476D02*
X105202380Y-106673904D01*
X105202380Y-106388190D02*
X104202380Y-106388190D01*
X104345238Y-106483428D01*
X104440476Y-106578666D01*
X104488095Y-106673904D01*
X104202380Y-105769142D02*
X104202380Y-105150095D01*
X104583333Y-105483428D01*
X104583333Y-105340571D01*
X104630952Y-105245333D01*
X104678571Y-105197714D01*
X104773809Y-105150095D01*
X105011904Y-105150095D01*
X105107142Y-105197714D01*
X105154761Y-105245333D01*
X105202380Y-105340571D01*
X105202380Y-105626285D01*
X105154761Y-105721523D01*
X105107142Y-105769142D01*
X122681642Y-120557142D02*
X122634023Y-120604761D01*
X122491166Y-120652380D01*
X122395928Y-120652380D01*
X122253071Y-120604761D01*
X122157833Y-120509523D01*
X122110214Y-120414285D01*
X122062595Y-120223809D01*
X122062595Y-120080952D01*
X122110214Y-119890476D01*
X122157833Y-119795238D01*
X122253071Y-119700000D01*
X122395928Y-119652380D01*
X122491166Y-119652380D01*
X122634023Y-119700000D01*
X122681642Y-119747619D01*
X123634023Y-120652380D02*
X123062595Y-120652380D01*
X123348309Y-120652380D02*
X123348309Y-119652380D01*
X123253071Y-119795238D01*
X123157833Y-119890476D01*
X123062595Y-119938095D01*
X124586404Y-120652380D02*
X124014976Y-120652380D01*
X124300690Y-120652380D02*
X124300690Y-119652380D01*
X124205452Y-119795238D01*
X124110214Y-119890476D01*
X124014976Y-119938095D01*
X113857642Y-117157142D02*
X113810023Y-117204761D01*
X113667166Y-117252380D01*
X113571928Y-117252380D01*
X113429071Y-117204761D01*
X113333833Y-117109523D01*
X113286214Y-117014285D01*
X113238595Y-116823809D01*
X113238595Y-116680952D01*
X113286214Y-116490476D01*
X113333833Y-116395238D01*
X113429071Y-116300000D01*
X113571928Y-116252380D01*
X113667166Y-116252380D01*
X113810023Y-116300000D01*
X113857642Y-116347619D01*
X114810023Y-117252380D02*
X114238595Y-117252380D01*
X114524309Y-117252380D02*
X114524309Y-116252380D01*
X114429071Y-116395238D01*
X114333833Y-116490476D01*
X114238595Y-116538095D01*
X115429071Y-116252380D02*
X115524309Y-116252380D01*
X115619547Y-116300000D01*
X115667166Y-116347619D01*
X115714785Y-116442857D01*
X115762404Y-116633333D01*
X115762404Y-116871428D01*
X115714785Y-117061904D01*
X115667166Y-117157142D01*
X115619547Y-117204761D01*
X115524309Y-117252380D01*
X115429071Y-117252380D01*
X115333833Y-117204761D01*
X115286214Y-117157142D01*
X115238595Y-117061904D01*
X115190976Y-116871428D01*
X115190976Y-116633333D01*
X115238595Y-116442857D01*
X115286214Y-116347619D01*
X115333833Y-116300000D01*
X115429071Y-116252380D01*
X113633333Y-114257142D02*
X113585714Y-114304761D01*
X113442857Y-114352380D01*
X113347619Y-114352380D01*
X113204761Y-114304761D01*
X113109523Y-114209523D01*
X113061904Y-114114285D01*
X113014285Y-113923809D01*
X113014285Y-113780952D01*
X113061904Y-113590476D01*
X113109523Y-113495238D01*
X113204761Y-113400000D01*
X113347619Y-113352380D01*
X113442857Y-113352380D01*
X113585714Y-113400000D01*
X113633333Y-113447619D01*
X114109523Y-114352380D02*
X114300000Y-114352380D01*
X114395238Y-114304761D01*
X114442857Y-114257142D01*
X114538095Y-114114285D01*
X114585714Y-113923809D01*
X114585714Y-113542857D01*
X114538095Y-113447619D01*
X114490476Y-113400000D01*
X114395238Y-113352380D01*
X114204761Y-113352380D01*
X114109523Y-113400000D01*
X114061904Y-113447619D01*
X114014285Y-113542857D01*
X114014285Y-113780952D01*
X114061904Y-113876190D01*
X114109523Y-113923809D01*
X114204761Y-113971428D01*
X114395238Y-113971428D01*
X114490476Y-113923809D01*
X114538095Y-113876190D01*
X114585714Y-113780952D01*
X113533833Y-112657142D02*
X113486214Y-112704761D01*
X113343357Y-112752380D01*
X113248119Y-112752380D01*
X113105261Y-112704761D01*
X113010023Y-112609523D01*
X112962404Y-112514285D01*
X112914785Y-112323809D01*
X112914785Y-112180952D01*
X112962404Y-111990476D01*
X113010023Y-111895238D01*
X113105261Y-111800000D01*
X113248119Y-111752380D01*
X113343357Y-111752380D01*
X113486214Y-111800000D01*
X113533833Y-111847619D01*
X114105261Y-112180952D02*
X114010023Y-112133333D01*
X113962404Y-112085714D01*
X113914785Y-111990476D01*
X113914785Y-111942857D01*
X113962404Y-111847619D01*
X114010023Y-111800000D01*
X114105261Y-111752380D01*
X114295738Y-111752380D01*
X114390976Y-111800000D01*
X114438595Y-111847619D01*
X114486214Y-111942857D01*
X114486214Y-111990476D01*
X114438595Y-112085714D01*
X114390976Y-112133333D01*
X114295738Y-112180952D01*
X114105261Y-112180952D01*
X114010023Y-112228571D01*
X113962404Y-112276190D01*
X113914785Y-112371428D01*
X113914785Y-112561904D01*
X113962404Y-112657142D01*
X114010023Y-112704761D01*
X114105261Y-112752380D01*
X114295738Y-112752380D01*
X114390976Y-112704761D01*
X114438595Y-112657142D01*
X114486214Y-112561904D01*
X114486214Y-112371428D01*
X114438595Y-112276190D01*
X114390976Y-112228571D01*
X114295738Y-112180952D01*
X108533333Y-115457142D02*
X108485714Y-115504761D01*
X108342857Y-115552380D01*
X108247619Y-115552380D01*
X108104761Y-115504761D01*
X108009523Y-115409523D01*
X107961904Y-115314285D01*
X107914285Y-115123809D01*
X107914285Y-114980952D01*
X107961904Y-114790476D01*
X108009523Y-114695238D01*
X108104761Y-114600000D01*
X108247619Y-114552380D01*
X108342857Y-114552380D01*
X108485714Y-114600000D01*
X108533333Y-114647619D01*
X108866666Y-114552380D02*
X109533333Y-114552380D01*
X109104761Y-115552380D01*
X106033333Y-111157142D02*
X105985714Y-111204761D01*
X105842857Y-111252380D01*
X105747619Y-111252380D01*
X105604761Y-111204761D01*
X105509523Y-111109523D01*
X105461904Y-111014285D01*
X105414285Y-110823809D01*
X105414285Y-110680952D01*
X105461904Y-110490476D01*
X105509523Y-110395238D01*
X105604761Y-110300000D01*
X105747619Y-110252380D01*
X105842857Y-110252380D01*
X105985714Y-110300000D01*
X106033333Y-110347619D01*
X106890476Y-110252380D02*
X106700000Y-110252380D01*
X106604761Y-110300000D01*
X106557142Y-110347619D01*
X106461904Y-110490476D01*
X106414285Y-110680952D01*
X106414285Y-111061904D01*
X106461904Y-111157142D01*
X106509523Y-111204761D01*
X106604761Y-111252380D01*
X106795238Y-111252380D01*
X106890476Y-111204761D01*
X106938095Y-111157142D01*
X106985714Y-111061904D01*
X106985714Y-110823809D01*
X106938095Y-110728571D01*
X106890476Y-110680952D01*
X106795238Y-110633333D01*
X106604761Y-110633333D01*
X106509523Y-110680952D01*
X106461904Y-110728571D01*
X106414285Y-110823809D01*
X109957142Y-119766166D02*
X110004761Y-119813785D01*
X110052380Y-119956642D01*
X110052380Y-120051880D01*
X110004761Y-120194738D01*
X109909523Y-120289976D01*
X109814285Y-120337595D01*
X109623809Y-120385214D01*
X109480952Y-120385214D01*
X109290476Y-120337595D01*
X109195238Y-120289976D01*
X109100000Y-120194738D01*
X109052380Y-120051880D01*
X109052380Y-119956642D01*
X109100000Y-119813785D01*
X109147619Y-119766166D01*
X109052380Y-118861404D02*
X109052380Y-119337595D01*
X109528571Y-119385214D01*
X109480952Y-119337595D01*
X109433333Y-119242357D01*
X109433333Y-119004261D01*
X109480952Y-118909023D01*
X109528571Y-118861404D01*
X109623809Y-118813785D01*
X109861904Y-118813785D01*
X109957142Y-118861404D01*
X110004761Y-118909023D01*
X110052380Y-119004261D01*
X110052380Y-119242357D01*
X110004761Y-119337595D01*
X109957142Y-119385214D01*
X109262833Y-138857142D02*
X109215214Y-138904761D01*
X109072357Y-138952380D01*
X108977119Y-138952380D01*
X108834261Y-138904761D01*
X108739023Y-138809523D01*
X108691404Y-138714285D01*
X108643785Y-138523809D01*
X108643785Y-138380952D01*
X108691404Y-138190476D01*
X108739023Y-138095238D01*
X108834261Y-138000000D01*
X108977119Y-137952380D01*
X109072357Y-137952380D01*
X109215214Y-138000000D01*
X109262833Y-138047619D01*
X110119976Y-138285714D02*
X110119976Y-138952380D01*
X109881880Y-137904761D02*
X109643785Y-138619047D01*
X110262833Y-138619047D01*
X105711333Y-121847142D02*
X105663714Y-121894761D01*
X105520857Y-121942380D01*
X105425619Y-121942380D01*
X105282761Y-121894761D01*
X105187523Y-121799523D01*
X105139904Y-121704285D01*
X105092285Y-121513809D01*
X105092285Y-121370952D01*
X105139904Y-121180476D01*
X105187523Y-121085238D01*
X105282761Y-120990000D01*
X105425619Y-120942380D01*
X105520857Y-120942380D01*
X105663714Y-120990000D01*
X105711333Y-121037619D01*
X106092285Y-121037619D02*
X106139904Y-120990000D01*
X106235142Y-120942380D01*
X106473238Y-120942380D01*
X106568476Y-120990000D01*
X106616095Y-121037619D01*
X106663714Y-121132857D01*
X106663714Y-121228095D01*
X106616095Y-121370952D01*
X106044666Y-121942380D01*
X106663714Y-121942380D01*
X109375333Y-137287142D02*
X109327714Y-137334761D01*
X109184857Y-137382380D01*
X109089619Y-137382380D01*
X108946761Y-137334761D01*
X108851523Y-137239523D01*
X108803904Y-137144285D01*
X108756285Y-136953809D01*
X108756285Y-136810952D01*
X108803904Y-136620476D01*
X108851523Y-136525238D01*
X108946761Y-136430000D01*
X109089619Y-136382380D01*
X109184857Y-136382380D01*
X109327714Y-136430000D01*
X109375333Y-136477619D01*
X110327714Y-137382380D02*
X109756285Y-137382380D01*
X110042000Y-137382380D02*
X110042000Y-136382380D01*
X109946761Y-136525238D01*
X109851523Y-136620476D01*
X109756285Y-136668095D01*
M02*
