M48
; DRILL file {KiCad (5.1.2)-1} date 2020/05/27 18:22:05
; FORMAT={-:-/ absolute / metric / decimal}
; #@! TF.CreationDate,2020-05-27T18:22:05+09:00
; #@! TF.GenerationSoftware,Kicad,Pcbnew,(5.1.2)-1
FMAT,2
METRIC
T1C0.400
T2C0.500
T3C0.550
T4C0.650
T5C1.000
T6C3.200
%
G90
G05
T1
X110.4Y-144.6
X110.5Y-142.3
X111.322Y-114.745
X111.35Y-145.619
X114.1Y-135.9
X114.957Y-114.133
X115.047Y-143.246
X115.2Y-135.5
X115.778Y-139.505
X115.947Y-114.572
X116.381Y-116.078
X117.04Y-109.993
X117.316Y-120.214
X117.452Y-138.482
X117.761Y-111.397
X117.947Y-132.502
X118.761Y-130.678
X119.018Y-118.133
X119.2Y-140.006
X119.7Y-131.347
X119.716Y-107.349
X119.73Y-121.439
X120.629Y-108.771
X120.705Y-131.399
X120.891Y-110.901
X121.6Y-131.97
X121.805Y-108.884
X122.438Y-133.494
X122.574Y-109.659
X122.596Y-119.046
X123.124Y-112.153
X123.465Y-137.959
X123.565Y-140.342
X123.746Y-135.789
X123.913Y-132.07
X124.085Y-116.099
X124.226Y-113.72
X124.249Y-112.06
X124.859Y-134.815
X125.27Y-114.923
X125.396Y-118.016
X126.373Y-115.0
X126.874Y-117.253
X126.891Y-142.61
X127.174Y-113.527
X127.18Y-135.195
X128.057Y-128.947
X130.577Y-116.991
X130.611Y-117.992
X132.836Y-120.856
X133.056Y-132.838
X136.563Y-114.561
X137.295Y-115.94
T4
X127.26Y-138.43
X127.26Y-139.7
X128.53Y-138.43
X128.53Y-139.7
X129.8Y-138.43
X129.8Y-139.7
X131.07Y-138.43
X131.07Y-139.7
X132.34Y-138.43
X132.34Y-139.7
X133.61Y-138.43
X133.61Y-139.7
X134.88Y-138.43
X134.88Y-139.7
X136.15Y-138.43
X136.15Y-139.7
T5
X106.0Y-124.3
X108.54Y-124.3
X111.08Y-124.3
X113.62Y-124.3
X116.16Y-124.3
X123.88Y-124.3
X126.42Y-124.3
X128.96Y-124.3
X131.5Y-124.3
X134.04Y-124.3
X108.66Y-106.3
X111.2Y-106.3
X113.74Y-106.3
X124.0Y-102.7
X126.54Y-102.7
X129.08Y-102.7
X131.62Y-102.7
X134.16Y-102.7
X108.5Y-127.9
X111.04Y-127.9
X113.58Y-127.9
X102.03Y-127.97
X102.03Y-130.51
X102.03Y-133.05
X102.03Y-135.59
X102.03Y-138.13
X102.03Y-140.67
X126.6Y-106.3
X129.14Y-106.3
X131.68Y-106.3
X126.6Y-127.9
X129.14Y-127.9
X131.68Y-127.9
X106.0Y-102.7
X108.54Y-102.7
X111.08Y-102.7
X113.62Y-102.7
X116.16Y-102.7
T6
X103.0Y-147.0
X137.0Y-147.0
T2
G00X116.6Y-148.375
M15
G01X116.6Y-149.025
M16
G05
G00X123.6Y-148.375
M15
G01X123.6Y-149.025
M16
G05
T3
G00X117.45Y-146.0
M15
G01X117.75Y-146.0
M16
G05
G00X122.45Y-146.0
M15
G01X122.75Y-146.0
M16
G05
T0
M30
